<svg width="200" height="200" viewBox="0 0 200 200" fill="none" xmlns="http://www.w3.org/2000/svg">
<path d="M108.75 13.7121L170.353 49.2783C175.767 52.4044 179.103 58.1816 179.103 64.4338V135.566C179.103 141.818 175.767 147.596 170.353 150.722L108.75 186.288C103.335 189.414 96.6645 189.414 91.25 186.288L29.6475 150.722C24.2329 147.596 20.8975 141.818 20.8975 135.566V64.4338C20.8975 58.1816 24.2329 52.4044 29.6475 49.2783L91.25 13.7121C96.6645 10.586 103.335 10.586 108.75 13.7121Z" stroke="#23C2BF" stroke-width="15"/>
<path d="M93.7131 35.1509C97.4259 33.0073 102 33.0073 105.713 35.1509L152.874 62.3793C156.587 64.5229 158.874 68.4844 158.874 72.7716V127.228C158.874 131.516 156.587 135.477 152.874 137.621L105.713 164.849C102 166.993 97.4259 166.993 93.7131 164.849L46.5521 137.621C42.8393 135.477 40.5521 131.516 40.5521 127.228V72.7716C40.5521 68.4844 42.8393 64.5229 46.5521 62.3793L93.7131 35.1509Z" fill="#1990FF"/>
<path d="M105.313 83.4331C105.332 84.2244 105.041 84.9919 104.501 85.5709C103.961 86.1498 103.216 86.4939 102.425 86.5295L95.5866 86.7683C94.7952 86.788 94.0277 86.4967 93.4488 85.9568C92.8699 85.417 92.5257 84.6716 92.4902 83.8809L91.9275 67.7672C88.5235 69.1877 85.6334 71.6119 83.6422 74.7167C81.6509 77.8215 80.6532 81.4594 80.7819 85.1456C80.9106 88.8318 82.1597 92.3912 84.3627 95.3495C86.5656 98.3078 89.6178 100.525 93.1126 101.704L94.1439 131.239C94.2033 132.939 94.9357 134.546 96.1801 135.707C97.4244 136.867 99.0787 137.486 100.779 137.426C102.479 137.367 104.087 136.634 105.247 135.39C106.407 134.146 107.026 132.491 106.966 130.791L105.935 101.256C109.339 99.8359 112.229 97.4117 114.22 94.3069C116.212 91.2021 117.209 87.5642 117.081 83.878C116.952 80.1918 115.703 76.6324 113.5 73.6741C111.297 70.7158 108.245 68.4991 104.75 67.3194L105.311 83.3903L105.313 83.4331Z" stroke="white" stroke-width="5" stroke-linecap="round" stroke-linejoin="round"/>
</svg>
