<svg width="671" height="250" viewBox="0 0 671 250" fill="none" xmlns="http://www.w3.org/2000/svg">
<path d="M133.75 38.7121L195.353 74.2783C200.767 77.4044 204.103 83.1816 204.103 89.4338V160.566C204.103 166.818 200.767 172.596 195.353 175.722L133.75 211.288C128.335 214.414 121.665 214.414 116.25 211.288L54.6475 175.722C49.2329 172.596 45.8975 166.818 45.8975 160.566V89.4338C45.8975 83.1816 49.2329 77.4044 54.6475 74.2783L116.25 38.7121C121.665 35.586 128.335 35.586 133.75 38.7121Z" stroke="#23C2BF" stroke-width="15"/>
<path d="M118.713 60.1509C122.426 58.0073 127 58.0073 130.713 60.1509L177.874 87.3793C181.587 89.5229 183.874 93.4844 183.874 97.7716V152.228C183.874 156.516 181.587 160.477 177.874 162.621L130.713 189.849C127 191.993 122.426 191.993 118.713 189.849L71.5521 162.621C67.8393 160.477 65.5521 156.516 65.5521 152.228V97.7716C65.5521 93.4844 67.8393 89.5229 71.5521 87.3793L118.713 60.1509Z" fill="#1990FF"/>
<path d="M130.313 108.433C130.332 109.224 130.041 109.992 129.501 110.571C128.961 111.15 128.216 111.494 127.425 111.529L120.587 111.768C119.795 111.788 119.028 111.497 118.449 110.957C117.87 110.417 117.526 109.672 117.49 108.881L116.927 92.7672C113.524 94.1877 110.633 96.6119 108.642 99.7167C106.651 102.821 105.653 106.459 105.782 110.146C105.911 113.832 107.16 117.391 109.363 120.35C111.566 123.308 114.618 125.525 118.113 126.704L119.144 156.239C119.203 157.939 119.936 159.546 121.18 160.707C122.424 161.867 124.079 162.486 125.779 162.426C127.479 162.367 129.087 161.634 130.247 160.39C131.407 159.146 132.026 157.491 131.966 155.791L130.935 126.256C134.339 124.836 137.229 122.412 139.22 119.307C141.212 116.202 142.209 112.564 142.081 108.878C141.952 105.192 140.703 101.632 138.5 98.6741C136.297 95.7158 133.245 93.4991 129.75 92.3194L130.311 108.39L130.313 108.433Z" stroke="white" stroke-width="5" stroke-linecap="round" stroke-linejoin="round"/>
<path d="M263.944 151.831L264.116 157.543C264.116 158.534 263.849 159.295 263.316 159.829C262.783 160.362 262.135 160.628 261.374 160.628C260.65 160.628 260.041 160.381 259.545 159.886C259.05 159.391 258.803 158.857 258.803 158.286C258.803 157.677 258.841 157.125 258.917 156.629C259.031 156.096 259.126 155.506 259.203 154.858C259.393 153.754 259.488 150.993 259.488 146.575V75.5063L321.587 124.751V90.7026C321.587 88.1128 321.511 86.2656 321.359 85.1611C321.168 83.3711 321.073 82.1143 321.073 81.3906C321.073 79.4863 321.892 78.5342 323.53 78.5342C324.177 78.5342 324.787 78.7627 325.358 79.2197C325.967 79.6768 326.272 80.3433 326.272 81.2192V83.2188L326.043 91.5024V163.142L263.944 114.411V151.831ZM369.804 161.085C354.875 161.085 347.41 154.268 347.41 140.633L347.353 103.157L340.783 103.442C338.726 103.442 337.698 102.662 337.698 101.1C337.698 99.5386 338.802 98.7578 341.011 98.7578L346.496 98.9863H347.353V90.1313L371.861 79.1626V98.9863H379.516L384.943 98.7578C387.19 98.7578 388.314 99.5576 388.314 101.157C388.314 101.881 387.99 102.452 387.343 102.871C386.733 103.252 386.029 103.442 385.229 103.442L378.145 103.157H371.861V156.858C376.317 156.782 380.03 155.506 383.001 153.03C384.41 151.964 385.4 150.593 385.972 148.917C386.581 147.241 387.114 146.175 387.571 145.718C388.066 145.223 388.638 144.975 389.285 144.975C389.933 144.975 390.485 145.242 390.942 145.775C391.399 146.27 391.627 146.879 391.627 147.603C391.627 148.289 391.437 149.069 391.056 149.945C390.675 150.783 390.104 151.678 389.342 152.63C387.628 154.763 385.648 156.458 383.401 157.715C379.326 159.962 374.793 161.085 369.804 161.085ZM396.141 129.15C396.141 124.58 396.959 120.429 398.597 116.696C400.273 112.926 402.558 109.65 405.453 106.87C411.699 100.929 419.544 97.958 428.99 97.958C438.625 97.958 446.471 101.043 452.527 107.213C458.316 113.04 461.21 120.41 461.21 129.322C461.21 138.272 458.24 145.756 452.298 151.773C446.167 157.981 438.321 161.085 428.761 161.085C419.43 161.085 411.699 158.134 405.567 152.23C399.283 146.137 396.141 138.443 396.141 129.15ZM427.162 156.801C427.466 156.839 427.771 156.858 428.076 156.858H428.875C436.569 156.858 443.024 154.478 448.242 149.717C453.803 144.575 456.583 137.834 456.583 129.493C456.583 121.343 453.974 114.735 448.756 109.669C443.615 104.642 436.969 102.128 428.818 102.128H427.961C427.695 102.128 427.428 102.147 427.162 102.186V156.801ZM470.637 129.15C470.637 124.58 471.456 120.429 473.093 116.696C474.769 112.926 477.054 109.65 479.949 106.87C486.195 100.929 494.041 97.958 503.486 97.958C513.122 97.958 520.967 101.043 527.023 107.213C532.812 113.04 535.707 120.41 535.707 129.322C535.707 138.272 532.736 145.756 526.794 151.773C520.663 157.981 512.817 161.085 503.257 161.085C493.926 161.085 486.195 158.134 480.063 152.23C473.779 146.137 470.637 138.443 470.637 129.15ZM501.658 156.801C501.962 156.839 502.267 156.858 502.572 156.858H503.372C511.065 156.858 517.521 154.478 522.738 149.717C528.299 144.575 531.079 137.834 531.079 129.493C531.079 121.343 528.47 114.735 523.252 109.669C518.111 104.642 511.465 102.128 503.314 102.128H502.458C502.191 102.128 501.924 102.147 501.658 102.186V156.801ZM550.389 79.1626H574.954V160H550.389V79.1626ZM589.236 152.345C589.236 151.773 589.427 151.259 589.808 150.802C590.227 150.307 590.76 150.06 591.407 150.06C592.055 150.06 592.588 150.25 593.007 150.631C593.007 150.631 593.483 151.069 594.435 151.945C598.396 155.411 603.938 157.144 611.06 157.144C615.858 157.144 618.943 156.153 620.314 154.173C620.695 153.64 620.886 153.106 620.886 152.573C620.886 152.002 620.771 151.469 620.543 150.974C620.353 150.44 619.915 149.812 619.229 149.088C618.543 148.327 617.572 147.432 616.315 146.403L611.288 142.347C602.985 135.873 597.292 130.617 594.207 126.58C591.388 122.885 589.979 119.115 589.979 115.268C589.979 110.431 592.207 106.375 596.663 103.1C601.271 99.6719 607.232 97.958 614.544 97.958C619.686 97.958 623.742 98.5483 626.713 99.729C629.684 100.91 631.778 101.995 632.997 102.985C634.216 103.938 634.825 104.813 634.825 105.613C634.825 107.251 634.178 108.07 632.883 108.07C632.273 108.07 631.702 107.86 631.169 107.441C630.674 106.984 629.665 106.242 628.141 105.213C626.618 104.147 624.599 103.309 622.085 102.7C619.572 102.09 617.229 101.786 615.059 101.786C612.888 101.786 611.345 102.128 610.431 102.814C609.555 103.5 609.117 104.185 609.117 104.871C609.117 105.518 609.25 106.146 609.517 106.756C609.784 107.327 610.279 108.013 611.002 108.812C612.678 110.793 615.363 113.135 619.058 115.839C622.752 118.543 625.875 121.019 628.427 123.266C630.979 125.513 632.978 127.589 634.425 129.493C637.053 132.921 638.367 136.387 638.367 139.891C638.367 143.395 637.72 146.403 636.425 148.917C635.13 151.393 633.283 153.525 630.883 155.315C625.818 159.162 619.058 161.085 610.603 161.085C603.823 161.085 598.167 159.791 593.635 157.201C590.703 155.563 589.236 153.944 589.236 152.345Z" fill="white"/>
<path d="M249 188V182.92L245.06 174.88H246.84L248.54 178.58C248.74 179.06 248.94 179.533 249.14 180C249.353 180.467 249.573 180.947 249.8 181.44H249.88C250.12 180.947 250.347 180.467 250.56 180C250.787 179.533 251 179.06 251.2 178.58L252.88 174.88H254.62L250.66 182.92V188H249ZM260.958 188.24C259.865 188.24 258.892 187.96 258.038 187.4C257.198 186.84 256.538 186.047 256.058 185.02C255.592 183.993 255.358 182.78 255.358 181.38C255.358 179.98 255.592 178.78 256.058 177.78C256.538 176.767 257.198 175.993 258.038 175.46C258.892 174.913 259.865 174.64 260.958 174.64C262.065 174.64 263.038 174.913 263.878 175.46C264.718 175.993 265.378 176.767 265.858 177.78C266.338 178.78 266.578 179.98 266.578 181.38C266.578 182.78 266.338 183.993 265.858 185.02C265.378 186.047 264.718 186.84 263.878 187.4C263.038 187.96 262.065 188.24 260.958 188.24ZM260.958 186.76C261.745 186.76 262.425 186.54 262.998 186.1C263.585 185.66 264.038 185.04 264.358 184.24C264.678 183.427 264.838 182.473 264.838 181.38C264.838 180.3 264.678 179.367 264.358 178.58C264.038 177.793 263.585 177.187 262.998 176.76C262.425 176.32 261.745 176.1 260.958 176.1C260.185 176.1 259.505 176.32 258.918 176.76C258.332 177.187 257.878 177.793 257.558 178.58C257.238 179.367 257.078 180.3 257.078 181.38C257.078 182.473 257.238 183.427 257.558 184.24C257.878 185.04 258.332 185.66 258.918 186.1C259.505 186.54 260.185 186.76 260.958 186.76ZM274.06 188.24C273.38 188.24 272.753 188.147 272.18 187.96C271.62 187.76 271.126 187.447 270.7 187.02C270.273 186.58 269.94 186 269.7 185.28C269.46 184.56 269.34 183.687 269.34 182.66V174.88H271V182.7C271 183.727 271.133 184.54 271.4 185.14C271.68 185.727 272.046 186.147 272.5 186.4C272.966 186.64 273.486 186.76 274.06 186.76C274.633 186.76 275.153 186.64 275.62 186.4C276.1 186.147 276.48 185.727 276.76 185.14C277.04 184.54 277.18 183.727 277.18 182.7V174.88H278.76V182.66C278.76 183.687 278.64 184.56 278.4 185.28C278.173 186 277.846 186.58 277.42 187.02C276.993 187.447 276.493 187.76 275.92 187.96C275.346 188.147 274.726 188.24 274.06 188.24ZM282.29 188V174.88H286.39C287.284 174.88 288.077 175 288.77 175.24C289.464 175.467 290.004 175.853 290.39 176.4C290.79 176.933 290.99 177.653 290.99 178.56C290.99 179.44 290.79 180.167 290.39 180.74C290.004 181.313 289.464 181.747 288.77 182.04C288.077 182.32 287.284 182.46 286.39 182.46H283.95V188H282.29ZM283.95 181.1H286.15C287.177 181.1 287.964 180.893 288.51 180.48C289.057 180.053 289.33 179.413 289.33 178.56C289.33 177.707 289.057 177.107 288.51 176.76C287.964 176.4 287.177 176.22 286.15 176.22H283.95V181.1ZM289.49 188L286.07 182L287.37 181.12L291.37 188H289.49ZM302.341 188.24C301.661 188.24 301.034 188.147 300.461 187.96C299.901 187.76 299.408 187.447 298.981 187.02C298.554 186.58 298.221 186 297.981 185.28C297.741 184.56 297.621 183.687 297.621 182.66V174.88H299.281V182.7C299.281 183.727 299.414 184.54 299.681 185.14C299.961 185.727 300.328 186.147 300.781 186.4C301.248 186.64 301.768 186.76 302.341 186.76C302.914 186.76 303.434 186.64 303.901 186.4C304.381 186.147 304.761 185.727 305.041 185.14C305.321 184.54 305.461 183.727 305.461 182.7V174.88H307.041V182.66C307.041 183.687 306.921 184.56 306.681 185.28C306.454 186 306.128 186.58 305.701 187.02C305.274 187.447 304.774 187.76 304.201 187.96C303.628 188.147 303.008 188.24 302.341 188.24ZM310.571 188V174.88H312.231V186.58H317.971V188H310.571ZM320.616 188V176.3H316.656V174.88H326.256V176.3H322.296V188H320.616ZM328.618 188V174.88H330.278V188H328.618ZM333.872 188V174.88H335.972L338.452 181.9C338.612 182.34 338.759 182.78 338.892 183.22C339.039 183.66 339.186 184.127 339.332 184.62H339.412C339.559 184.127 339.699 183.66 339.832 183.22C339.966 182.78 340.106 182.34 340.252 181.9L342.732 174.88H344.812V188H343.252V180.78C343.252 180.393 343.266 179.96 343.292 179.48C343.319 179 343.346 178.527 343.372 178.06C343.412 177.58 343.452 177.147 343.492 176.76H343.412L342.392 179.92L339.932 186.7H338.712L336.252 179.92L335.232 176.76H335.152C335.192 177.147 335.226 177.58 335.252 178.06C335.292 178.527 335.326 179 335.352 179.48C335.379 179.96 335.392 180.393 335.392 180.78V188H333.872ZM346.664 188L351.104 174.88H352.984L357.424 188H355.664L353.364 180.66C353.124 179.927 352.897 179.2 352.684 178.48C352.47 177.747 352.257 177 352.044 176.24H351.964C351.764 177 351.557 177.747 351.344 178.48C351.13 179.2 350.904 179.927 350.664 180.66L348.344 188H346.664ZM348.984 184V182.68H355.044V184H348.984ZM360.889 188V176.3H356.929V174.88H366.529V176.3H362.569V188H360.889ZM368.892 188V174.88H376.452V176.28H370.552V180.4H375.532V181.82H370.552V186.58H376.652V188H368.892ZM386.163 188V176.3H382.203V174.88H391.803V176.3H387.843V188H386.163ZM398.536 188.24C397.443 188.24 396.47 187.96 395.616 187.4C394.776 186.84 394.116 186.047 393.636 185.02C393.17 183.993 392.936 182.78 392.936 181.38C392.936 179.98 393.17 178.78 393.636 177.78C394.116 176.767 394.776 175.993 395.616 175.46C396.47 174.913 397.443 174.64 398.536 174.64C399.643 174.64 400.616 174.913 401.456 175.46C402.296 175.993 402.956 176.767 403.436 177.78C403.916 178.78 404.156 179.98 404.156 181.38C404.156 182.78 403.916 183.993 403.436 185.02C402.956 186.047 402.296 186.84 401.456 187.4C400.616 187.96 399.643 188.24 398.536 188.24ZM398.536 186.76C399.323 186.76 400.003 186.54 400.576 186.1C401.163 185.66 401.616 185.04 401.936 184.24C402.256 183.427 402.416 182.473 402.416 181.38C402.416 180.3 402.256 179.367 401.936 178.58C401.616 177.793 401.163 177.187 400.576 176.76C400.003 176.32 399.323 176.1 398.536 176.1C397.763 176.1 397.083 176.32 396.496 176.76C395.91 177.187 395.456 177.793 395.136 178.58C394.816 179.367 394.656 180.3 394.656 181.38C394.656 182.473 394.816 183.427 395.136 184.24C395.456 185.04 395.91 185.66 396.496 186.1C397.083 186.54 397.763 186.76 398.536 186.76ZM411.818 188.24C410.724 188.24 409.751 187.96 408.898 187.4C408.058 186.84 407.398 186.047 406.918 185.02C406.451 183.993 406.218 182.78 406.218 181.38C406.218 179.98 406.451 178.78 406.918 177.78C407.398 176.767 408.058 175.993 408.898 175.46C409.751 174.913 410.724 174.64 411.818 174.64C412.924 174.64 413.898 174.913 414.738 175.46C415.578 175.993 416.238 176.767 416.718 177.78C417.198 178.78 417.438 179.98 417.438 181.38C417.438 182.78 417.198 183.993 416.718 185.02C416.238 186.047 415.578 186.84 414.738 187.4C413.898 187.96 412.924 188.24 411.818 188.24ZM411.818 186.76C412.604 186.76 413.284 186.54 413.858 186.1C414.444 185.66 414.898 185.04 415.218 184.24C415.538 183.427 415.698 182.473 415.698 181.38C415.698 180.3 415.538 179.367 415.218 178.58C414.898 177.793 414.444 177.187 413.858 176.76C413.284 176.32 412.604 176.1 411.818 176.1C411.044 176.1 410.364 176.32 409.778 176.76C409.191 177.187 408.738 177.793 408.418 178.58C408.098 179.367 407.938 180.3 407.938 181.38C407.938 182.473 408.098 183.427 408.418 184.24C408.738 185.04 409.191 185.66 409.778 186.1C410.364 186.54 411.044 186.76 411.818 186.76ZM420.259 188V174.88H421.919V186.58H427.659V188H420.259ZM429.986 188V174.88H431.646V181.46H431.706L437.166 174.88H439.046L434.946 179.88L439.686 188H437.826L433.906 181.18L431.646 183.84V188H429.986ZM441.568 188V174.88H443.228V188H441.568ZM449.541 188V176.3H445.581V174.88H455.181V176.3H451.221V188H449.541ZM461.548 188V174.88H469.108V176.28H463.208V180.72H468.208V182.12H463.208V188H461.548ZM476.076 188.24C474.982 188.24 474.009 187.96 473.156 187.4C472.316 186.84 471.656 186.047 471.176 185.02C470.709 183.993 470.476 182.78 470.476 181.38C470.476 179.98 470.709 178.78 471.176 177.78C471.656 176.767 472.316 175.993 473.156 175.46C474.009 174.913 474.982 174.64 476.076 174.64C477.182 174.64 478.156 174.913 478.996 175.46C479.836 175.993 480.496 176.767 480.976 177.78C481.456 178.78 481.696 179.98 481.696 181.38C481.696 182.78 481.456 183.993 480.976 185.02C480.496 186.047 479.836 186.84 478.996 187.4C478.156 187.96 477.182 188.24 476.076 188.24ZM476.076 186.76C476.862 186.76 477.542 186.54 478.116 186.1C478.702 185.66 479.156 185.04 479.476 184.24C479.796 183.427 479.956 182.473 479.956 181.38C479.956 180.3 479.796 179.367 479.476 178.58C479.156 177.793 478.702 177.187 478.116 176.76C477.542 176.32 476.862 176.1 476.076 176.1C475.302 176.1 474.622 176.32 474.036 176.76C473.449 177.187 472.996 177.793 472.676 178.58C472.356 179.367 472.196 180.3 472.196 181.38C472.196 182.473 472.356 183.427 472.676 184.24C472.996 185.04 473.449 185.66 474.036 186.1C474.622 186.54 475.302 186.76 476.076 186.76ZM484.517 188V174.88H488.617C489.51 174.88 490.303 175 490.997 175.24C491.69 175.467 492.23 175.853 492.617 176.4C493.017 176.933 493.217 177.653 493.217 178.56C493.217 179.44 493.017 180.167 492.617 180.74C492.23 181.313 491.69 181.747 490.997 182.04C490.303 182.32 489.51 182.46 488.617 182.46H486.177V188H484.517ZM486.177 181.1H488.377C489.403 181.1 490.19 180.893 490.737 180.48C491.283 180.053 491.557 179.413 491.557 178.56C491.557 177.707 491.283 177.107 490.737 176.76C490.19 176.4 489.403 176.22 488.377 176.22H486.177V181.1ZM491.717 188L488.297 182L489.597 181.12L493.597 188H491.717ZM499.907 188V174.88H507.467V176.28H501.567V180.4H506.547V181.82H501.567V186.58H507.667V188H499.907ZM512.774 188L508.654 174.88H510.434L512.454 181.96C512.614 182.493 512.761 182.993 512.894 183.46C513.028 183.913 513.161 184.373 513.294 184.84C513.428 185.293 513.574 185.78 513.734 186.3H513.814C513.961 185.78 514.101 185.293 514.234 184.84C514.368 184.373 514.501 183.913 514.634 183.46C514.768 182.993 514.914 182.493 515.074 181.96L517.254 174.88H518.954L514.714 188H512.774ZM520.747 188V174.88H528.307V176.28H522.407V180.4H527.387V181.82H522.407V186.58H528.507V188H520.747ZM531.294 188V174.88H535.394C536.287 174.88 537.081 175 537.774 175.24C538.467 175.467 539.007 175.853 539.394 176.4C539.794 176.933 539.994 177.653 539.994 178.56C539.994 179.44 539.794 180.167 539.394 180.74C539.007 181.313 538.467 181.747 537.774 182.04C537.081 182.32 536.287 182.46 535.394 182.46H532.954V188H531.294ZM532.954 181.1H535.154C536.181 181.1 536.967 180.893 537.514 180.48C538.061 180.053 538.334 179.413 538.334 178.56C538.334 177.707 538.061 177.107 537.514 176.76C536.967 176.4 536.181 176.22 535.154 176.22H532.954V181.1ZM538.494 188L535.074 182L536.374 181.12L540.374 188H538.494ZM544.781 188V182.92L540.841 174.88H542.621L544.321 178.58C544.521 179.06 544.721 179.533 544.921 180C545.135 180.467 545.355 180.947 545.581 181.44H545.661C545.901 180.947 546.128 180.467 546.341 180C546.568 179.533 546.781 179.06 546.981 178.58L548.661 174.88H550.401L546.441 182.92V188H544.781ZM552.173 188V174.88H555.453C556.8 174.88 557.933 175.133 558.853 175.64C559.773 176.147 560.466 176.887 560.933 177.86C561.413 178.82 561.653 179.993 561.653 181.38C561.653 182.767 561.413 183.96 560.933 184.96C560.466 185.947 559.78 186.7 558.873 187.22C557.966 187.74 556.853 188 555.533 188H552.173ZM553.833 186.64H555.333C556.36 186.64 557.213 186.433 557.893 186.02C558.573 185.593 559.08 184.993 559.413 184.22C559.746 183.447 559.913 182.5 559.913 181.38C559.913 180.287 559.746 179.353 559.413 178.58C559.08 177.807 558.573 177.227 557.893 176.84C557.213 176.44 556.36 176.24 555.333 176.24H553.833V186.64ZM562.542 188L566.982 174.88H568.862L573.302 188H571.542L569.242 180.66C569.002 179.927 568.776 179.2 568.562 178.48C568.349 177.747 568.136 177 567.922 176.24H567.842C567.642 177 567.436 177.747 567.222 178.48C567.009 179.2 566.782 179.927 566.542 180.66L564.222 188H562.542ZM564.862 184V182.68H570.922V184H564.862ZM576.988 188V182.92L573.048 174.88H574.828L576.528 178.58C576.728 179.06 576.928 179.533 577.128 180C577.342 180.467 577.562 180.947 577.788 181.44H577.868C578.108 180.947 578.335 180.467 578.548 180C578.775 179.533 578.988 179.06 579.188 178.58L580.868 174.88H582.608L578.648 182.92V188H576.988ZM591.104 188V176.3H587.144V174.88H596.744V176.3H592.784V188H591.104ZM596.566 188L601.006 174.88H602.886L607.326 188H605.566L603.266 180.66C603.026 179.927 602.799 179.2 602.586 178.48C602.373 177.747 602.159 177 601.946 176.24H601.866C601.666 177 601.459 177.747 601.246 178.48C601.033 179.2 600.806 179.927 600.566 180.66L598.246 188H596.566ZM598.886 184V182.68H604.946V184H598.886ZM612.805 188.24C611.872 188.24 611.019 188.067 610.245 187.72C609.472 187.36 608.792 186.88 608.205 186.28L609.145 185.2C609.612 185.693 610.165 186.08 610.805 186.36C611.459 186.64 612.132 186.78 612.825 186.78C613.692 186.78 614.365 186.587 614.845 186.2C615.325 185.8 615.565 185.28 615.565 184.64C615.565 184.187 615.465 183.827 615.265 183.56C615.079 183.293 614.819 183.067 614.485 182.88C614.165 182.693 613.799 182.507 613.385 182.32L611.505 181.5C611.079 181.313 610.659 181.08 610.245 180.8C609.845 180.52 609.512 180.167 609.245 179.74C608.979 179.3 608.845 178.76 608.845 178.12C608.845 177.453 609.019 176.86 609.365 176.34C609.725 175.807 610.212 175.393 610.825 175.1C611.452 174.793 612.165 174.64 612.965 174.64C613.765 174.64 614.499 174.787 615.165 175.08C615.832 175.373 616.392 175.753 616.845 176.22L615.945 177.3C615.532 176.94 615.079 176.653 614.585 176.44C614.092 176.213 613.552 176.1 612.965 176.1C612.232 176.1 611.639 176.273 611.185 176.62C610.745 176.967 610.525 177.433 610.525 178.02C610.525 178.433 610.632 178.773 610.845 179.04C611.059 179.307 611.332 179.527 611.665 179.7C612.012 179.873 612.359 180.04 612.705 180.2L614.565 181C615.085 181.227 615.545 181.487 615.945 181.78C616.359 182.073 616.679 182.44 616.905 182.88C617.145 183.32 617.265 183.86 617.265 184.5C617.265 185.193 617.085 185.827 616.725 186.4C616.379 186.96 615.865 187.407 615.185 187.74C614.519 188.073 613.725 188.24 612.805 188.24ZM619.849 188V174.88H621.509V181.46H621.569L627.029 174.88H628.909L624.809 179.88L629.549 188H627.689L623.769 181.18L621.509 183.84V188H619.849ZM634.895 188.24C633.962 188.24 633.108 188.067 632.335 187.72C631.562 187.36 630.882 186.88 630.295 186.28L631.235 185.2C631.702 185.693 632.255 186.08 632.895 186.36C633.548 186.64 634.222 186.78 634.915 186.78C635.782 186.78 636.455 186.587 636.935 186.2C637.415 185.8 637.655 185.28 637.655 184.64C637.655 184.187 637.555 183.827 637.355 183.56C637.168 183.293 636.908 183.067 636.575 182.88C636.255 182.693 635.888 182.507 635.475 182.32L633.595 181.5C633.168 181.313 632.748 181.08 632.335 180.8C631.935 180.52 631.602 180.167 631.335 179.74C631.068 179.3 630.935 178.76 630.935 178.12C630.935 177.453 631.108 176.86 631.455 176.34C631.815 175.807 632.302 175.393 632.915 175.1C633.542 174.793 634.255 174.64 635.055 174.64C635.855 174.64 636.588 174.787 637.255 175.08C637.922 175.373 638.482 175.753 638.935 176.22L638.035 177.3C637.622 176.94 637.168 176.653 636.675 176.44C636.182 176.213 635.642 176.1 635.055 176.1C634.322 176.1 633.728 176.273 633.275 176.62C632.835 176.967 632.615 177.433 632.615 178.02C632.615 178.433 632.722 178.773 632.935 179.04C633.148 179.307 633.422 179.527 633.755 179.7C634.102 179.873 634.448 180.04 634.795 180.2L636.655 181C637.175 181.227 637.635 181.487 638.035 181.78C638.448 182.073 638.768 182.44 638.995 182.88C639.235 183.32 639.355 183.86 639.355 184.5C639.355 185.193 639.175 185.827 638.815 186.4C638.468 186.96 637.955 187.407 637.275 187.74C636.608 188.073 635.815 188.24 634.895 188.24ZM642.459 184.04L642.239 176.48L642.199 174.6H643.859L643.819 176.48L643.599 184.04H642.459ZM643.039 188.24C642.719 188.24 642.439 188.127 642.199 187.9C641.959 187.66 641.839 187.36 641.839 187C641.839 186.613 641.959 186.307 642.199 186.08C642.439 185.84 642.719 185.72 643.039 185.72C643.372 185.72 643.652 185.84 643.879 186.08C644.105 186.307 644.219 186.613 644.219 187C644.219 187.36 644.105 187.66 643.879 187.9C643.652 188.127 643.372 188.24 643.039 188.24Z" fill="white"/>
</svg>
