<svg width="451" height="392" viewBox="0 0 451 392" fill="none" xmlns="http://www.w3.org/2000/svg">
<path d="M234.25 38.7121L295.853 74.2783C301.267 77.4044 304.603 83.1816 304.603 89.4338V160.566C304.603 166.818 301.267 172.596 295.853 175.722L234.25 211.288C228.835 214.414 222.165 214.414 216.75 211.288L155.147 175.722C149.733 172.596 146.397 166.818 146.397 160.566V89.4338C146.397 83.1816 149.733 77.4044 155.147 74.2783L216.75 38.7121C222.165 35.586 228.835 35.586 234.25 38.7121Z" stroke="#23C2BF" stroke-width="15"/>
<path d="M219.213 60.1509C222.926 58.0073 227.5 58.0073 231.213 60.1509L278.374 87.3793C282.087 89.5229 284.374 93.4844 284.374 97.7716V152.228C284.374 156.516 282.087 160.477 278.374 162.621L231.213 189.849C227.5 191.993 222.926 191.993 219.213 189.849L172.052 162.621C168.339 160.477 166.052 156.516 166.052 152.228V97.7716C166.052 93.4844 168.339 89.5229 172.052 87.3793L219.213 60.1509Z" fill="#1990FF"/>
<path d="M230.813 108.433C230.832 109.224 230.541 109.992 230.001 110.571C229.461 111.15 228.716 111.494 227.925 111.529L221.087 111.768C220.295 111.788 219.528 111.497 218.949 110.957C218.37 110.417 218.026 109.672 217.99 108.881L217.427 92.7672C214.024 94.1877 211.133 96.6119 209.142 99.7167C207.151 102.821 206.153 106.459 206.282 110.146C206.411 113.832 207.66 117.391 209.863 120.35C212.066 123.308 215.118 125.525 218.613 126.704L219.644 156.239C219.703 157.939 220.436 159.546 221.68 160.707C222.924 161.867 224.579 162.486 226.279 162.426C227.979 162.367 229.587 161.634 230.747 160.39C231.907 159.146 232.526 157.491 232.466 155.791L231.435 126.256C234.839 124.836 237.729 122.412 239.72 119.307C241.712 116.202 242.709 112.564 242.581 108.878C242.452 105.192 241.203 101.632 239 98.6741C236.797 95.7157 233.745 93.4991 230.25 92.3194L230.811 108.39L230.813 108.433Z" stroke="white" stroke-width="5" stroke-linecap="round" stroke-linejoin="round"/>
<path d="M43.9443 322.831L44.1157 328.543C44.1157 329.534 43.8491 330.295 43.3159 330.829C42.7827 331.362 42.1353 331.628 41.3735 331.628C40.6499 331.628 40.0405 331.381 39.5454 330.886C39.0503 330.391 38.8027 329.857 38.8027 329.286C38.8027 328.677 38.8408 328.125 38.917 327.629C39.0312 327.096 39.1265 326.506 39.2026 325.858C39.3931 324.754 39.4883 321.993 39.4883 317.575V246.506L101.587 295.751V261.703C101.587 259.113 101.511 257.266 101.359 256.161C101.168 254.371 101.073 253.114 101.073 252.391C101.073 250.486 101.892 249.534 103.53 249.534C104.177 249.534 104.787 249.763 105.358 250.22C105.967 250.677 106.272 251.343 106.272 252.219V254.219L106.043 262.502V334.142L43.9443 285.411V322.831ZM149.804 332.085C134.875 332.085 127.41 325.268 127.41 311.633L127.353 274.157L120.783 274.442C118.726 274.442 117.698 273.662 117.698 272.1C117.698 270.539 118.802 269.758 121.011 269.758L126.496 269.986H127.353V261.131L151.861 250.163V269.986H159.516L164.943 269.758C167.19 269.758 168.314 270.558 168.314 272.157C168.314 272.881 167.99 273.452 167.343 273.871C166.733 274.252 166.029 274.442 165.229 274.442L158.145 274.157H151.861V327.858C156.317 327.782 160.03 326.506 163.001 324.03C164.41 322.964 165.4 321.593 165.972 319.917C166.581 318.241 167.114 317.175 167.571 316.718C168.066 316.223 168.638 315.975 169.285 315.975C169.933 315.975 170.485 316.242 170.942 316.775C171.399 317.27 171.627 317.879 171.627 318.603C171.627 319.289 171.437 320.069 171.056 320.945C170.675 321.783 170.104 322.678 169.342 323.63C167.628 325.763 165.648 327.458 163.401 328.715C159.326 330.962 154.793 332.085 149.804 332.085ZM176.141 300.15C176.141 295.58 176.959 291.429 178.597 287.696C180.273 283.926 182.558 280.65 185.453 277.87C191.699 271.929 199.544 268.958 208.99 268.958C218.625 268.958 226.471 272.043 232.527 278.213C238.316 284.04 241.21 291.41 241.21 300.322C241.21 309.272 238.24 316.756 232.298 322.773C226.167 328.981 218.321 332.085 208.761 332.085C199.43 332.085 191.699 329.134 185.567 323.23C179.283 317.137 176.141 309.443 176.141 300.15ZM207.162 327.801C207.466 327.839 207.771 327.858 208.076 327.858H208.875C216.569 327.858 223.024 325.478 228.242 320.717C233.803 315.575 236.583 308.834 236.583 300.493C236.583 292.343 233.974 285.735 228.756 280.669C223.615 275.642 216.969 273.128 208.818 273.128H207.961C207.695 273.128 207.428 273.147 207.162 273.186V327.801ZM250.637 300.15C250.637 295.58 251.456 291.429 253.093 287.696C254.769 283.926 257.054 280.65 259.949 277.87C266.195 271.929 274.041 268.958 283.486 268.958C293.122 268.958 300.967 272.043 307.023 278.213C312.812 284.04 315.707 291.41 315.707 300.322C315.707 309.272 312.736 316.756 306.794 322.773C300.663 328.981 292.817 332.085 283.257 332.085C273.926 332.085 266.195 329.134 260.063 323.23C253.779 317.137 250.637 309.443 250.637 300.15ZM281.658 327.801C281.962 327.839 282.267 327.858 282.572 327.858H283.372C291.065 327.858 297.521 325.478 302.738 320.717C308.299 315.575 311.079 308.834 311.079 300.493C311.079 292.343 308.47 285.735 303.252 280.669C298.111 275.642 291.465 273.128 283.314 273.128H282.458C282.191 273.128 281.924 273.147 281.658 273.186V327.801ZM330.389 250.163H354.954V331H330.389V250.163ZM369.236 323.345C369.236 322.773 369.427 322.259 369.808 321.802C370.227 321.307 370.76 321.06 371.407 321.06C372.055 321.06 372.588 321.25 373.007 321.631C373.007 321.631 373.483 322.069 374.435 322.945C378.396 326.411 383.938 328.144 391.06 328.144C395.858 328.144 398.943 327.153 400.314 325.173C400.695 324.64 400.886 324.106 400.886 323.573C400.886 323.002 400.771 322.469 400.543 321.974C400.353 321.44 399.915 320.812 399.229 320.088C398.543 319.327 397.572 318.432 396.315 317.403L391.288 313.347C382.985 306.873 377.292 301.617 374.207 297.58C371.388 293.885 369.979 290.115 369.979 286.268C369.979 281.431 372.207 277.375 376.663 274.1C381.271 270.672 387.232 268.958 394.544 268.958C399.686 268.958 403.742 269.548 406.713 270.729C409.684 271.91 411.778 272.995 412.997 273.985C414.216 274.938 414.825 275.813 414.825 276.613C414.825 278.251 414.178 279.07 412.883 279.07C412.273 279.07 411.702 278.86 411.169 278.441C410.674 277.984 409.665 277.242 408.141 276.213C406.618 275.147 404.599 274.309 402.085 273.7C399.572 273.09 397.229 272.786 395.059 272.786C392.888 272.786 391.345 273.128 390.431 273.814C389.555 274.5 389.117 275.185 389.117 275.871C389.117 276.518 389.25 277.146 389.517 277.756C389.784 278.327 390.279 279.013 391.002 279.812C392.678 281.793 395.363 284.135 399.058 286.839C402.752 289.543 405.875 292.019 408.427 294.266C410.979 296.513 412.978 298.589 414.425 300.493C417.053 303.921 418.367 307.387 418.367 310.891C418.367 314.395 417.72 317.403 416.425 319.917C415.13 322.393 413.283 324.525 410.883 326.315C405.818 330.162 399.058 332.085 390.603 332.085C383.823 332.085 378.167 330.791 373.635 328.201C370.703 326.563 369.236 324.944 369.236 323.345Z" fill="#333333"/>
<path d="M29.0001 359V353.92L25.0601 345.88H26.8401L28.5401 349.58C28.7401 350.06 28.9401 350.533 29.1401 351C29.3534 351.467 29.5734 351.947 29.8001 352.44H29.8801C30.1201 351.947 30.3467 351.467 30.5601 351C30.7867 350.533 31.0001 350.06 31.2001 349.58L32.8801 345.88H34.6201L30.6601 353.92V359H29.0001ZM40.9584 359.24C39.865 359.24 38.8917 358.96 38.0384 358.4C37.1984 357.84 36.5384 357.047 36.0584 356.02C35.5917 354.993 35.3584 353.78 35.3584 352.38C35.3584 350.98 35.5917 349.78 36.0584 348.78C36.5384 347.767 37.1984 346.993 38.0384 346.46C38.8917 345.913 39.865 345.64 40.9584 345.64C42.065 345.64 43.0384 345.913 43.8784 346.46C44.7184 346.993 45.3784 347.767 45.8584 348.78C46.3384 349.78 46.5784 350.98 46.5784 352.38C46.5784 353.78 46.3384 354.993 45.8584 356.02C45.3784 357.047 44.7184 357.84 43.8784 358.4C43.0384 358.96 42.065 359.24 40.9584 359.24ZM40.9584 357.76C41.745 357.76 42.425 357.54 42.9984 357.1C43.585 356.66 44.0384 356.04 44.3584 355.24C44.6784 354.427 44.8384 353.473 44.8384 352.38C44.8384 351.3 44.6784 350.367 44.3584 349.58C44.0384 348.793 43.585 348.187 42.9984 347.76C42.425 347.32 41.745 347.1 40.9584 347.1C40.185 347.1 39.505 347.32 38.9184 347.76C38.3317 348.187 37.8784 348.793 37.5584 349.58C37.2384 350.367 37.0784 351.3 37.0784 352.38C37.0784 353.473 37.2384 354.427 37.5584 355.24C37.8784 356.04 38.3317 356.66 38.9184 357.1C39.505 357.54 40.185 357.76 40.9584 357.76ZM54.0596 359.24C53.3796 359.24 52.7529 359.147 52.1796 358.96C51.6196 358.76 51.1263 358.447 50.6996 358.02C50.2729 357.58 49.9396 357 49.6996 356.28C49.4596 355.56 49.3396 354.687 49.3396 353.66V345.88H50.9996V353.7C50.9996 354.727 51.1329 355.54 51.3996 356.14C51.6796 356.727 52.0463 357.147 52.4996 357.4C52.9663 357.64 53.4863 357.76 54.0596 357.76C54.6329 357.76 55.1529 357.64 55.6196 357.4C56.0996 357.147 56.4796 356.727 56.7596 356.14C57.0396 355.54 57.1796 354.727 57.1796 353.7V345.88H58.7596V353.66C58.7596 354.687 58.6396 355.56 58.3996 356.28C58.1729 357 57.8463 357.58 57.4196 358.02C56.9929 358.447 56.4929 358.76 55.9196 358.96C55.3463 359.147 54.7263 359.24 54.0596 359.24ZM62.2902 359V345.88H66.3902C67.2836 345.88 68.0769 346 68.7702 346.24C69.4636 346.467 70.0036 346.853 70.3902 347.4C70.7902 347.933 70.9902 348.653 70.9902 349.56C70.9902 350.44 70.7902 351.167 70.3902 351.74C70.0036 352.313 69.4636 352.747 68.7702 353.04C68.0769 353.32 67.2836 353.46 66.3902 353.46H63.9502V359H62.2902ZM63.9502 352.1H66.1502C67.1769 352.1 67.9636 351.893 68.5102 351.48C69.0569 351.053 69.3302 350.413 69.3302 349.56C69.3302 348.707 69.0569 348.107 68.5102 347.76C67.9636 347.4 67.1769 347.22 66.1502 347.22H63.9502V352.1ZM69.4902 359L66.0702 353L67.3702 352.12L71.3702 359H69.4902ZM82.3409 359.24C81.6609 359.24 81.0342 359.147 80.4609 358.96C79.9009 358.76 79.4075 358.447 78.9809 358.02C78.5542 357.58 78.2209 357 77.9809 356.28C77.7409 355.56 77.6209 354.687 77.6209 353.66V345.88H79.2809V353.7C79.2809 354.727 79.4142 355.54 79.6809 356.14C79.9609 356.727 80.3275 357.147 80.7809 357.4C81.2475 357.64 81.7675 357.76 82.3409 357.76C82.9142 357.76 83.4342 357.64 83.9009 357.4C84.3809 357.147 84.7609 356.727 85.0409 356.14C85.3209 355.54 85.4609 354.727 85.4609 353.7V345.88H87.0409V353.66C87.0409 354.687 86.9209 355.56 86.6809 356.28C86.4542 357 86.1275 357.58 85.7009 358.02C85.2742 358.447 84.7742 358.76 84.2009 358.96C83.6275 359.147 83.0075 359.24 82.3409 359.24ZM90.5715 359V345.88H92.2315V357.58H97.9715V359H90.5715ZM100.616 359V347.3H96.6557V345.88H106.256V347.3H102.296V359H100.616ZM108.618 359V345.88H110.278V359H108.618ZM113.872 359V345.88H115.972L118.452 352.9C118.612 353.34 118.759 353.78 118.892 354.22C119.039 354.66 119.186 355.127 119.332 355.62H119.412C119.559 355.127 119.699 354.66 119.832 354.22C119.966 353.78 120.106 353.34 120.252 352.9L122.732 345.88H124.812V359H123.252V351.78C123.252 351.393 123.266 350.96 123.292 350.48C123.319 350 123.346 349.527 123.372 349.06C123.412 348.58 123.452 348.147 123.492 347.76H123.412L122.392 350.92L119.932 357.7H118.712L116.252 350.92L115.232 347.76H115.152C115.192 348.147 115.226 348.58 115.252 349.06C115.292 349.527 115.326 350 115.352 350.48C115.379 350.96 115.392 351.393 115.392 351.78V359H113.872ZM126.664 359L131.104 345.88H132.984L137.424 359H135.664L133.364 351.66C133.124 350.927 132.897 350.2 132.684 349.48C132.47 348.747 132.257 348 132.044 347.24H131.964C131.764 348 131.557 348.747 131.344 349.48C131.13 350.2 130.904 350.927 130.664 351.66L128.344 359H126.664ZM128.984 355V353.68H135.044V355H128.984ZM140.889 359V347.3H136.929V345.88H146.529V347.3H142.569V359H140.889ZM148.892 359V345.88H156.452V347.28H150.552V351.4H155.532V352.82H150.552V357.58H156.652V359H148.892ZM166.163 359V347.3H162.203V345.88H171.803V347.3H167.843V359H166.163ZM178.536 359.24C177.443 359.24 176.47 358.96 175.616 358.4C174.776 357.84 174.116 357.047 173.636 356.02C173.17 354.993 172.936 353.78 172.936 352.38C172.936 350.98 173.17 349.78 173.636 348.78C174.116 347.767 174.776 346.993 175.616 346.46C176.47 345.913 177.443 345.64 178.536 345.64C179.643 345.64 180.616 345.913 181.456 346.46C182.296 346.993 182.956 347.767 183.436 348.78C183.916 349.78 184.156 350.98 184.156 352.38C184.156 353.78 183.916 354.993 183.436 356.02C182.956 357.047 182.296 357.84 181.456 358.4C180.616 358.96 179.643 359.24 178.536 359.24ZM178.536 357.76C179.323 357.76 180.003 357.54 180.576 357.1C181.163 356.66 181.616 356.04 181.936 355.24C182.256 354.427 182.416 353.473 182.416 352.38C182.416 351.3 182.256 350.367 181.936 349.58C181.616 348.793 181.163 348.187 180.576 347.76C180.003 347.32 179.323 347.1 178.536 347.1C177.763 347.1 177.083 347.32 176.496 347.76C175.91 348.187 175.456 348.793 175.136 349.58C174.816 350.367 174.656 351.3 174.656 352.38C174.656 353.473 174.816 354.427 175.136 355.24C175.456 356.04 175.91 356.66 176.496 357.1C177.083 357.54 177.763 357.76 178.536 357.76ZM191.818 359.24C190.724 359.24 189.751 358.96 188.898 358.4C188.058 357.84 187.398 357.047 186.918 356.02C186.451 354.993 186.218 353.78 186.218 352.38C186.218 350.98 186.451 349.78 186.918 348.78C187.398 347.767 188.058 346.993 188.898 346.46C189.751 345.913 190.724 345.64 191.818 345.64C192.924 345.64 193.898 345.913 194.738 346.46C195.578 346.993 196.238 347.767 196.718 348.78C197.198 349.78 197.438 350.98 197.438 352.38C197.438 353.78 197.198 354.993 196.718 356.02C196.238 357.047 195.578 357.84 194.738 358.4C193.898 358.96 192.924 359.24 191.818 359.24ZM191.818 357.76C192.604 357.76 193.284 357.54 193.858 357.1C194.444 356.66 194.898 356.04 195.218 355.24C195.538 354.427 195.698 353.473 195.698 352.38C195.698 351.3 195.538 350.367 195.218 349.58C194.898 348.793 194.444 348.187 193.858 347.76C193.284 347.32 192.604 347.1 191.818 347.1C191.044 347.1 190.364 347.32 189.778 347.76C189.191 348.187 188.738 348.793 188.418 349.58C188.098 350.367 187.938 351.3 187.938 352.38C187.938 353.473 188.098 354.427 188.418 355.24C188.738 356.04 189.191 356.66 189.778 357.1C190.364 357.54 191.044 357.76 191.818 357.76ZM200.259 359V345.88H201.919V357.58H207.659V359H200.259ZM209.986 359V345.88H211.646V352.46H211.706L217.166 345.88H219.046L214.946 350.88L219.686 359H217.826L213.906 352.18L211.646 354.84V359H209.986ZM221.568 359V345.88H223.228V359H221.568ZM229.541 359V347.3H225.581V345.88H235.181V347.3H231.221V359H229.541ZM241.548 359V345.88H249.108V347.28H243.208V351.72H248.208V353.12H243.208V359H241.548ZM256.076 359.24C254.982 359.24 254.009 358.96 253.156 358.4C252.316 357.84 251.656 357.047 251.176 356.02C250.709 354.993 250.476 353.78 250.476 352.38C250.476 350.98 250.709 349.78 251.176 348.78C251.656 347.767 252.316 346.993 253.156 346.46C254.009 345.913 254.982 345.64 256.076 345.64C257.182 345.64 258.156 345.913 258.996 346.46C259.836 346.993 260.496 347.767 260.976 348.78C261.456 349.78 261.696 350.98 261.696 352.38C261.696 353.78 261.456 354.993 260.976 356.02C260.496 357.047 259.836 357.84 258.996 358.4C258.156 358.96 257.182 359.24 256.076 359.24ZM256.076 357.76C256.862 357.76 257.542 357.54 258.116 357.1C258.702 356.66 259.156 356.04 259.476 355.24C259.796 354.427 259.956 353.473 259.956 352.38C259.956 351.3 259.796 350.367 259.476 349.58C259.156 348.793 258.702 348.187 258.116 347.76C257.542 347.32 256.862 347.1 256.076 347.1C255.302 347.1 254.622 347.32 254.036 347.76C253.449 348.187 252.996 348.793 252.676 349.58C252.356 350.367 252.196 351.3 252.196 352.38C252.196 353.473 252.356 354.427 252.676 355.24C252.996 356.04 253.449 356.66 254.036 357.1C254.622 357.54 255.302 357.76 256.076 357.76ZM264.517 359V345.88H268.617C269.51 345.88 270.303 346 270.997 346.24C271.69 346.467 272.23 346.853 272.617 347.4C273.017 347.933 273.217 348.653 273.217 349.56C273.217 350.44 273.017 351.167 272.617 351.74C272.23 352.313 271.69 352.747 270.997 353.04C270.303 353.32 269.51 353.46 268.617 353.46H266.177V359H264.517ZM266.177 352.1H268.377C269.403 352.1 270.19 351.893 270.737 351.48C271.283 351.053 271.557 350.413 271.557 349.56C271.557 348.707 271.283 348.107 270.737 347.76C270.19 347.4 269.403 347.22 268.377 347.22H266.177V352.1ZM271.717 359L268.297 353L269.597 352.12L273.597 359H271.717ZM279.907 359V345.88H287.467V347.28H281.567V351.4H286.547V352.82H281.567V357.58H287.667V359H279.907ZM292.774 359L288.654 345.88H290.434L292.454 352.96C292.614 353.493 292.761 353.993 292.894 354.46C293.028 354.913 293.161 355.373 293.294 355.84C293.428 356.293 293.574 356.78 293.734 357.3H293.814C293.961 356.78 294.101 356.293 294.234 355.84C294.368 355.373 294.501 354.913 294.634 354.46C294.768 353.993 294.914 353.493 295.074 352.96L297.254 345.88H298.954L294.714 359H292.774ZM300.747 359V345.88H308.307V347.28H302.407V351.4H307.387V352.82H302.407V357.58H308.507V359H300.747ZM311.294 359V345.88H315.394C316.287 345.88 317.081 346 317.774 346.24C318.467 346.467 319.007 346.853 319.394 347.4C319.794 347.933 319.994 348.653 319.994 349.56C319.994 350.44 319.794 351.167 319.394 351.74C319.007 352.313 318.467 352.747 317.774 353.04C317.081 353.32 316.287 353.46 315.394 353.46H312.954V359H311.294ZM312.954 352.1H315.154C316.181 352.1 316.967 351.893 317.514 351.48C318.061 351.053 318.334 350.413 318.334 349.56C318.334 348.707 318.061 348.107 317.514 347.76C316.967 347.4 316.181 347.22 315.154 347.22H312.954V352.1ZM318.494 359L315.074 353L316.374 352.12L320.374 359H318.494ZM324.781 359V353.92L320.841 345.88H322.621L324.321 349.58C324.521 350.06 324.721 350.533 324.921 351C325.135 351.467 325.355 351.947 325.581 352.44H325.661C325.901 351.947 326.128 351.467 326.341 351C326.568 350.533 326.781 350.06 326.981 349.58L328.661 345.88H330.401L326.441 353.92V359H324.781ZM332.173 359V345.88H335.453C336.8 345.88 337.933 346.133 338.853 346.64C339.773 347.147 340.466 347.887 340.933 348.86C341.413 349.82 341.653 350.993 341.653 352.38C341.653 353.767 341.413 354.96 340.933 355.96C340.466 356.947 339.78 357.7 338.873 358.22C337.966 358.74 336.853 359 335.533 359H332.173ZM333.833 357.64H335.333C336.36 357.64 337.213 357.433 337.893 357.02C338.573 356.593 339.08 355.993 339.413 355.22C339.746 354.447 339.913 353.5 339.913 352.38C339.913 351.287 339.746 350.353 339.413 349.58C339.08 348.807 338.573 348.227 337.893 347.84C337.213 347.44 336.36 347.24 335.333 347.24H333.833V357.64ZM342.542 359L346.982 345.88H348.862L353.302 359H351.542L349.242 351.66C349.002 350.927 348.776 350.2 348.562 349.48C348.349 348.747 348.136 348 347.922 347.24H347.842C347.642 348 347.436 348.747 347.222 349.48C347.009 350.2 346.782 350.927 346.542 351.66L344.222 359H342.542ZM344.862 355V353.68H350.922V355H344.862ZM356.988 359V353.92L353.048 345.88H354.828L356.528 349.58C356.728 350.06 356.928 350.533 357.128 351C357.342 351.467 357.562 351.947 357.788 352.44H357.868C358.108 351.947 358.335 351.467 358.548 351C358.775 350.533 358.988 350.06 359.188 349.58L360.868 345.88H362.608L358.648 353.92V359H356.988ZM371.104 359V347.3H367.144V345.88H376.744V347.3H372.784V359H371.104ZM376.566 359L381.006 345.88H382.886L387.326 359H385.566L383.266 351.66C383.026 350.927 382.799 350.2 382.586 349.48C382.373 348.747 382.159 348 381.946 347.24H381.866C381.666 348 381.459 348.747 381.246 349.48C381.033 350.2 380.806 350.927 380.566 351.66L378.246 359H376.566ZM378.886 355V353.68H384.946V355H378.886ZM392.805 359.24C391.872 359.24 391.019 359.067 390.245 358.72C389.472 358.36 388.792 357.88 388.205 357.28L389.145 356.2C389.612 356.693 390.165 357.08 390.805 357.36C391.459 357.64 392.132 357.78 392.825 357.78C393.692 357.78 394.365 357.587 394.845 357.2C395.325 356.8 395.565 356.28 395.565 355.64C395.565 355.187 395.465 354.827 395.265 354.56C395.079 354.293 394.819 354.067 394.485 353.88C394.165 353.693 393.799 353.507 393.385 353.32L391.505 352.5C391.079 352.313 390.659 352.08 390.245 351.8C389.845 351.52 389.512 351.167 389.245 350.74C388.979 350.3 388.845 349.76 388.845 349.12C388.845 348.453 389.019 347.86 389.365 347.34C389.725 346.807 390.212 346.393 390.825 346.1C391.452 345.793 392.165 345.64 392.965 345.64C393.765 345.64 394.499 345.787 395.165 346.08C395.832 346.373 396.392 346.753 396.845 347.22L395.945 348.3C395.532 347.94 395.079 347.653 394.585 347.44C394.092 347.213 393.552 347.1 392.965 347.1C392.232 347.1 391.639 347.273 391.185 347.62C390.745 347.967 390.525 348.433 390.525 349.02C390.525 349.433 390.632 349.773 390.845 350.04C391.059 350.307 391.332 350.527 391.665 350.7C392.012 350.873 392.359 351.04 392.705 351.2L394.565 352C395.085 352.227 395.545 352.487 395.945 352.78C396.359 353.073 396.679 353.44 396.905 353.88C397.145 354.32 397.265 354.86 397.265 355.5C397.265 356.193 397.085 356.827 396.725 357.4C396.379 357.96 395.865 358.407 395.185 358.74C394.519 359.073 393.725 359.24 392.805 359.24ZM399.849 359V345.88H401.509V352.46H401.569L407.029 345.88H408.909L404.809 350.88L409.549 359H407.689L403.769 352.18L401.509 354.84V359H399.849ZM414.895 359.24C413.962 359.24 413.108 359.067 412.335 358.72C411.562 358.36 410.882 357.88 410.295 357.28L411.235 356.2C411.702 356.693 412.255 357.08 412.895 357.36C413.548 357.64 414.222 357.78 414.915 357.78C415.782 357.78 416.455 357.587 416.935 357.2C417.415 356.8 417.655 356.28 417.655 355.64C417.655 355.187 417.555 354.827 417.355 354.56C417.168 354.293 416.908 354.067 416.575 353.88C416.255 353.693 415.888 353.507 415.475 353.32L413.595 352.5C413.168 352.313 412.748 352.08 412.335 351.8C411.935 351.52 411.602 351.167 411.335 350.74C411.068 350.3 410.935 349.76 410.935 349.12C410.935 348.453 411.108 347.86 411.455 347.34C411.815 346.807 412.302 346.393 412.915 346.1C413.542 345.793 414.255 345.64 415.055 345.64C415.855 345.64 416.588 345.787 417.255 346.08C417.922 346.373 418.482 346.753 418.935 347.22L418.035 348.3C417.622 347.94 417.168 347.653 416.675 347.44C416.182 347.213 415.642 347.1 415.055 347.1C414.322 347.1 413.728 347.273 413.275 347.62C412.835 347.967 412.615 348.433 412.615 349.02C412.615 349.433 412.722 349.773 412.935 350.04C413.148 350.307 413.422 350.527 413.755 350.7C414.102 350.873 414.448 351.04 414.795 351.2L416.655 352C417.175 352.227 417.635 352.487 418.035 352.78C418.448 353.073 418.768 353.44 418.995 353.88C419.235 354.32 419.355 354.86 419.355 355.5C419.355 356.193 419.175 356.827 418.815 357.4C418.468 357.96 417.955 358.407 417.275 358.74C416.608 359.073 415.815 359.24 414.895 359.24ZM422.459 355.04L422.239 347.48L422.199 345.6H423.859L423.819 347.48L423.599 355.04H422.459ZM423.039 359.24C422.719 359.24 422.439 359.127 422.199 358.9C421.959 358.66 421.839 358.36 421.839 358C421.839 357.613 421.959 357.307 422.199 357.08C422.439 356.84 422.719 356.72 423.039 356.72C423.372 356.72 423.652 356.84 423.879 357.08C424.105 357.307 424.219 357.613 424.219 358C424.219 358.36 424.105 358.66 423.879 358.9C423.652 359.127 423.372 359.24 423.039 359.24Z" fill="#333333"/>
</svg>
