<svg xmlns="http://www.w3.org/2000/svg" width="1024" height="1024" fill="#1990FF" viewBox="0 0 1024 1024">
<g>
<path d="M 243.50,923.63 C236.86,920.46 228.00,910.95 228.00,907.02 C228.00,906.15 230.19,904.49 233.05,903.17 C235.82,901.90 240.89,898.12 244.30,894.78 C250.28,888.93 250.42,888.67 248.25,887.70 C245.05,886.27 245.46,883.75 249.25,881.53 C253.74,878.90 263.45,869.52 267.75,863.66 C271.06,859.15 271.24,858.55 270.16,855.57 C269.52,853.80 269.00,851.60 269.00,850.68 C269.00,849.39 268.08,849.00 265.00,849.00 C260.43,849.00 259.90,847.77 263.45,845.44 C265.59,844.04 266.84,841.92 271.08,832.50 C273.49,827.15 277.22,816.12 277.96,812.19 L 278.78,807.79 L 275.93,808.36 C273.09,808.93 271.07,807.69 272.95,806.53 C274.12,805.81 280.00,787.84 280.00,784.99 C280.00,782.68 279.98,782.68 276.48,784.01 C272.78,785.41 271.44,784.24 273.77,781.64 C279.45,775.32 280.07,766.64 277.41,730.90 C275.79,709.20 276.02,693.76 278.08,686.56 C278.99,683.34 278.94,682.42 277.76,681.56 C273.03,678.07 272.50,669.88 276.49,662.00 C280.04,654.98 293.16,641.85 302.82,635.65 C315.54,627.48 333.63,619.15 349.75,614.03 C353.02,612.99 354.00,612.18 354.00,610.53 C354.00,607.04 351.05,585.72 350.49,585.16 C350.21,584.88 348.75,585.78 347.24,587.18 C339.21,594.59 322.62,603.23 305.42,608.95 C291.16,613.69 281.03,615.00 273.42,613.08 C267.59,611.62 267.64,611.54 265.53,623.45 C263.42,635.35 260.68,644.50 255.96,655.50 C250.12,669.08 244.00,686.07 244.00,688.68 C244.00,691.96 242.09,691.56 240.86,688.02 L 239.82,685.05 L 235.76,690.18 C233.53,693.00 230.72,697.06 229.50,699.19 C227.53,702.67 227.16,702.90 225.94,701.43 C224.77,700.02 224.90,699.23 226.82,695.89 C229.85,690.63 227.88,690.94 224.01,696.33 C222.30,698.72 215.72,705.29 209.38,710.93 C203.05,716.58 197.38,722.28 196.77,723.60 C195.39,726.63 194.45,726.62 192.45,723.57 L 190.86,721.14 L 186.17,726.32 C179.39,733.80 176.68,738.54 177.32,741.79 C178.46,747.51 178.47,748.30 177.43,748.67 C174.95,749.55 169.68,744.45 167.95,739.50 C161.64,721.38 161.66,720.00 168.22,719.99 C172.50,719.99 178.16,718.80 183.14,716.87 C184.89,716.19 185.98,714.86 186.37,712.92 C186.80,710.73 187.52,709.99 189.22,709.97 C191.44,709.94 191.45,709.90 189.56,708.47 C187.68,707.05 187.70,707.00 190.06,706.99 C195.27,706.96 217.93,692.82 221.50,687.35 C222.94,685.17 222.91,685.00 221.15,685.00 C220.10,685.00 218.72,684.37 218.09,683.60 C217.16,682.49 217.61,681.79 220.36,680.09 C222.24,678.92 224.95,676.44 226.37,674.58 L 228.96,671.18 L 226.07,670.17 C224.47,669.62 222.91,669.43 222.59,669.75 C222.26,670.07 222.02,669.92 222.04,669.42 C222.07,668.91 224.31,666.78 227.03,664.69 C232.85,660.20 236.92,653.39 243.54,637.01 C248.79,624.02 255.17,610.87 257.90,607.40 C259.45,605.44 259.58,604.45 258.71,601.22 C257.22,595.64 258.44,592.44 264.47,586.12 C270.88,579.41 279.82,574.37 294.83,569.02 C305.59,565.18 332.88,558.84 344.31,557.51 C347.51,557.14 350.29,556.31 350.50,555.67 C350.71,555.03 351.03,545.70 351.22,534.95 L 351.56,515.40 L 347.74,517.24 C341.70,520.16 326.86,524.76 318.20,526.40 C300.66,529.73 281.56,529.31 273.61,525.42 C271.02,524.16 270.57,524.19 269.39,525.76 C268.10,527.46 265.23,536.06 264.34,540.93 C263.81,543.85 262.08,547.09 262.03,545.25 C261.96,542.40 260.09,544.34 258.05,549.38 C256.73,552.64 255.29,554.71 254.40,554.63 C252.79,554.49 245.71,565.20 241.44,574.25 C238.52,580.45 237.01,581.66 237.72,577.25 C238.07,575.02 237.94,574.78 237.00,576.00 C236.10,577.18 235.98,576.64 236.44,573.50 C236.96,570.00 236.87,569.75 235.76,571.51 C233.30,575.43 226.81,584.00 226.30,584.00 C226.01,584.00 226.06,582.76 226.40,581.25 L 227.02,578.50 L 224.51,581.50 C223.13,583.15 221.51,585.99 220.91,587.80 C219.64,591.62 217.64,591.56 217.18,587.67 C217.01,586.20 216.48,585.00 216.02,585.00 C214.45,585.00 200.54,594.80 197.23,598.24 C193.13,602.50 191.64,607.15 193.56,609.68 C195.75,612.58 195.26,614.00 192.08,614.00 C185.46,614.00 179.56,602.97 180.20,591.81 L 180.50,586.50 L 185.50,586.28 C193.20,585.94 210.81,576.76 210.98,572.99 C210.99,572.72 209.65,571.89 207.99,571.16 C204.32,569.53 204.81,568.45 209.62,567.54 C213.31,566.85 222.00,559.61 226.17,553.77 L 228.12,551.03 L 225.09,551.63 C223.42,551.97 221.26,551.92 220.28,551.53 C218.86,550.97 219.49,550.32 223.43,548.30 C229.13,545.39 228.68,545.79 236.80,536.10 C243.86,527.66 252.59,519.52 258.63,515.72 C261.79,513.74 262.91,512.31 263.41,509.60 C264.37,504.53 268.67,500.80 277.64,497.29 C293.40,491.11 314.32,488.42 339.23,489.38 L 355.96,490.02 L 356.45,487.76 C361.71,463.49 368.08,450.09 378.40,441.64 C385.67,435.68 384.94,435.00 371.25,435.00 C355.71,434.99 343.74,433.44 331.69,429.86 C317.89,425.76 305.85,419.45 297.91,412.17 C294.29,408.84 290.01,405.83 288.41,405.47 C278.41,403.24 273.00,400.58 273.00,397.87 C273.00,397.46 274.43,396.99 276.17,396.81 C277.92,396.64 279.48,396.05 279.64,395.50 C279.81,394.95 275.38,392.02 269.81,389.00 C264.24,385.98 257.07,381.56 253.88,379.20 C248.78,375.41 247.66,374.97 244.54,375.56 C241.38,376.15 241.00,375.99 241.00,374.07 C241.00,372.82 242.79,370.27 245.25,367.99 L 249.50,364.05 L 247.12,359.54 C244.66,354.88 232.73,344.59 224.87,340.34 C221.59,338.57 220.29,338.36 217.68,339.17 C212.13,340.90 211.52,340.73 211.19,337.32 C210.35,328.66 222.05,316.00 230.90,316.00 C234.49,316.00 235.48,317.26 233.89,319.81 C231.96,322.90 233.52,325.99 242.06,336.00 C253.28,349.15 254.23,349.79 256.18,345.50 C257.75,342.05 259.00,342.37 259.00,346.23 C259.00,349.17 268.90,370.44 269.83,369.50 C270.04,369.30 269.52,366.96 268.69,364.31 C266.49,357.30 266.01,353.62 266.86,350.45 C267.97,346.28 269.65,346.40 270.34,350.71 C271.69,359.03 282.24,377.32 290.85,386.25 C294.78,390.33 295.98,391.00 299.34,391.00 L 303.26,391.00 L 299.01,387.23 C296.32,384.84 294.90,382.81 295.13,381.67 C295.46,380.09 295.97,380.24 299.50,382.91 C304.29,386.54 304.61,386.60 305.31,383.91 C305.69,382.47 306.43,381.98 307.68,382.33 C308.68,382.61 312.20,383.13 315.50,383.48 C323.25,384.31 336.54,388.29 345.84,392.57 C356.21,397.35 364.52,403.59 372.94,412.93 C376.94,417.37 380.80,421.00 381.52,421.00 C383.80,421.00 383.73,418.69 381.35,415.18 C376.61,408.20 376.94,397.86 382.34,384.41 C384.29,379.54 385.78,375.44 385.64,375.30 C385.49,375.16 381.36,373.88 376.44,372.46 C358.07,367.14 343.62,357.08 332.41,341.80 C328.71,336.76 323.33,330.29 320.45,327.40 C317.57,324.52 314.68,320.55 314.03,318.58 C313.38,316.61 312.45,315.00 311.97,315.00 C310.71,315.00 304.00,302.67 304.02,300.40 C304.04,299.09 304.55,299.52 305.68,301.81 C306.57,303.63 308.64,306.33 310.26,307.81 C311.88,309.29 314.81,312.19 316.77,314.25 C318.73,316.32 320.49,317.84 320.69,317.64 C320.89,317.44 319.07,314.06 316.65,310.13 C313.38,304.84 311.55,300.20 309.55,292.24 C308.08,286.33 306.02,279.59 304.99,277.25 C302.91,272.54 304.21,271.37 307.50,275.00 C308.50,276.10 309.72,277.00 310.23,277.00 C311.64,277.00 310.05,266.46 307.28,257.50 C304.22,247.59 300.68,241.91 292.98,234.57 C289.69,231.43 287.00,228.67 287.00,228.43 C287.00,227.64 291.85,227.99 294.43,228.98 C295.85,229.51 297.00,229.75 297.00,229.49 C297.00,229.24 295.49,226.67 293.64,223.77 C291.78,220.87 288.80,215.57 287.01,212.00 C285.22,208.43 283.36,205.35 282.88,205.17 C282.39,204.98 282.00,204.31 282.00,203.67 C282.00,202.05 269.96,191.43 264.76,188.46 C259.85,185.65 257.18,185.40 254.44,187.47 C251.54,189.66 251.00,189.35 251.00,185.45 C251.00,176.51 261.39,165.00 269.46,165.00 C272.36,165.00 272.87,167.27 270.50,169.64 C269.68,170.47 269.00,171.78 269.00,172.57 C269.00,174.75 275.91,181.91 280.05,184.02 C282.07,185.06 285.17,187.12 286.93,188.60 L 290.14,191.29 L 294.15,189.03 C298.81,186.42 300.97,187.32 298.97,191.06 C297.32,194.13 298.86,200.80 305.11,217.75 C307.80,225.04 310.00,232.33 310.00,233.96 C310.00,237.32 311.88,242.00 313.23,242.00 C313.73,242.00 313.89,241.21 313.58,240.25 C311.28,232.92 310.30,221.00 312.00,221.00 C312.55,221.00 313.00,221.62 313.00,222.38 C313.00,223.14 313.72,225.48 314.60,227.60 C316.04,231.03 316.34,231.25 317.46,229.72 C318.16,228.77 319.01,228.00 319.36,228.00 C319.71,228.00 320.00,233.00 320.00,239.11 L 320.00,250.23 L 324.63,257.65 L 329.25,265.07 L 330.64,262.29 C331.41,260.75 333.32,258.38 334.88,257.00 C336.45,255.62 339.09,252.10 340.75,249.16 C342.81,245.51 344.02,244.23 344.56,245.10 C345.00,245.80 345.33,252.48 345.30,259.94 C345.26,271.44 344.85,274.94 342.61,283.00 C339.13,295.50 336.55,306.89 337.08,307.38 C337.31,307.60 339.82,307.30 342.64,306.72 C346.94,305.82 348.55,305.94 352.42,307.42 C363.16,311.52 373.15,321.41 387.64,342.31 C391.77,348.25 395.80,353.37 396.60,353.68 C397.51,354.03 401.28,351.14 406.78,345.87 C415.41,337.59 423.56,332.25 429.38,331.06 C431.95,330.53 432.55,329.78 433.55,325.86 C434.20,323.34 435.53,319.91 436.52,318.23 C438.31,315.21 438.30,315.15 435.75,312.11 C432.04,307.71 430.66,302.66 431.28,295.80 C432.59,281.42 443.17,270.19 458.75,266.65 L 464.48,265.35 L 464.17,261.76 C463.59,255.04 468.01,250.11 473.67,251.16 C474.70,251.35 476.51,253.62 477.83,256.37 C479.51,259.89 480.46,260.94 481.24,260.16 C482.03,259.37 482.01,257.98 481.16,255.15 C479.72,250.32 478.42,249.20 473.42,248.47 C471.27,248.16 468.82,247.61 468.00,247.25 C467.18,246.89 464.94,246.57 463.02,246.55 C458.74,246.49 458.00,244.26 460.65,239.35 L 462.49,235.94 L 459.14,229.48 C454.04,219.65 446.38,210.00 443.67,210.00 C440.82,210.00 433.73,202.86 431.27,197.50 C430.26,195.30 427.64,191.70 425.44,189.50 C423.24,187.30 420.28,184.08 418.87,182.34 C417.45,180.61 414.45,178.25 412.21,177.11 C409.96,175.96 407.31,173.64 406.31,171.94 C405.21,170.06 403.41,168.64 401.71,168.30 C399.37,167.82 392.19,161.44 386.21,154.50 C385.50,153.67 383.93,153.00 382.71,153.00 C379.64,152.99 374.31,149.56 373.52,147.07 C373.05,145.59 372.02,145.00 369.90,145.00 C365.85,145.00 361.04,142.85 356.85,139.17 C354.50,137.11 352.68,136.27 351.31,136.63 C348.94,137.25 337.64,132.24 333.37,128.68 C331.31,126.97 328.29,125.97 322.70,125.14 C314.59,123.95 310.05,122.18 306.29,118.75 C304.72,117.31 303.27,116.90 301.23,117.30 C297.64,118.02 290.27,116.41 287.00,114.19 C284.97,112.82 282.07,112.50 271.50,112.50 C259.30,112.50 258.12,112.32 252.30,109.64 C245.57,106.53 242.70,104.07 243.80,102.37 C244.19,101.77 246.07,100.47 248.00,99.48 C257.42,94.65 271.04,93.64 281.10,97.03 C284.43,98.15 290.66,99.68 294.95,100.43 C299.25,101.18 303.83,102.46 305.13,103.28 C306.43,104.10 310.03,105.00 313.11,105.30 C319.50,105.90 332.90,111.13 335.54,114.05 C336.51,115.12 338.36,116.00 339.64,116.00 C341.73,116.00 348.08,118.77 356.50,123.35 C358.15,124.25 360.91,124.99 362.64,124.99 C365.91,125.00 377.34,131.84 378.31,134.37 C378.60,135.11 380.23,136.00 381.95,136.34 C383.99,136.75 385.67,138.00 386.79,139.97 C387.91,141.93 389.06,142.79 390.12,142.46 C392.92,141.58 396.97,143.84 399.12,147.48 C400.26,149.42 401.76,151.00 402.44,151.00 C403.13,151.00 404.46,151.85 405.40,152.89 C406.33,153.92 408.34,155.02 409.86,155.32 C411.53,155.66 413.09,156.89 413.80,158.45 C414.44,159.87 416.13,161.56 417.55,162.21 C418.97,162.85 420.76,164.89 421.53,166.73 C422.45,168.92 424.10,170.56 426.35,171.50 C430.33,173.17 438.00,181.45 438.00,184.09 C438.00,185.26 439.50,186.57 442.25,187.79 C448.67,190.63 456.01,199.92 454.65,203.48 C454.41,204.10 455.51,205.18 457.09,205.88 C460.95,207.59 469.28,219.59 472.71,228.40 C474.74,233.62 476.78,236.76 480.39,240.25 C483.10,242.86 485.84,245.00 486.50,245.00 C487.15,245.00 488.19,243.87 488.82,242.50 C490.61,238.57 493.30,239.38 495.83,244.59 L 498.06,249.19 L 500.11,246.59 C502.65,243.36 504.44,243.33 508.53,246.45 L 511.74,248.90 L 513.50,245.01 C516.04,239.36 518.37,238.96 520.89,243.75 C522.49,246.80 523.59,246.60 528.19,242.45 C530.81,240.08 532.72,239.09 533.94,239.48 C535.43,239.95 536.65,238.35 540.54,230.78 C545.99,220.18 552.50,211.25 557.60,207.36 C559.53,205.89 561.70,203.26 562.43,201.52 C565.13,195.06 574.50,187.00 579.31,187.00 C580.07,187.00 581.52,185.18 582.52,182.95 C584.59,178.37 589.08,174.04 593.80,172.08 C595.56,171.35 597.00,170.40 597.00,169.96 C597.00,167.93 602.36,163.00 604.56,163.00 C606.22,163.00 607.44,162.05 608.54,159.92 C609.48,158.10 611.63,156.22 613.82,155.31 C615.84,154.47 617.73,153.48 618.00,153.11 C618.27,152.75 619.74,151.67 621.25,150.70 C622.76,149.74 624.00,148.30 624.00,147.50 C624.00,145.92 628.90,143.00 631.56,143.00 C632.47,143.00 634.07,141.91 635.12,140.57 C636.17,139.24 638.54,137.65 640.39,137.04 C642.24,136.43 645.55,134.22 647.74,132.13 C650.55,129.46 653.92,127.63 659.11,125.97 C663.18,124.66 668.03,122.56 669.89,121.30 C671.75,120.03 674.51,119.00 676.02,119.00 C677.52,119.00 679.32,118.33 680.00,117.50 C680.68,116.67 682.71,116.00 684.50,116.00 C686.31,116.00 688.37,115.26 689.13,114.35 C691.68,111.27 703.18,106.81 710.00,106.26 C713.58,105.97 718.17,104.89 720.21,103.87 C722.25,102.84 724.85,102.00 725.98,102.00 C727.11,102.00 733.06,100.61 739.19,98.90 C754.38,94.69 762.68,94.96 772.60,100.01 C776.47,101.98 779.50,104.18 779.50,105.01 C779.50,107.09 767.19,112.91 760.49,114.00 C757.31,114.52 751.72,114.53 747.30,114.04 C739.91,113.21 739.51,113.27 736.13,115.84 C733.03,118.20 731.80,118.49 725.32,118.38 C721.29,118.31 718.00,118.67 718.00,119.18 C718.00,120.98 707.30,124.98 699.62,126.05 C693.24,126.93 691.04,127.74 687.35,130.56 C683.26,133.69 681.64,134.46 680.65,133.75 C680.46,133.61 679.56,134.12 678.65,134.88 C677.74,135.63 674.98,136.34 672.53,136.44 C669.05,136.59 667.63,137.20 666.03,139.24 C664.72,140.91 661.55,142.64 657.24,144.04 C653.53,145.25 649.47,147.31 648.21,148.62 C646.95,149.93 645.45,151.00 644.88,151.00 C644.31,151.00 641.47,152.57 638.57,154.50 C635.67,156.42 632.81,158.00 632.21,158.00 C631.62,158.00 630.85,158.89 630.51,159.97 C629.69,162.56 622.13,169.00 619.91,169.00 C618.96,169.00 616.23,171.05 613.84,173.55 C610.98,176.55 608.90,177.95 607.73,177.64 C606.52,177.32 605.19,178.30 603.57,180.68 C601.23,184.13 590.31,194.00 588.84,194.00 C588.43,194.00 587.39,195.48 586.53,197.29 C584.02,202.58 578.92,208.13 575.12,209.72 C568.98,212.29 561.75,219.41 556.56,227.99 C551.66,236.11 551.64,236.19 552.84,240.70 C554.35,246.34 553.11,248.39 548.59,247.73 C543.65,247.00 539.10,248.79 536.95,252.31 C535.88,254.07 535.01,256.25 535.00,257.17 C535.00,258.08 534.44,259.06 533.75,259.34 C532.80,259.73 532.85,260.09 533.95,260.86 C535.92,262.23 536.82,261.49 537.79,257.70 C538.68,254.23 542.68,251.56 545.41,252.60 C547.67,253.47 548.45,257.51 547.02,260.96 C545.55,264.49 546.31,266.00 549.55,266.00 C553.83,266.00 564.78,271.06 569.51,275.22 C574.59,279.69 578.40,286.36 580.03,293.63 C581.47,300.08 579.83,306.67 575.52,311.71 C572.72,314.98 572.37,315.90 573.32,317.55 C573.95,318.62 574.69,321.93 574.98,324.89 L 575.50,330.28 L 581.00,331.68 C589.02,333.72 596.33,338.47 605.11,347.35 C614.36,356.72 613.98,356.80 622.93,343.68 C643.53,313.49 659.38,302.22 673.57,307.67 C675.90,308.56 675.34,301.83 671.94,287.97 C670.13,280.60 668.65,271.39 668.30,265.45 C667.71,255.26 668.54,244.00 669.87,244.00 C670.27,244.00 671.63,246.11 672.88,248.68 C674.13,251.26 676.04,254.52 677.13,255.93 C678.22,257.35 680.40,260.20 681.97,262.29 C684.73,265.93 684.87,265.99 685.56,263.82 C685.95,262.58 688.21,258.63 690.59,255.03 C694.74,248.75 694.90,248.21 694.85,240.94 C694.81,233.62 696.54,225.00 698.06,225.00 C698.47,225.00 699.32,226.46 699.96,228.25 C701.03,231.28 701.20,231.38 702.48,229.67 C703.92,227.73 711.33,205.32 712.78,198.50 C713.25,196.30 713.32,193.04 712.94,191.25 C712.09,187.25 714.11,186.84 717.82,190.25 C719.53,191.81 720.41,192.12 720.72,191.25 C720.97,190.56 722.04,190.00 723.10,190.00 C725.76,190.00 737.72,180.44 739.59,176.83 C741.24,173.63 740.76,170.50 738.46,169.62 C736.26,168.78 736.70,167.19 739.25,166.77 C742.38,166.26 750.08,170.22 752.60,173.65 C757.13,179.82 760.42,188.70 759.01,190.98 C758.45,191.90 757.22,191.61 754.15,189.85 L 750.04,187.50 L 745.29,190.00 C736.93,194.39 727.31,204.42 722.78,213.46 C720.56,217.88 717.82,222.81 716.69,224.41 L 714.63,227.32 L 717.69,226.71 C719.48,226.35 721.45,226.60 722.41,227.31 C723.89,228.39 723.63,228.94 720.01,232.37 C715.03,237.09 710.63,243.38 707.48,250.28 C704.99,255.74 700.67,277.00 702.05,277.00 C702.49,277.00 704.18,275.87 705.82,274.50 C707.45,273.12 709.02,272.00 709.31,272.00 C709.60,272.00 708.77,274.81 707.47,278.25 C706.18,281.69 704.14,288.21 702.95,292.74 C700.57,301.79 697.07,307.95 690.09,315.37 C687.56,318.05 686.45,319.75 687.61,319.16 C688.77,318.56 691.12,316.49 692.82,314.55 C694.53,312.61 697.37,310.14 699.13,309.07 C701.23,307.79 703.13,305.29 704.63,301.81 C705.89,298.89 706.94,297.40 706.96,298.50 C707.01,301.15 701.57,312.57 699.74,313.65 C698.95,314.12 696.16,317.33 693.54,320.80 C690.93,324.26 687.69,327.81 686.34,328.69 C685.00,329.57 680.37,334.84 676.06,340.40 C668.59,350.01 661.86,356.63 654.20,361.88 C649.90,364.82 636.36,371.11 629.00,373.58 C625.98,374.60 623.38,375.49 623.22,375.57 C623.07,375.65 624.38,379.27 626.12,383.61 C629.78,392.68 630.99,403.47 629.03,409.42 C628.36,411.45 625.96,414.89 623.69,417.06 L 619.58,421.02 L 621.73,423.17 L 623.88,425.32 L 635.69,413.35 C651.67,397.16 665.64,389.03 686.28,383.93 C694.82,381.82 695.38,381.79 696.58,383.44 C698.26,385.74 701.11,384.80 706.11,380.28 C709.45,377.26 710.00,377.04 710.00,378.73 C710.00,379.82 708.68,382.53 707.06,384.76 C704.54,388.23 704.35,388.92 705.72,389.45 C706.82,389.87 708.94,388.38 712.41,384.75 C720.62,376.19 731.00,353.32 731.00,343.79 C731.00,339.90 732.81,340.31 734.61,344.61 C737.05,350.44 736.56,356.79 733.03,365.27 C731.29,369.45 729.22,373.40 728.44,374.05 C727.65,374.71 727.00,375.73 727.00,376.32 C727.00,376.91 728.58,375.86 730.50,374.00 C735.35,369.30 740.00,357.08 740.00,349.03 C740.00,342.65 740.36,342.11 742.98,344.48 C744.45,345.82 744.98,345.49 748.27,341.18 C750.28,338.54 754.63,333.32 757.94,329.57 C764.57,322.06 766.61,316.65 763.64,314.48 C759.81,311.68 762.87,309.57 768.50,311.13 C775.91,313.17 785.46,324.81 786.61,333.20 C787.33,338.46 785.91,340.13 782.96,337.47 C780.43,335.17 776.14,336.06 769.57,340.26 C759.13,346.92 754.13,353.33 751.67,363.17 C751.07,365.56 751.37,365.97 754.51,367.00 C757.73,368.07 760.00,370.47 760.00,372.82 C760.00,373.35 758.54,374.05 756.75,374.39 C754.96,374.72 749.76,377.67 745.19,380.93 C740.62,384.19 733.32,388.57 728.97,390.68 C724.63,392.78 721.05,394.77 721.03,395.11 C721.02,395.44 723.79,396.01 727.21,396.36 C730.62,396.72 733.79,397.39 734.26,397.86 C735.68,399.28 730.69,401.77 720.86,404.55 C715.71,406.01 711.05,407.73 710.50,408.38 C708.03,411.31 696.87,419.04 690.47,422.27 C676.34,429.38 654.96,434.41 634.85,435.35 C630.09,435.58 625.66,436.09 625.01,436.50 C624.19,437.00 625.05,438.53 627.74,441.37 C637.26,451.40 641.13,458.43 645.08,472.86 C646.31,477.34 647.66,481.00 648.07,481.00 C648.49,481.00 651.01,480.07 653.67,478.93 C666.77,473.31 694.81,469.94 712.11,471.89 C722.61,473.08 734.07,476.21 736.38,478.53 C737.19,479.34 738.10,480.00 738.40,480.00 C740.75,480.00 753.19,490.51 762.15,500.07 C772.82,511.46 774.45,512.79 780.50,515.11 L 783.50,516.25 L 780.50,517.14 C778.85,517.63 776.45,517.78 775.17,517.47 C772.97,516.95 773.02,517.14 776.11,520.98 C780.37,526.28 785.16,529.88 788.97,530.64 C793.28,531.51 793.71,532.90 790.09,534.27 C786.46,535.64 786.34,536.09 789.00,538.50 C791.41,540.68 791.56,542.00 789.42,542.00 C785.48,542.00 789.52,544.83 799.03,548.75 C807.00,552.03 810.16,552.87 812.69,552.40 C815.26,551.92 816.12,552.16 816.65,553.52 C817.01,554.48 816.79,556.10 816.16,557.12 C815.52,558.14 815.00,560.47 815.00,562.30 C815.00,568.21 812.18,575.67 808.91,578.42 C804.12,582.45 800.36,581.81 802.09,577.25 C804.26,571.55 799.07,564.31 785.08,553.50 L 778.08,548.08 L 777.43,551.54 C777.07,553.44 776.38,555.00 775.90,555.00 C775.42,555.00 773.29,551.55 771.17,547.34 C767.35,539.75 767.31,539.71 766.67,542.90 C765.81,547.21 764.72,546.27 761.92,538.79 C759.89,533.36 759.50,532.86 758.97,535.02 C758.41,537.28 757.91,536.80 753.37,529.73 C750.62,525.45 748.14,522.20 747.84,522.49 C747.55,522.79 744.93,517.60 742.02,510.96 C738.90,503.82 736.28,499.09 735.62,499.39 C720.83,506.00 710.64,508.15 694.00,508.17 C680.78,508.19 672.44,507.12 659.71,503.79 C655.42,502.67 651.79,501.92 651.64,502.13 C651.39,502.47 652.29,517.27 653.62,534.75 L 654.17,542.00 L 659.34,542.00 C674.87,542.00 698.84,545.77 714.27,550.64 C744.95,560.32 760.09,573.57 753.40,584.90 C751.87,587.49 751.92,587.79 754.49,591.56 C758.16,596.91 763.17,606.96 769.46,621.54 C775.30,635.08 779.96,642.57 783.59,644.22 C784.92,644.83 786.00,645.70 786.00,646.16 C786.00,647.19 786.18,647.20 782.19,646.06 C779.09,645.17 778.94,645.24 779.55,647.31 C781.00,652.14 787.11,661.75 791.43,665.96 C796.47,670.87 796.96,672.00 794.06,672.00 C792.99,672.00 791.89,672.37 791.61,672.82 C791.33,673.27 796.13,678.07 802.28,683.48 C810.32,690.55 815.39,694.17 820.30,696.34 C826.21,698.95 827.06,699.64 826.59,701.51 C826.18,703.12 826.86,704.26 829.26,706.03 C833.53,709.19 841.53,713.00 843.89,713.00 C847.31,713.00 847.40,716.23 844.05,718.98 C842.20,720.50 840.99,722.44 840.99,723.85 C841.01,729.88 834.70,736.99 829.31,737.00 C826.03,737.00 825.51,735.15 828.03,732.47 L 830.27,730.08 L 827.66,724.73 C825.13,719.56 822.04,715.91 818.24,713.61 C817.23,713.00 814.92,711.60 813.11,710.50 C811.30,709.40 804.43,703.35 797.85,697.05 C787.14,686.81 780.15,681.00 778.55,681.00 C778.25,681.00 778.00,681.62 778.00,682.38 C778.00,683.14 777.37,684.28 776.59,684.92 C775.45,685.87 774.74,685.31 772.84,681.93 L 770.50,677.76 L 769.36,681.63 C768.06,686.08 767.69,685.38 766.15,675.38 C764.91,667.34 759.27,651.99 757.67,652.30 C757.10,652.41 755.83,649.63 754.86,646.13 C753.01,639.47 752.00,637.45 752.00,640.42 C752.00,641.38 751.44,641.98 750.75,641.75 C749.84,641.45 749.48,637.81 749.43,628.42 C749.37,614.99 747.10,600.50 744.41,596.28 C743.22,594.41 742.58,594.21 740.43,595.03 C736.74,596.43 724.57,596.19 716.92,594.57 C698.96,590.76 672.43,578.57 658.86,567.88 L 655.23,565.01 L 654.51,580.26 C654.12,588.64 653.42,598.88 652.95,603.00 C651.97,611.74 652.17,612.04 660.82,614.55 C674.79,618.61 694.33,627.81 706.91,636.24 C715.88,642.26 726.66,652.86 730.54,659.47 C735.33,667.65 735.57,676.37 731.11,680.40 C729.33,682.01 729.31,682.37 730.80,686.80 C732.08,690.64 732.47,699.04 732.93,732.50 C733.47,771.62 733.60,773.71 735.64,778.12 C736.81,780.66 738.27,783.05 738.89,783.43 C740.80,784.61 740.24,787.31 738.25,786.50 C734.47,784.95 733.49,785.39 733.81,788.50 C734.42,794.52 737.06,803.26 739.00,805.73 C741.69,809.14 741.53,809.73 738.07,809.22 C734.66,808.72 734.65,808.56 738.67,821.44 C742.70,834.33 747.06,841.84 752.39,845.10 C754.10,846.14 755.05,847.04 754.50,847.10 C753.95,847.16 752.83,847.31 752.00,847.44 C751.17,847.56 749.71,847.73 748.75,847.83 C747.79,847.92 747.00,848.67 747.00,849.50 C747.00,850.33 746.55,851.00 746.00,851.00 C743.97,851.00 745.09,856.82 747.85,860.60 C752.18,866.53 760.20,873.58 764.32,875.07 C767.90,876.36 769.03,878.24 767.00,879.50 C766.45,879.84 766.00,880.79 766.00,881.60 C766.00,883.85 776.11,893.41 780.04,894.87 C788.20,897.92 788.54,899.31 783.16,907.63 C778.46,914.90 774.27,918.10 768.62,918.74 C763.17,919.35 761.54,917.69 763.22,913.23 C764.67,909.38 762.74,902.58 757.62,893.50 C754.94,888.74 753.79,887.55 752.05,887.75 C750.19,887.96 749.19,886.56 745.35,878.35 C742.88,873.05 740.30,868.16 739.64,867.50 C738.98,866.83 736.69,863.32 734.57,859.68 C730.73,853.12 729.03,852.10 728.97,856.31 C728.95,857.51 728.31,859.32 727.55,860.33 C726.20,862.11 726.13,862.11 725.20,860.33 C723.94,857.93 722.00,843.21 722.00,836.02 C722.00,825.62 716.82,806.00 714.07,806.00 C713.59,806.00 712.37,808.02 711.35,810.50 C710.33,812.97 709.23,814.99 708.89,815.00 C708.56,815.00 708.04,811.35 707.73,806.89 C707.04,796.86 705.65,794.94 703.34,800.83 C702.42,803.15 701.18,804.90 700.59,804.70 C698.63,804.05 697.92,790.97 699.11,777.71 C699.74,770.68 699.94,764.60 699.54,764.21 C699.15,763.82 697.72,764.79 696.36,766.37 C695.01,767.94 693.64,768.97 693.32,768.66 C693.01,768.34 693.88,764.80 695.26,760.79 C708.40,722.67 717.95,693.84 718.47,690.75 L 719.09,687.00 L 715.23,687.00 C709.73,687.00 701.71,684.43 692.79,679.81 C683.81,675.16 664.06,662.40 654.49,655.07 C650.84,652.27 647.48,650.20 647.03,650.48 C646.57,650.76 645.43,654.48 644.50,658.75 C638.46,686.21 623.31,718.76 605.77,742.00 C587.71,765.91 560.47,789.04 537.37,800.06 C523.04,806.90 515.05,807.56 507.61,802.51 L 504.02,800.07 L 499.03,803.17 C494.45,806.02 493.51,806.23 487.65,805.76 C471.67,804.48 441.83,785.80 418.51,762.48 C400.51,744.48 384.75,720.94 375.09,697.63 C370.17,685.77 363.58,665.46 361.94,657.08 C361.28,653.74 360.31,651.00 359.78,651.00 C359.25,651.00 353.12,654.99 346.16,659.86 C331.86,669.86 312.79,681.13 305.43,683.93 C302.72,684.96 298.36,686.12 295.75,686.51 C292.93,686.94 291.00,687.75 291.00,688.51 C291.00,692.14 307.85,738.44 313.59,750.60 C316.39,756.52 316.53,757.42 314.53,756.65 C313.37,756.21 313.18,756.75 313.62,759.29 C313.92,761.06 314.58,763.80 315.09,765.40 C316.27,769.14 316.24,770.27 315.00,769.50 C313.60,768.64 313.75,771.80 315.45,779.19 C316.25,782.66 317.18,789.77 317.52,795.00 C318.19,805.41 318.33,805.33 312.84,797.79 C310.90,795.13 310.72,795.43 308.99,804.25 C308.37,807.41 307.45,810.00 306.96,810.00 C306.47,810.00 305.42,808.78 304.64,807.28 L 303.21,804.56 L 301.72,808.14 C300.89,810.10 299.90,813.24 299.50,815.11 C298.25,820.95 297.29,821.70 296.57,817.40 C295.78,812.74 294.43,810.24 293.30,811.37 C292.37,812.31 292.46,817.09 293.92,841.35 C294.51,851.16 294.75,859.60 294.44,860.10 C293.37,861.82 292.11,860.98 289.90,857.04 C287.53,852.81 286.00,852.61 286.00,856.53 C286.00,859.16 283.06,866.00 281.92,866.00 C281.53,866.00 280.88,864.76 280.48,863.25 C279.78,860.65 279.56,860.88 276.42,867.50 C274.60,871.35 271.68,878.85 269.92,884.17 C267.13,892.62 266.51,893.71 265.05,892.80 C262.40,891.14 258.76,895.40 255.16,904.37 C251.67,913.06 251.18,918.04 253.57,920.43 C254.44,921.30 255.00,922.79 254.81,923.75 C254.31,926.42 249.21,926.37 243.50,923.63 M 248.13,904.50 C254.15,895.41 255.55,890.49 249.71,899.00 C247.25,902.58 244.06,906.59 242.62,907.92 C239.59,910.73 239.24,912.29 241.75,911.82 C242.71,911.65 245.58,908.35 248.13,904.50 M 771.11,909.75 C771.55,904.78 769.65,900.33 762.75,890.18 C757.96,883.15 758.49,886.17 763.43,894.11 C766.44,898.95 768.20,903.05 768.62,906.21 C769.20,910.54 770.83,912.86 771.11,909.75 M 264.71,877.75 C270.69,869.01 271.99,866.78 269.81,869.00 C265.51,873.39 258.00,882.81 258.00,883.83 C258.00,886.45 260.00,884.63 264.71,877.75 M 753.19,875.25 C751.98,873.74 749.11,869.92 746.81,866.77 C744.51,863.61 742.48,861.19 742.29,861.38 C742.10,861.56 744.50,865.86 747.61,870.92 C751.60,877.41 753.59,879.81 754.33,879.07 C755.08,878.32 754.74,877.19 753.19,875.25 M 283.16,841.87 C285.46,833.39 286.89,815.89 285.16,817.51 C284.56,818.07 283.59,822.80 283.00,828.01 C282.41,833.23 281.27,840.04 280.46,843.14 C278.68,850.04 278.58,851.82 280.08,850.32 C280.68,849.72 282.07,845.92 283.16,841.87 M 734.62,845.34 C733.77,843.78 733.06,842.82 733.04,843.20 C732.97,844.39 735.30,849.03 735.74,848.59 C735.97,848.36 735.46,846.90 734.62,845.34 M 737.44,837.09 C735.95,834.84 734.52,833.00 734.25,833.00 C733.99,833.00 734.43,834.01 735.23,835.25 C736.04,836.49 737.31,838.49 738.06,839.70 C738.81,840.92 739.59,841.75 739.79,841.55 C739.99,841.35 738.93,839.34 737.44,837.09 M 729.59,825.50 C728.50,821.62 728.16,821.13 728.09,823.31 C728.04,824.85 728.56,828.23 729.24,830.81 C730.19,834.39 730.55,834.91 730.75,833.00 C730.89,831.62 730.37,828.25 729.59,825.50 M 724.43,802.47 C723.22,796.01 723.54,763.71 724.97,749.00 C726.68,731.30 726.96,692.55 725.40,689.04 C724.54,687.11 724.18,690.88 723.72,706.54 C723.36,718.99 722.21,733.46 720.65,745.00 C719.28,755.17 717.62,768.90 716.95,775.50 C715.26,792.15 713.83,794.42 714.43,779.50 C714.84,769.20 719.09,735.74 720.48,731.81 C721.52,728.88 722.83,710.73 722.14,708.86 C721.59,707.37 720.93,708.86 719.56,714.68 C718.55,718.98 715.52,728.98 712.83,736.89 C707.61,752.21 707.02,756.69 711.30,748.50 C714.17,743.00 714.84,744.48 713.03,752.31 C709.90,765.88 706.94,784.22 707.56,786.19 C707.96,787.43 710.13,790.66 712.39,793.37 C724.13,807.40 725.56,808.48 724.43,802.47 M 300.90,795.65 C302.33,793.92 304.53,791.66 305.80,790.64 C308.49,788.46 308.47,788.18 303.91,764.00 C300.91,748.10 297.70,735.82 293.32,723.50 C291.95,719.65 290.03,713.35 289.05,709.50 L 287.28,702.50 L 286.59,709.00 C285.88,715.58 286.20,719.51 289.96,751.00 C291.72,765.72 291.93,770.96 291.25,784.00 C290.81,792.52 290.62,800.74 290.84,802.25 L 291.23,805.01 L 294.76,801.90 C296.71,800.20 299.47,797.38 300.90,795.65 M 490.93,792.54 C497.92,788.92 500.56,769.86 502.01,712.50 C503.78,642.66 502.37,477.19 499.93,468.50 C499.18,465.82 496.95,462.67 493.14,458.94 C486.15,452.09 477.94,448.47 457.80,443.35 C445.19,440.14 441.96,439.70 430.50,439.60 C416.67,439.49 412.00,440.20 412.00,442.40 C412.00,443.35 409.95,443.98 405.25,444.46 C388.15,446.20 379.93,450.06 374.59,458.85 C360.76,481.62 358.01,569.34 369.07,634.48 C378.00,687.05 396.19,724.61 428.00,756.16 C444.80,772.83 461.10,784.46 477.00,791.13 C484.54,794.30 487.04,794.55 490.93,792.54 M 536.92,787.37 C556.57,776.91 572.50,764.04 588.59,745.59 C617.63,712.32 634.03,671.20 640.50,615.44 C642.72,596.21 643.58,544.76 642.09,519.50 C639.65,477.93 633.90,455.68 624.20,450.23 C613.51,444.22 603.82,443.33 592.00,447.26 C579.95,451.27 558.76,457.85 555.50,458.58 C553.40,459.06 552.80,458.94 553.50,458.19 C555.20,456.38 567.84,452.00 582.79,448.04 C590.65,445.95 597.30,444.03 597.57,443.77 C597.83,443.50 597.77,442.57 597.44,441.70 C596.06,438.10 573.81,438.28 556.70,442.04 C538.39,446.06 524.41,451.58 519.44,456.74 C517.98,458.26 515.37,462.43 513.64,466.00 L 510.50,472.50 L 510.52,501.50 C510.57,567.06 514.18,766.16 515.61,781.89 C516.27,789.20 519.01,793.00 523.62,793.00 C525.11,793.00 531.09,790.47 536.92,787.37 M 286.80,747.75 C286.41,743.21 285.78,727.66 285.41,713.19 C284.92,694.61 284.40,687.20 283.65,687.95 C281.82,689.78 281.72,712.49 283.47,729.00 C284.37,737.52 285.37,747.09 285.69,750.25 C286.02,753.41 286.55,756.00 286.89,756.00 C287.22,756.00 287.18,752.29 286.80,747.75 M 176.00,726.50 L 178.50,725.07 L 174.75,725.04 C171.22,725.00 170.14,725.81 171.67,727.33 C172.58,728.25 173.12,728.15 176.00,726.50 M 826.45,714.24 C825.93,713.83 823.92,712.14 822.00,710.49 L 818.50,707.50 L 821.95,711.25 C823.84,713.31 825.84,715.00 826.40,715.00 C827.02,715.00 827.04,714.71 826.45,714.24 M 207.99,705.57 C212.38,702.31 215.81,699.47 215.60,699.27 C215.40,699.06 212.33,701.06 208.79,703.71 C205.25,706.35 201.27,709.32 199.93,710.30 C198.59,711.28 198.07,711.95 198.76,711.79 C199.45,711.63 203.61,708.83 207.99,705.57 M 806.00,694.87 C795.88,685.31 790.00,680.49 790.00,681.75 C790.00,683.18 812.51,703.06 814.00,702.94 C814.27,702.92 810.67,699.29 806.00,694.87 M 233.89,675.50 C235.67,673.02 237.51,671.00 237.99,671.00 C240.35,671.00 250.51,648.97 255.65,632.70 C257.01,628.41 259.65,621.32 261.52,616.95 C263.39,612.58 264.53,609.00 264.04,609.00 C262.29,609.00 258.99,615.88 253.95,630.04 C247.10,649.32 241.24,661.53 234.01,671.64 C230.73,676.24 228.63,680.00 229.35,680.00 C230.07,680.00 232.12,677.98 233.89,675.50 M 298.07,677.41 C315.16,672.42 340.85,651.89 350.50,635.50 C352.07,632.83 351.95,632.89 349.41,636.00 C339.28,648.42 322.16,663.27 311.00,669.32 C307.43,671.26 301.83,673.33 298.57,673.93 C291.44,675.22 292.00,675.20 292.00,674.08 C292.00,673.57 293.26,672.88 294.81,672.54 C298.07,671.83 309.86,663.15 318.52,655.10 C324.83,649.23 335.74,639.58 340.00,636.11 C341.38,634.98 342.14,634.05 341.70,634.03 C340.55,633.99 327.83,642.36 319.00,648.96 C311.63,654.48 307.46,657.28 309.50,655.34 C321.15,644.28 336.31,632.65 345.75,627.53 C351.08,624.64 352.85,622.29 348.75,623.56 C320.72,632.21 297.16,645.99 286.32,660.07 C279.00,669.58 278.93,673.70 286.01,677.25 C290.29,679.39 291.24,679.41 298.07,677.41 M 721.65,676.07 C726.98,673.65 727.65,671.38 724.93,665.06 C720.75,655.34 702.28,640.67 682.72,631.53 C672.97,626.97 656.31,621.36 655.36,622.31 C655.05,622.62 657.66,624.31 661.15,626.07 C664.64,627.83 670.03,630.99 673.13,633.09 C679.60,637.48 696.54,651.60 699.50,655.07 C701.65,657.59 699.95,656.35 686.61,645.71 C681.26,641.43 659.74,628.78 662.00,631.23 C662.27,631.53 664.75,633.49 667.50,635.57 C670.25,637.66 675.66,642.10 679.53,645.43 C683.39,648.77 689.00,653.52 691.99,656.00 C694.98,658.48 699.02,661.91 700.96,663.63 C702.91,665.34 706.71,668.14 709.40,669.85 C713.30,672.31 713.95,673.08 712.58,673.61 C709.47,674.80 699.09,670.77 689.79,664.76 C678.21,657.27 668.28,648.49 660.84,639.18 C654.42,631.14 653.27,630.88 658.14,638.55 C665.59,650.30 684.16,665.22 702.45,674.13 C711.39,678.49 715.43,678.89 721.65,676.07 M 784.23,670.75 C783.17,668.96 780.69,664.80 778.73,661.50 C773.62,652.90 769.11,642.14 761.61,620.68 C755.87,604.27 749.42,590.25 748.18,591.49 C747.96,591.71 749.62,596.19 751.87,601.44 C754.12,606.69 758.50,618.75 761.61,628.24 C767.41,646.00 775.57,663.64 781.04,670.25 C784.86,674.86 786.86,675.17 784.23,670.75 M 297.00,602.11 C311.17,597.39 325.78,589.67 332.64,583.29 C338.22,578.10 337.30,578.37 329.88,584.11 C322.78,589.60 302.05,599.08 292.00,601.44 C284.25,603.27 273.42,603.49 272.40,601.85 C272.00,601.19 272.13,600.96 272.69,601.31 C274.48,602.41 289.28,597.18 297.23,592.64 C301.47,590.21 310.10,585.72 316.38,582.66 C322.67,579.60 328.08,576.68 328.39,576.17 C328.71,575.66 325.04,576.50 320.23,578.03 C315.43,579.56 309.23,581.51 306.45,582.36 C303.67,583.22 300.52,584.19 299.45,584.53 C298.17,584.93 298.36,584.61 300.00,583.61 C301.38,582.76 304.75,581.33 307.50,580.41 C310.25,579.50 314.07,577.96 316.00,576.99 C323.36,573.29 333.72,569.01 336.80,568.39 C342.92,567.17 339.95,566.39 332.25,567.20 C312.60,569.28 278.50,582.09 269.58,590.75 C263.61,596.55 264.01,599.41 271.50,604.21 C275.70,606.89 284.91,606.14 297.00,602.11 M 506.71,513.75 L 506.50,460.00 L 504.13,460.00 C502.04,460.00 501.85,460.32 502.50,462.75 C502.90,464.26 503.58,492.73 504.00,526.00 C504.97,602.22 505.11,606.01 506.13,584.50 C506.57,575.15 506.83,543.31 506.71,513.75 M 194.27,591.41 C201.28,586.60 201.32,586.48 194.97,589.43 C191.96,590.83 188.71,591.98 187.75,591.99 C185.97,592.00 185.45,593.12 186.67,594.33 C187.83,595.50 188.93,595.08 194.27,591.41 M 741.32,584.56 C743.43,583.54 745.84,581.64 746.69,580.35 C748.13,578.15 748.06,577.77 745.67,574.64 C740.76,568.20 718.10,558.52 697.41,554.03 C686.73,551.71 667.45,550.11 674.00,552.09 C691.94,557.50 705.66,562.67 704.69,563.65 C704.49,563.84 701.67,563.18 698.42,562.17 C680.82,556.72 677.80,555.87 677.41,556.26 C677.17,556.50 682.49,559.29 689.24,562.46 C695.98,565.64 705.17,570.43 709.65,573.12 C714.14,575.81 720.89,579.18 724.65,580.59 C728.42,582.01 731.65,583.32 731.83,583.50 C732.62,584.29 722.02,583.84 717.00,582.88 C709.41,581.42 692.10,574.01 681.14,567.53 C676.11,564.56 672.00,562.31 672.00,562.53 C672.00,563.70 683.60,571.31 691.00,574.99 C695.67,577.32 700.69,579.85 702.15,580.61 C703.61,581.37 708.79,583.11 713.65,584.48 C724.34,587.47 735.30,587.50 741.32,584.56 M 223.53,571.25 C225.88,568.64 230.66,563.05 234.15,558.83 C240.22,551.50 246.94,543.55 260.85,527.29 C267.23,519.81 268.07,517.55 263.55,519.97 C259.76,522.00 242.15,542.68 226.75,563.18 C224.14,566.66 220.82,570.96 219.37,572.75 C215.25,577.85 218.71,576.59 223.53,571.25 M 806.57,558.53 C804.96,557.22 802.71,555.91 801.57,555.62 C799.94,555.21 800.20,555.73 802.77,558.05 C804.56,559.67 806.81,560.98 807.77,560.96 C809.09,560.94 808.81,560.37 806.57,558.53 M 249.95,546.74 C252.18,543.02 254.00,539.64 254.00,539.24 C254.00,538.40 244.66,552.80 242.97,556.24 C240.96,560.35 245.48,554.19 249.95,546.74 M 778.32,534.25 C775.07,531.09 767.64,521.75 761.80,513.50 C751.58,499.05 741.75,487.92 740.40,489.27 C739.67,490.00 744.54,497.06 752.97,507.50 C756.08,511.35 761.82,518.83 765.72,524.13 C772.74,533.65 777.62,538.34 781.50,539.28 C782.60,539.55 783.66,539.82 783.86,539.88 C784.06,539.95 781.57,537.41 778.32,534.25 M 311.34,517.93 C316.93,516.79 324.42,514.52 328.00,512.87 C335.52,509.42 334.40,509.56 315.66,514.41 C304.21,517.38 300.07,518.00 291.71,518.00 C286.15,518.00 282.03,517.62 282.55,517.16 C283.07,516.70 287.77,515.78 293.00,515.13 C301.89,514.02 332.28,505.93 330.18,505.23 C329.65,505.05 324.71,506.05 319.18,507.45 C308.49,510.16 306.61,510.46 309.00,509.06 C310.87,507.97 330.01,501.50 335.75,500.02 C338.09,499.42 340.00,498.49 340.00,497.96 C340.00,496.64 315.40,496.73 304.91,498.09 C288.46,500.22 273.06,505.16 271.02,508.95 C269.73,511.38 273.25,516.77 277.27,518.52 C282.25,520.68 299.27,520.39 311.34,517.93 M 754.36,513.00 C751.80,509.15 749.54,506.00 749.33,506.00 C748.53,506.00 753.04,513.90 755.54,516.87 C759.78,521.91 759.36,520.51 754.36,513.00 M 716.97,497.51 C725.82,495.95 730.13,494.08 732.44,490.78 C736.33,485.22 733.37,482.76 719.99,480.43 C708.55,478.44 681.62,478.97 673.50,481.35 C663.02,484.42 662.84,484.86 672.00,485.05 C676.67,485.14 684.77,485.53 690.00,485.90 C698.54,486.51 699.04,486.65 695.00,487.29 C692.52,487.68 685.78,488.48 680.01,489.08 C674.23,489.67 669.39,490.28 669.23,490.44 C668.84,490.83 706.15,492.28 713.50,492.15 C716.80,492.10 721.66,491.40 724.30,490.61 C728.53,489.34 728.96,489.34 727.89,490.64 C725.71,493.26 723.24,494.02 711.78,495.56 C699.30,497.25 681.94,497.71 675.00,496.53 C672.52,496.11 670.80,496.08 671.16,496.47 C671.53,496.85 675.35,497.76 679.66,498.48 C688.73,500.01 705.17,499.58 716.97,497.51 M 540.88,433.46 C557.23,430.53 587.57,423.18 599.00,419.38 C608.23,416.32 616.39,411.08 618.61,406.79 C621.51,401.17 620.77,391.96 616.47,380.47 C612.29,369.29 609.08,364.10 601.20,355.80 C585.16,338.90 565.32,333.43 516.00,332.31 C488.41,331.68 464.12,332.99 446.90,336.01 C426.23,339.65 411.38,349.08 400.20,365.65 C392.74,376.73 386.92,395.42 388.43,403.47 C389.68,410.13 396.86,416.26 407.67,419.88 C414.99,422.33 445.49,429.39 462.00,432.46 C494.35,438.47 511.73,438.69 540.88,433.46 M 401.89,431.45 C406.08,431.11 410.18,430.59 411.00,430.29 C411.82,429.99 407.55,428.12 401.50,426.12 C394.52,423.82 390.23,422.87 389.75,423.50 C388.52,425.14 386.87,431.98 387.47,432.95 C387.80,433.49 389.30,433.49 391.16,432.96 C392.88,432.46 397.71,431.78 401.89,431.45 M 617.60,430.54 C617.26,429.19 616.56,426.97 616.04,425.61 L 615.10,423.13 L 608.30,425.00 C604.56,426.04 599.54,427.39 597.15,428.01 C594.76,428.63 593.08,429.42 593.43,429.77 C593.79,430.12 598.44,430.92 603.79,431.56 C618.87,433.35 618.31,433.39 617.60,430.54 M 359.92,424.58 C359.69,424.35 356.12,423.28 352.00,422.19 C347.88,421.10 342.02,419.32 339.00,418.22 C335.98,417.12 330.35,415.20 326.50,413.95 C317.90,411.16 310.16,407.76 307.50,405.61 C305.56,404.03 305.57,404.01 308.00,404.90 C309.38,405.41 315.00,407.71 320.50,410.01 C326.00,412.32 332.07,414.41 334.00,414.66 L 337.50,415.12 L 334.24,412.31 C329.90,408.57 330.13,407.52 334.78,409.89 C336.86,410.95 341.25,412.60 344.53,413.55 C347.81,414.51 352.49,416.14 354.93,417.18 C361.61,420.05 363.33,418.87 357.05,415.73 C354.06,414.23 352.15,413.00 352.80,413.00 C355.82,413.00 353.46,411.04 347.97,408.99 C344.65,407.75 342.16,406.50 342.45,406.22 C343.13,405.53 351.01,408.55 359.25,412.66 C362.96,414.51 366.00,415.61 366.00,415.10 C366.00,413.34 353.74,404.96 344.63,400.49 C339.61,398.02 331.38,394.92 326.35,393.60 C321.31,392.28 316.25,390.90 315.10,390.53 C313.27,389.95 313.00,390.27 313.00,393.06 L 313.00,396.26 L 308.03,395.60 C303.83,395.04 302.75,395.25 301.03,396.97 C298.19,399.81 298.47,401.41 302.51,405.44 C308.74,411.67 330.33,420.39 348.35,423.96 C352.83,424.85 360.60,425.26 359.92,424.58 M 654.40,424.02 C663.55,422.52 681.95,416.23 692.11,411.12 C698.88,407.72 702.37,405.24 705.32,401.75 C707.53,399.13 709.00,396.67 708.60,396.26 C708.20,395.86 704.63,395.47 700.68,395.40 C693.71,395.27 693.49,395.18 693.18,392.63 C693.01,391.18 692.68,390.00 692.45,390.00 C692.21,390.00 687.66,391.40 682.33,393.11 C666.35,398.22 658.27,402.63 644.87,413.50 C639.60,417.78 641.16,417.94 649.13,413.94 C658.10,409.42 665.04,406.71 665.76,407.43 C666.01,407.68 663.06,409.90 659.21,412.37 C652.50,416.66 648.09,420.63 652.84,418.09 C656.02,416.39 671.63,411.00 673.39,411.00 C674.41,411.00 674.72,411.56 674.31,412.64 C673.48,414.81 660.72,420.64 651.70,422.97 C643.80,425.01 645.15,425.54 654.40,424.02 M 291.25,397.34 C290.56,397.06 289.44,397.06 288.75,397.34 C288.06,397.62 288.62,397.84 290.00,397.84 C291.38,397.84 291.94,397.62 291.25,397.34 M 273.21,376.29 C265.97,367.73 258.00,360.40 258.00,362.31 C258.00,364.19 275.77,382.56 276.70,381.64 C277.00,381.33 275.43,378.92 273.21,376.29 M 741.54,375.95 C750.35,372.46 753.05,370.74 747.87,371.93 C743.60,372.90 732.39,378.54 731.38,380.23 C730.78,381.23 730.93,381.25 732.09,380.31 C732.91,379.65 737.15,377.69 741.54,375.95 M 260.45,377.12 C259.03,375.81 248.96,372.71 248.29,373.37 C247.65,374.01 248.39,374.35 255.00,376.40 C260.55,378.13 261.71,378.28 260.45,377.12 M 743.02,362.15 C744.66,359.68 745.98,356.50 745.96,355.08 C745.92,352.61 745.86,352.64 744.51,355.75 C743.73,357.54 741.80,360.91 740.22,363.25 C735.84,369.72 735.38,370.74 737.85,368.58 C739.06,367.52 741.38,364.63 743.02,362.15 M 364.93,354.92 C356.04,348.84 347.01,340.21 342.95,333.91 C339.40,328.40 338.76,324.07 342.16,328.62 C346.40,334.27 353.59,341.19 359.25,345.07 C362.41,347.24 365.00,348.81 365.00,348.56 C365.00,348.32 364.03,346.40 362.84,344.31 C360.79,340.69 361.00,340.80 367.09,346.56 C377.31,356.22 377.78,356.10 370.69,345.61 C367.01,340.18 364.00,335.23 364.00,334.63 C364.00,334.03 368.27,337.80 373.50,343.00 C378.73,348.20 383.00,352.11 383.00,351.68 C383.00,348.12 373.47,334.74 364.14,325.20 C352.10,312.89 344.70,310.46 336.88,316.25 C330.67,320.84 332.68,329.36 342.65,340.72 C349.99,349.07 365.78,359.82 370.93,359.96 C371.71,359.98 369.01,357.71 364.93,354.92 M 644.00,357.08 C645.38,356.17 647.80,354.77 649.39,353.97 C657.62,349.82 674.96,330.13 676.81,322.84 C677.67,319.45 677.51,318.78 675.28,316.55 C672.51,313.78 667.43,312.43 663.84,313.51 C659.33,314.87 652.00,320.23 646.43,326.25 C637.69,335.68 627.07,350.41 628.19,351.53 C628.71,352.04 635.74,345.34 641.34,338.99 L 646.18,333.50 L 643.20,339.50 C641.57,342.80 639.50,347.24 638.61,349.37 C637.08,353.04 637.09,353.18 638.75,351.93 C639.71,351.21 642.92,348.34 645.87,345.56 C649.30,342.32 650.80,341.35 650.02,342.87 C649.02,344.82 649.04,345.10 650.15,344.43 C654.11,342.07 659.35,337.13 664.02,331.38 C666.90,327.83 669.46,325.12 669.70,325.37 C672.13,327.80 652.07,349.79 642.22,355.50 C639.37,357.15 637.03,358.87 637.02,359.32 C636.99,360.40 640.86,359.16 644.00,357.08 M 245.17,347.25 C242.03,342.85 230.80,332.46 227.13,330.57 C225.08,329.51 223.41,329.19 222.85,329.75 C222.29,330.31 225.38,333.08 230.78,336.84 C235.64,340.24 241.15,344.59 243.01,346.51 C247.08,350.71 247.83,350.97 245.17,347.25 M 767.23,333.98 C772.12,330.54 773.57,329.05 772.44,328.62 C769.88,327.63 765.44,330.60 756.98,338.96 C747.85,347.98 746.11,351.84 754.72,343.97 C757.87,341.09 763.50,336.59 767.23,333.98 M 495.37,328.28 C534.21,327.82 550.30,328.40 562.32,330.68 C564.17,331.03 565.15,330.91 564.67,330.40 C562.89,328.49 547.58,326.02 527.20,324.35 C508.60,322.83 503.39,322.76 486.14,323.82 C475.27,324.49 464.83,325.50 462.94,326.07 C461.05,326.64 456.61,327.42 453.08,327.81 C449.55,328.19 446.49,329.02 446.28,329.66 C445.99,330.51 446.88,330.55 449.70,329.80 C451.82,329.23 471.97,328.56 495.37,328.28 M 466.33,311.66 C475.95,301.72 477.51,301.92 469.75,312.12 C464.22,319.38 464.21,319.13 470.16,318.97 C473.10,318.89 478.20,319.14 481.50,319.52 C485.73,320.01 489.31,319.74 493.64,318.60 C501.45,316.57 508.85,316.57 517.92,318.62 C523.58,319.90 527.67,320.09 537.43,319.52 L 549.78,318.81 L 544.78,312.16 C538.45,303.72 537.58,302.84 538.48,305.84 C538.87,307.12 538.90,309.71 538.55,311.58 C537.36,317.92 529.32,319.80 520.38,315.84 C514.33,313.16 500.95,312.93 494.00,315.38 C487.67,317.62 482.72,317.46 480.45,314.95 C478.61,312.91 478.62,312.90 481.36,313.95 C485.31,315.45 488.72,315.21 495.00,313.00 C502.37,310.41 511.52,310.44 518.77,313.09 C527.35,316.22 527.69,316.28 531.56,315.55 C534.36,315.03 535.44,314.18 536.46,311.69 C537.18,309.94 537.55,307.04 537.27,305.25 C537.00,303.46 537.01,302.00 537.31,302.00 C537.60,302.00 542.70,306.50 548.65,312.00 C562.25,324.58 566.12,325.48 555.78,313.66 C551.19,308.41 546.82,302.01 543.99,296.41 C539.90,288.30 539.49,286.83 539.43,280.00 C539.35,271.79 538.45,268.61 536.42,269.39 C535.70,269.67 533.62,268.53 531.80,266.85 C529.99,265.18 527.53,262.91 526.35,261.82 C523.23,258.94 518.01,257.99 504.90,257.92 C491.17,257.83 489.05,258.57 480.53,266.35 L 474.56,271.81 L 474.44,279.65 C474.25,291.90 469.61,301.22 456.03,316.68 C452.73,320.43 450.03,323.85 450.02,324.28 C449.97,326.57 457.68,320.60 466.33,311.66 M 327.65,305.06 C326.28,298.46 326.32,297.31 328.19,288.73 C332.79,267.62 332.69,268.97 329.45,272.46 L 326.90,275.21 L 322.35,266.36 C319.85,261.49 317.63,257.32 317.42,257.10 C316.64,256.29 318.18,289.67 319.13,293.98 C320.16,298.66 328.27,314.67 328.81,313.07 C328.98,312.57 328.45,308.96 327.65,305.06 M 689.94,302.28 C693.86,294.74 694.84,288.89 695.20,270.73 C695.54,254.13 695.29,253.94 689.91,266.90 C688.17,271.08 686.34,274.76 685.83,275.09 C685.28,275.44 685.32,277.43 685.93,280.09 C687.40,286.45 687.23,298.76 685.59,304.53 C682.56,315.22 682.61,314.80 684.84,311.33 C685.96,309.58 688.25,305.51 689.94,302.28 M 461.22,296.32 C462.93,294.52 464.60,290.93 465.72,286.65 L 467.50,279.84 L 464.17,276.86 C461.39,274.38 460.30,273.99 457.67,274.56 C452.40,275.69 449.12,277.85 446.37,282.02 C441.51,289.36 444.90,299.23 452.62,300.21 C456.19,300.66 457.76,299.95 461.22,296.32 M 560.47,299.58 C564.47,297.91 567.22,293.21 567.37,287.83 C567.59,279.47 553.39,270.62 547.83,275.65 C543.41,279.66 547.76,296.65 554.00,299.74 C557.07,301.25 556.42,301.27 560.47,299.58 M 684.63,286.25 C683.83,276.88 683.13,274.00 681.63,274.00 C681.01,274.00 679.71,271.30 678.74,268.00 C677.77,264.70 676.60,262.00 676.14,262.00 C674.69,262.00 676.88,272.55 679.49,278.15 C680.86,281.09 681.99,284.18 682.00,285.00 C682.02,287.32 684.02,294.00 684.69,294.00 C685.02,294.00 684.99,290.51 684.63,286.25 M 337.98,267.19 C337.99,263.90 337.62,262.12 337.00,262.50 C336.45,262.84 336.01,265.90 336.02,269.31 C336.03,273.68 336.32,275.06 337.00,274.00 C337.53,273.18 337.98,270.11 337.98,267.19 M 474.00,259.12 C474.00,258.64 473.37,257.72 472.59,257.07 C471.02,255.77 469.42,257.25 470.50,259.00 C471.26,260.23 474.00,260.33 474.00,259.12 M 530.62,257.45 C530.29,256.59 531.16,253.64 532.56,250.89 C534.88,246.31 534.93,245.97 533.13,246.93 C528.10,249.62 526.49,254.15 529.28,257.75 C530.62,259.48 531.34,259.32 530.62,257.45 M 506.00,253.94 C506.00,252.81 505.55,252.16 505.00,252.50 C504.45,252.84 504.00,253.77 504.00,254.56 C504.00,255.35 504.45,256.00 505.00,256.00 C505.55,256.00 506.00,255.07 506.00,253.94 M 494.00,253.69 C494.00,252.97 493.39,251.55 492.65,250.54 C490.76,247.95 489.73,250.17 491.60,252.84 C493.34,255.32 494.00,255.55 494.00,253.69 M 518.87,254.10 C519.81,253.50 519.95,252.73 519.30,251.57 C518.48,250.11 518.22,250.22 517.20,252.45 C516.00,255.09 516.51,255.60 518.87,254.10 M 470.10,234.42 C467.96,229.51 464.93,223.25 463.38,220.50 C460.28,215.01 452.31,206.69 450.96,207.52 C450.49,207.81 452.39,211.08 455.19,214.78 C460.57,221.89 468.00,236.42 468.00,239.81 C468.00,241.12 468.97,242.17 470.75,242.78 C472.26,243.30 473.61,243.64 473.75,243.53 C473.88,243.42 472.24,239.32 470.10,234.42 M 543.67,242.34 C543.94,242.61 546.61,237.95 549.60,231.98 C552.89,225.41 557.00,218.97 560.02,215.67 C563.45,211.91 564.58,210.05 563.66,209.70 C560.34,208.43 550.83,220.30 544.07,234.15 C540.36,241.75 539.74,243.68 541.24,242.87 C542.30,242.30 543.40,242.06 543.67,242.34 M 700.90,236.25 C700.96,235.56 700.55,235.00 700.00,235.00 C699.45,235.00 699.04,236.69 699.10,238.75 C699.19,242.10 699.29,242.23 700.00,240.00 C700.44,238.62 700.85,236.94 700.90,236.25 M 303.38,227.25 C301.68,223.06 291.86,201.74 291.32,201.07 C291.12,200.83 290.49,201.11 289.90,201.70 C289.14,202.46 290.78,206.50 295.57,215.64 C301.98,227.85 303.83,231.00 304.57,231.00 C304.75,231.00 304.21,229.31 303.38,227.25 M 714.92,212.58 C718.71,202.88 720.42,195.96 718.01,200.09 C716.85,202.07 710.00,220.92 710.00,222.12 C710.00,224.44 711.17,222.17 714.92,212.58 M 575.17,200.70 C579.84,197.14 581.34,194.00 578.37,194.00 C576.30,194.00 569.00,200.78 569.00,202.70 C569.00,204.74 570.51,204.25 575.17,200.70 M 446.56,201.91 C447.33,200.65 439.24,192.00 437.29,192.00 C434.92,192.00 435.96,194.38 440.21,198.71 C444.66,203.25 445.47,203.66 446.56,201.91 M 283.92,194.40 C280.48,190.71 266.16,181.00 264.17,181.00 C263.25,181.00 264.30,181.90 266.50,182.99 C268.70,184.09 273.88,187.85 278.00,191.34 C285.54,197.73 288.43,199.23 283.92,194.40 M 733.28,191.52 C735.35,189.98 736.84,188.51 736.59,188.25 C735.89,187.56 726.00,196.13 726.02,197.41 C726.03,198.01 726.82,197.56 727.77,196.41 C728.72,195.25 731.20,193.05 733.28,191.52 M 589.00,187.94 C589.00,186.81 588.55,186.16 588.00,186.50 C587.45,186.84 587.00,187.77 587.00,188.56 C587.00,189.35 587.45,190.00 588.00,190.00 C588.55,190.00 589.00,189.07 589.00,187.94 M 743.50,185.00 C745.45,183.71 745.93,183.01 744.86,183.01 C743.12,183.00 737.81,186.91 739.50,186.96 C740.05,186.97 741.85,186.09 743.50,185.00 M 431.00,184.04 C431.00,183.50 430.10,182.59 429.00,182.00 C427.90,181.41 427.00,180.07 427.00,179.02 C427.00,176.62 425.17,175.43 423.71,176.89 C422.90,177.70 423.51,178.93 426.00,181.50 C429.41,185.02 431.00,185.82 431.00,184.04 M 596.35,180.53 C598.27,179.08 597.83,177.00 595.62,177.00 C594.92,177.00 593.29,178.12 592.00,179.50 L 589.65,182.00 L 592.08,181.97 C593.41,181.95 595.33,181.31 596.35,180.53 M 418.00,172.17 C418.00,171.16 417.37,170.33 416.60,170.33 C415.48,170.33 415.43,170.72 416.34,172.17 C416.97,173.18 417.60,174.00 417.74,174.00 C417.88,174.00 418.00,173.18 418.00,172.17 M 605.81,170.74 C606.02,169.68 605.53,169.00 604.57,169.00 C603.71,169.00 603.00,169.19 603.00,169.42 C603.00,169.65 602.71,170.59 602.35,171.52 C601.87,172.79 602.17,173.11 603.59,172.84 C604.63,172.64 605.63,171.69 605.81,170.74 M 412.59,167.85 C413.27,166.76 410.55,164.00 408.81,164.00 C407.84,164.00 407.72,167.39 408.67,168.33 C409.71,169.38 411.81,169.12 412.59,167.85 M 614.56,166.57 C615.99,165.51 616.21,164.84 615.39,164.00 C614.56,163.16 613.85,163.29 612.64,164.51 C609.53,167.61 611.01,169.19 614.56,166.57 M 403.00,159.56 C403.00,158.77 402.51,157.82 401.91,157.45 C400.50,156.57 398.57,158.50 399.45,159.91 C400.43,161.50 403.00,161.24 403.00,159.56 M 618.50,160.00 C618.84,159.45 618.64,159.00 618.06,159.00 C617.48,159.00 617.00,159.45 617.00,160.00 C617.00,160.55 617.20,161.00 617.44,161.00 C617.68,161.00 618.16,160.55 618.50,160.00 M 623.87,159.66 C624.48,158.92 624.65,157.98 624.24,157.57 C623.83,157.17 624.12,156.98 624.88,157.17 C625.63,157.35 626.46,156.94 626.71,156.25 C627.61,153.79 623.32,155.01 622.16,157.55 C621.52,158.95 621.00,160.30 621.00,160.55 C621.00,161.50 622.80,160.94 623.87,159.66 M 396.00,152.07 C396.00,150.90 393.14,148.00 391.99,148.00 C390.38,148.00 389.82,150.08 391.04,151.54 C392.37,153.15 396.00,153.54 396.00,152.07 M 635.00,150.12 C635.00,149.64 634.38,148.73 633.63,148.11 C632.60,147.25 631.99,147.31 631.14,148.33 C630.52,149.07 630.31,149.98 630.68,150.34 C631.65,151.31 635.00,151.14 635.00,150.12 M 380.73,143.27 C379.26,141.81 377.71,140.96 377.28,141.39 C376.85,141.82 377.79,143.28 379.37,144.64 C383.09,147.84 384.19,146.74 380.73,143.27 M 642.87,144.66 C643.48,143.92 643.70,143.04 643.36,142.69 C642.55,141.88 639.00,143.79 639.00,145.04 C639.00,146.46 641.58,146.21 642.87,144.66 M 659.77,134.38 C663.85,132.00 664.59,130.00 661.39,130.00 C659.41,130.00 653.20,134.27 651.36,136.90 C649.94,138.92 649.98,138.96 652.70,137.93 C654.24,137.35 657.42,135.75 659.77,134.38 M 369.57,135.07 C365.94,131.29 361.31,129.29 359.76,130.84 C358.39,132.21 358.32,132.15 364.50,135.33 C371.27,138.82 373.07,138.73 369.57,135.07 M 352.00,129.00 C352.00,128.45 351.37,128.00 350.61,128.00 C349.84,128.00 348.94,127.30 348.61,126.44 C348.28,125.58 347.53,125.17 346.94,125.54 C346.23,125.97 346.46,126.85 347.59,128.10 C349.43,130.13 352.00,130.65 352.00,129.00 M 674.43,128.43 C676.34,126.52 676.46,125.00 674.69,125.00 C672.54,125.00 669.64,127.61 670.41,128.85 C671.38,130.42 672.56,130.29 674.43,128.43 M 684.81,123.74 C685.01,122.73 684.54,122.00 683.70,122.00 C681.91,122.00 679.76,124.43 680.71,125.38 C681.91,126.57 684.46,125.55 684.81,123.74 M 341.00,123.98 C342.28,123.15 342.29,122.87 341.09,122.09 C339.30,120.94 337.00,121.79 337.00,123.61 C337.00,125.22 338.85,125.40 341.00,123.98 M 329.44,117.52 C328.37,116.71 323.95,114.65 319.60,112.95 C312.51,110.18 311.55,110.02 310.18,111.39 C308.34,113.23 308.04,113.08 320.09,116.42 C330.47,119.30 332.02,119.49 329.44,117.52 M 702.00,117.02 C713.66,113.98 714.11,113.82 713.68,112.62 C713.46,112.01 711.87,111.61 710.14,111.75 C706.63,112.04 694.28,116.73 693.43,118.11 C692.67,119.34 693.45,119.24 702.00,117.02 M 725.97,110.06 C726.69,108.72 726.68,107.92 725.96,107.47 C724.65,106.67 722.00,108.77 722.00,110.62 C722.00,112.68 724.78,112.29 725.97,110.06 M 735.00,108.44 C735.00,107.65 734.10,107.00 733.00,107.00 C730.82,107.00 730.23,109.56 732.25,110.28 C733.94,110.89 735.00,110.18 735.00,108.44 M 292.82,107.67 C293.04,106.54 292.47,106.00 291.07,106.00 C289.93,106.00 289.00,106.60 289.00,107.33 C289.00,110.40 292.24,110.68 292.82,107.67 M 302.00,108.00 C302.00,106.90 301.61,106.00 301.12,106.00 C299.81,106.00 297.92,108.58 298.68,109.34 C300.04,110.71 302.00,109.92 302.00,108.00 M 762.47,105.05 C763.74,102.99 758.64,101.74 751.47,102.34 C743.70,103.00 741.00,103.71 741.00,105.11 C741.00,106.31 761.72,106.25 762.47,105.05 M 280.40,103.97 C283.09,103.94 283.26,103.80 281.66,102.87 C278.74,101.17 264.74,100.53 262.04,101.98 C258.18,104.04 261.64,105.18 269.90,104.56 C273.97,104.25 278.70,103.99 280.40,103.97 M 301.67,790.27 C301.37,789.79 300.62,785.38 300.01,780.45 C299.39,775.53 298.04,766.55 297.01,760.50 C295.99,754.45 294.64,746.12 294.02,742.00 C293.40,737.88 292.22,731.41 291.40,727.62 C290.59,723.84 290.12,720.55 290.36,720.30 C290.61,720.06 291.12,721.35 291.51,723.18 C291.89,725.01 293.48,731.90 295.04,738.50 C299.12,755.72 300.84,765.57 302.06,778.67 C303.06,789.44 302.96,792.36 301.67,790.27 M 477.50,789.26 C471.17,786.68 456.11,777.13 449.00,771.21 C432.54,757.50 425.00,748.65 411.78,727.50 C386.74,687.44 380.95,667.50 374.49,599.00 C368.59,536.48 368.96,472.55 375.25,466.50 C375.97,465.82 376.10,466.06 375.67,467.26 C372.02,477.63 372.72,539.43 376.97,582.50 C377.51,588.00 378.66,599.92 379.53,609.00 C381.33,627.89 383.09,640.69 386.11,656.80 C388.65,670.29 389.89,671.11 387.64,657.81 C385.98,648.00 383.76,622.94 382.03,594.50 C381.46,585.15 380.30,568.50 379.45,557.50 C377.53,532.58 376.28,469.00 377.71,469.00 C379.11,469.00 380.00,478.90 380.00,494.40 C380.00,507.96 381.89,544.66 384.51,582.00 C388.49,638.85 389.16,647.18 390.55,656.50 C394.80,685.13 403.47,707.53 419.78,732.03 C424.71,739.44 431.91,748.88 435.78,753.00 L 442.82,760.50 L 439.41,753.50 C431.74,737.77 426.52,704.28 423.51,651.50 C423.20,646.00 422.51,636.33 421.98,630.00 C421.45,623.67 419.90,604.33 418.52,587.00 C417.15,569.67 415.13,544.51 414.05,531.08 L 412.07,506.66 L 407.55,497.58 C405.06,492.59 401.22,486.25 399.01,483.50 C396.81,480.75 393.54,476.49 391.75,474.03 C386.82,467.26 379.89,460.00 378.36,460.00 C377.61,460.00 377.00,459.55 377.00,459.00 C377.00,455.71 387.32,460.81 389.67,465.26 C390.62,467.04 391.49,469.10 391.62,469.84 C391.86,471.26 393.12,472.88 399.54,480.00 C401.77,482.48 406.16,489.53 409.30,495.68 C415.65,508.12 415.06,504.77 418.03,545.31 C418.60,553.12 419.93,569.85 420.98,582.50 C422.03,595.15 423.82,617.65 424.96,632.50 C431.72,720.78 432.73,728.21 440.62,748.16 C445.32,760.05 448.77,765.57 454.46,770.31 L 459.03,774.13 L 455.54,767.78 C450.28,758.21 437.76,718.32 438.09,712.17 C438.14,711.25 441.65,720.85 445.90,733.50 C457.00,766.59 460.94,775.29 466.01,778.01 C467.46,778.78 466.90,776.93 463.51,769.75 C458.29,758.67 451.59,732.38 448.58,711.17 C448.40,709.89 448.59,709.22 449.00,709.67 C449.41,710.13 452.04,719.76 454.84,731.09 C461.82,759.32 469.34,779.03 474.40,782.35 C477.80,784.57 478.33,784.43 476.57,781.75 C475.09,779.49 469.59,764.24 466.56,754.00 C460.86,734.76 457.99,690.57 459.84,650.34 C462.06,601.99 463.16,540.23 462.14,521.16 C461.09,501.34 460.90,500.71 453.15,490.50 C436.35,468.38 424.69,459.73 403.30,453.53 C398.57,452.16 394.51,450.84 394.27,450.61 C394.04,450.37 394.76,449.89 395.87,449.54 C398.18,448.81 412.66,453.51 423.91,458.64 C430.08,461.45 433.03,463.74 441.49,472.26 C452.04,482.88 458.02,490.35 462.11,498.02 L 464.50,502.50 L 464.46,559.00 C464.43,601.11 463.98,622.09 462.71,641.37 C458.83,700.09 461.34,728.04 473.83,765.50 C479.85,783.56 480.73,785.53 482.89,785.84 C484.87,786.12 485.15,785.86 484.53,784.34 C476.91,765.59 472.04,739.08 472.01,716.19 C472.00,706.25 473.60,707.93 474.44,718.74 C475.63,734.19 477.03,744.22 479.62,756.00 C483.26,772.54 486.93,784.20 488.33,783.68 C488.97,783.44 489.35,782.63 489.17,781.88 C488.41,778.75 485.06,749.52 483.97,736.50 C483.19,727.15 483.08,717.02 483.63,706.00 L 484.46,689.50 L 485.13,711.50 C485.53,724.68 486.67,739.91 487.97,749.50 C489.16,758.30 490.51,768.42 490.97,772.00 C491.44,775.72 491.78,734.44 491.77,675.50 C491.75,618.85 491.83,554.73 491.96,533.00 C492.10,507.86 491.76,490.41 491.04,485.00 C489.61,474.33 484.77,463.45 479.74,459.61 C472.31,453.95 442.36,445.34 426.50,444.31 C418.66,443.81 417.08,443.47 419.20,442.77 C423.28,441.41 446.74,444.46 459.31,447.99 C477.99,453.24 485.08,458.07 490.95,469.53 L 494.39,476.26 L 495.18,501.88 C496.41,541.58 497.87,677.78 497.56,724.50 C497.32,761.93 496.66,774.76 494.47,784.72 C493.15,790.68 485.78,792.65 477.50,789.26 M 390.38,672.12 C390.02,670.37 389.53,669.14 389.27,669.39 C389.02,669.65 389.12,671.27 389.50,673.00 C390.40,677.10 391.21,676.29 390.38,672.12 M 493.75,590.75 C493.59,580.16 493.45,588.83 493.45,610.00 C493.45,631.17 493.59,639.84 493.75,629.25 C493.91,618.66 493.91,601.34 493.75,590.75 M 418.78,727.88 C413.78,719.36 410.13,705.76 407.48,685.79 C405.52,671.00 402.30,635.12 400.99,613.50 C399.74,592.80 395.69,543.50 393.43,521.50 C391.77,505.29 388.02,488.77 382.50,473.28 C378.78,462.85 380.17,463.03 385.07,473.63 C390.34,485.02 394.83,506.05 396.98,529.50 C397.54,535.55 398.46,545.00 399.03,550.50 C399.60,556.00 401.63,582.33 403.55,609.00 C408.66,680.19 411.61,702.02 418.64,720.80 C422.59,731.35 422.65,734.49 418.78,727.88 M 445.67,650.78 C445.33,647.87 444.15,627.50 443.03,605.50 C441.16,568.51 438.78,529.43 437.47,514.14 C436.67,504.82 432.10,496.43 419.15,480.50 C409.05,468.06 397.11,457.50 390.75,455.36 C389.79,455.03 389.00,454.37 389.00,453.88 C389.00,450.17 403.83,459.10 413.53,468.65 C421.17,476.16 427.41,484.27 434.42,495.78 L 439.94,504.85 L 440.95,522.67 C441.51,532.48 442.20,543.42 442.49,547.00 C443.96,564.98 447.34,654.99 446.58,655.75 C446.42,655.92 446.01,653.68 445.67,650.78 M 483.27,529.50 C481.53,518.11 481.30,490.00 482.95,490.00 C484.67,490.00 485.09,496.18 484.79,517.00 C484.50,537.36 484.49,537.45 483.27,529.50 M 477.80,480.20 C476.32,477.61 474.10,473.93 472.87,472.00 L 470.64,468.50 L 473.82,471.44 C477.08,474.44 481.44,482.22 480.84,483.94 C480.65,484.46 479.29,482.78 477.80,480.20 M 399.00,473.00 C400.96,471.73 402.28,471.73 401.50,473.00 C401.16,473.55 400.12,473.99 399.19,473.98 C397.73,473.97 397.71,473.84 399.00,473.00 M 439.50,454.55 C430.70,451.67 421.93,448.29 420.00,447.05 C418.07,445.80 417.21,445.01 418.07,445.29 C418.93,445.57 425.10,447.42 431.78,449.39 C444.74,453.23 454.31,457.07 455.43,458.89 C455.81,459.50 455.98,459.95 455.81,459.90 C455.64,459.84 448.30,457.43 439.50,454.55 M 521.41,790.03 C517.70,788.53 516.69,784.02 517.30,771.73 C517.61,765.56 518.34,747.45 518.93,731.50 C519.52,715.55 520.46,691.70 521.02,678.50 C521.58,665.30 522.03,630.31 522.02,600.75 C522.01,569.72 522.38,547.00 522.90,547.00 C524.61,547.00 525.23,576.18 524.64,627.71 C523.95,686.95 522.48,750.61 521.43,766.00 C521.04,771.77 520.98,776.26 521.30,775.98 C523.23,774.24 528.24,751.56 530.01,736.60 C531.12,727.20 532.42,717.70 532.89,715.50 C534.43,708.39 534.16,725.94 532.49,740.83 C530.78,756.13 527.95,768.19 524.44,775.12 C520.81,782.28 521.30,784.94 526.37,785.73 C532.90,786.75 549.16,752.66 554.55,726.68 C556.92,715.23 559.23,706.00 559.73,706.00 C560.31,706.00 559.29,714.15 557.41,724.50 C553.68,745.09 544.50,770.72 538.24,778.03 C536.08,780.56 535.39,781.85 536.55,781.21 C539.78,779.44 545.50,774.97 545.50,774.21 C545.50,773.82 546.51,772.08 547.75,770.35 C551.85,764.60 556.10,753.71 562.13,733.50 C569.21,709.80 569.17,709.91 569.71,712.18 C569.94,713.11 568.49,720.31 566.51,728.18 C559.65,755.34 555.59,765.74 549.62,771.40 C545.86,774.97 547.85,773.97 554.00,769.20 C561.16,763.64 566.92,756.83 566.96,753.87 C566.98,752.42 568.12,748.80 569.48,745.82 C575.13,733.49 578.38,714.35 580.99,678.00 C581.56,670.02 582.47,657.65 583.01,650.50 C583.54,643.35 585.11,619.95 586.48,598.50 C587.86,577.05 589.47,552.75 590.07,544.50 C592.77,506.92 592.67,507.66 595.98,499.87 C599.75,491.00 605.66,481.76 610.62,477.00 C612.62,475.07 615.07,471.64 616.05,469.36 C617.80,465.31 619.63,463.29 620.64,464.31 C621.52,465.19 617.88,471.34 613.87,475.72 C609.14,480.89 604.45,488.16 599.58,497.83 L 595.90,505.16 L 593.50,538.33 C592.18,556.57 589.72,592.88 588.03,619.00 C581.95,713.02 579.23,733.21 570.10,752.02 L 567.93,756.50 L 573.01,751.00 C581.68,741.63 592.82,725.64 597.85,715.34 C604.05,702.67 613.31,675.45 615.99,662.00 C618.71,648.40 619.63,638.18 621.50,600.50 C624.90,531.98 626.10,474.00 624.12,474.00 C623.63,474.00 623.01,475.01 622.74,476.25 C622.47,477.49 620.62,484.76 618.64,492.40 C614.56,508.20 612.80,526.94 609.00,595.50 C605.86,652.18 605.04,664.42 603.42,678.50 C601.02,699.40 594.65,722.21 589.68,727.75 C588.57,728.98 587.50,729.83 587.30,729.64 C587.11,729.44 588.31,725.88 589.98,721.71 C598.26,701.03 601.25,681.03 604.49,624.50 C611.27,506.58 611.66,503.00 620.76,477.00 L 625.49,463.50 L 626.39,470.50 C626.89,474.35 627.33,494.38 627.37,515.00 C627.48,569.58 624.53,628.78 620.46,654.00 C618.91,663.57 614.25,681.07 611.49,687.68 C610.67,689.64 610.03,691.75 610.06,692.37 C610.18,694.67 616.14,678.19 618.51,669.00 C624.73,644.94 629.27,604.80 630.93,559.36 C631.73,537.13 630.99,491.62 629.49,471.50 C628.82,462.60 630.05,462.86 631.89,472.00 C633.36,479.26 634.96,513.59 634.97,538.00 C634.99,587.55 628.23,652.44 620.59,676.00 C613.89,696.66 599.69,723.56 585.22,743.00 C572.17,760.54 550.25,779.17 532.86,787.50 C525.07,791.23 524.63,791.33 521.41,790.03 M 526.00,784.57 C526.00,784.20 526.67,782.60 527.49,781.01 C528.93,778.24 531.90,770.62 536.04,759.13 C538.68,751.80 544.43,725.20 546.66,710.00 C548.37,698.41 548.48,690.35 548.19,599.50 C547.91,512.43 548.05,501.01 549.45,497.10 C553.53,485.67 574.16,463.13 584.90,458.36 C593.29,454.63 607.87,450.00 611.20,450.00 C612.82,450.00 614.80,450.66 615.61,451.46 C616.89,452.75 616.60,453.16 613.28,454.86 C602.37,460.44 575.26,494.61 573.09,505.53 C572.54,508.26 571.39,526.92 570.53,547.00 C567.44,618.93 565.82,652.51 565.41,652.92 C564.69,653.65 565.03,620.24 565.97,598.50 C566.47,586.95 567.38,562.42 568.01,544.00 C568.63,525.58 569.55,508.10 570.05,505.16 C572.17,492.78 595.37,463.17 609.50,454.81 L 614.50,451.85 L 609.71,452.49 C597.00,454.20 582.16,461.73 572.61,471.32 C563.06,480.93 553.33,494.06 551.93,499.25 C551.11,502.29 550.88,528.54 551.11,593.48 C551.39,673.26 551.22,685.43 549.68,700.50 C547.62,720.74 544.67,739.08 541.47,751.72 C538.21,764.59 531.04,781.97 528.25,783.78 C527.01,784.59 526.00,784.94 526.00,784.57 M 526.52,535.60 C526.78,531.25 527.00,519.22 527.00,508.85 C527.00,495.39 527.33,490.00 528.14,490.00 C529.57,490.00 528.60,534.69 527.05,540.00 C526.22,542.86 526.12,542.05 526.52,535.60 M 516.17,507.36 C516.50,481.85 516.63,480.25 518.81,475.50 C521.05,470.62 525.54,465.00 527.20,465.00 C527.66,465.00 526.66,467.71 524.99,471.03 C520.18,480.55 519.20,486.52 518.45,510.76 C517.46,543.06 515.75,540.51 516.17,507.36 M 531.60,481.75 C533.88,477.25 539.70,470.23 542.29,468.85 C543.63,468.13 542.81,469.54 540.11,472.60 C537.73,475.29 534.82,479.18 533.64,481.24 C531.01,485.83 529.31,486.25 531.60,481.75 M 608.00,473.00 C608.00,472.45 608.48,472.00 609.06,472.00 C609.64,472.00 609.84,472.45 609.50,473.00 C609.16,473.55 608.68,474.00 608.44,474.00 C608.20,474.00 608.00,473.55 608.00,473.00 M 614.90,464.22 C617.98,460.24 622.49,457.00 624.95,457.00 C626.96,457.00 625.98,458.52 623.19,459.76 C621.64,460.44 619.49,461.79 618.40,462.75 C612.21,468.22 611.60,468.48 614.90,464.22 M 627.00,460.00 C627.00,459.45 627.45,459.00 628.00,459.00 C628.55,459.00 629.00,459.45 629.00,460.00 C629.00,460.55 628.55,461.00 628.00,461.00 C627.45,461.00 627.00,460.55 627.00,460.00 M 526.45,458.08 C527.47,456.44 537.50,451.61 545.00,449.15 C557.73,444.99 595.00,440.19 595.00,442.71 C595.00,443.28 590.54,443.95 584.75,444.27 C572.14,444.95 550.45,449.71 539.00,454.31 C527.67,458.87 525.58,459.50 526.45,458.08 M 285.00,669.06 C285.00,667.99 285.38,666.88 285.86,666.59 C286.33,666.30 286.50,667.17 286.24,668.53 C285.67,671.48 285.00,671.77 285.00,669.06 M 719.02,669.52 C718.23,668.57 718.16,668.00 718.82,668.00 C720.03,668.00 721.44,669.90 720.74,670.59 C720.49,670.84 719.72,670.36 719.02,669.52 M 269.58,600.13 C268.36,598.16 273.78,592.45 280.25,588.89 C283.35,587.19 282.12,588.54 277.37,592.06 C274.82,593.95 272.18,596.79 271.50,598.38 C270.76,600.13 270.00,600.81 269.58,600.13 M 733.30,578.69 C729.34,576.42 726.22,574.44 726.38,574.29 C726.83,573.84 739.10,578.84 740.61,580.09 C742.10,581.32 742.49,583.06 741.25,582.90 C740.84,582.85 737.26,580.95 733.30,578.69 M 492.50,433.38 C463.23,430.37 419.90,421.17 405.10,414.83 C389.24,408.03 387.33,399.05 396.97,376.57 C403.26,361.90 416.59,349.11 432.00,342.97 C439.44,340.01 461.00,336.04 469.00,336.16 L 475.50,336.25 L 469.00,337.16 C449.35,339.88 439.64,342.81 427.00,349.84 C419.94,353.76 417.00,355.96 417.00,357.31 C417.00,357.79 418.41,356.99 420.13,355.54 C425.79,350.78 439.06,345.35 449.74,343.41 C456.13,342.26 452.66,344.00 442.51,347.05 C431.35,350.40 419.47,356.42 417.17,359.88 C416.31,361.19 415.70,363.62 415.82,365.28 C416.02,367.90 415.85,368.12 414.50,367.00 C413.19,365.92 412.70,366.02 411.50,367.60 C410.70,368.65 409.75,370.40 409.39,371.50 C409.02,372.60 407.89,374.57 406.86,375.88 C404.34,379.12 404.45,379.50 408.68,382.11 C412.99,384.78 411.60,385.88 406.95,383.48 C404.66,382.29 403.47,382.13 402.69,382.91 C401.90,383.70 401.94,384.00 402.80,384.00 C403.46,384.00 404.00,384.73 404.00,385.62 C404.00,386.95 403.73,387.02 402.50,386.00 C401.66,385.31 401.00,385.20 401.00,385.76 C401.00,387.13 402.86,388.56 408.60,391.59 C411.30,393.01 413.95,394.63 414.50,395.20 C416.11,396.85 411.14,395.13 405.25,391.99 L 400.00,389.19 L 400.00,391.48 C400.00,396.10 409.70,402.50 429.50,410.95 C433.90,412.82 440.40,416.07 438.84,415.62 C437.93,415.35 432.30,413.73 426.34,412.02 C405.70,406.10 397.07,400.38 396.93,392.56 C396.87,389.38 396.67,388.93 396.00,390.50 C394.77,393.36 394.82,397.51 396.12,400.37 C398.98,406.64 414.02,413.12 440.50,419.49 C468.31,426.17 478.95,427.48 505.00,427.43 C526.62,427.38 529.58,427.15 542.00,424.61 C569.83,418.92 597.98,410.95 604.71,406.84 C610.43,403.36 613.01,399.40 612.96,394.17 L 612.91,389.50 L 611.54,393.34 C609.78,398.29 606.62,401.63 601.00,404.49 C596.85,406.59 585.74,410.39 580.65,411.44 C579.47,411.68 576.93,412.36 575.01,412.94 C569.85,414.50 567.85,414.09 572.50,412.43 C574.70,411.64 577.40,410.56 578.50,410.03 C579.60,409.49 582.87,408.15 585.77,407.03 C593.21,404.18 600.72,400.26 601.62,398.77 C602.10,397.98 601.65,398.07 600.44,399.00 C598.66,400.38 598.61,400.36 599.82,398.81 C600.55,397.88 601.68,397.32 602.32,397.56 C603.57,398.03 607.00,392.80 607.00,390.42 C607.00,388.60 607.20,388.56 600.61,391.58 C592.50,395.29 591.78,394.12 599.46,389.71 C606.31,385.77 606.91,385.00 604.59,383.07 C603.50,382.17 602.33,382.25 599.47,383.45 C595.18,385.24 594.68,385.32 595.42,384.12 C595.72,383.64 597.53,382.50 599.45,381.59 C602.72,380.04 602.86,379.78 601.78,377.22 C599.65,372.17 591.52,358.80 589.11,356.39 C587.80,355.08 585.91,354.00 584.92,354.00 C583.93,354.00 581.56,353.08 579.66,351.96 C576.73,350.23 566.81,346.63 559.50,344.64 C558.40,344.34 559.08,344.24 561.00,344.42 C566.10,344.90 575.72,347.75 580.42,350.16 C582.66,351.31 585.29,352.65 586.25,353.13 C589.84,354.94 587.84,352.39 583.75,349.93 C576.89,345.82 567.24,342.36 556.00,340.01 C546.24,337.96 543.00,337.00 545.84,337.00 C549.11,337.00 568.20,340.24 573.00,341.61 C597.12,348.49 616.91,372.75 616.98,395.52 C617.02,410.77 609.94,414.59 561.10,425.58 C533.66,431.76 506.60,434.83 492.50,433.38 M 607.68,381.81 C607.36,381.01 607.13,381.25 607.08,382.42 C607.04,383.47 607.27,384.06 607.60,383.73 C607.94,383.40 607.97,382.53 607.68,381.81 M 601.54,368.77 C598.93,364.22 595.19,358.93 593.22,357.00 C589.52,353.37 589.74,353.80 596.61,363.62 C598.87,366.86 601.71,371.46 602.93,373.85 C604.14,376.24 605.40,377.93 605.72,377.62 C606.03,377.30 604.16,373.32 601.54,368.77 M 405.52,373.75 L 407.10,370.50 L 405.05,372.86 C403.92,374.16 403.00,375.62 403.00,376.11 C403.00,377.86 403.97,376.95 405.52,373.75 M 411.97,364.42 C414.29,361.36 416.00,358.67 415.78,358.45 C415.41,358.08 409.26,365.82 407.59,368.75 C405.89,371.73 408.09,369.57 411.97,364.42 M 484.09,423.96 C480.02,423.44 476.49,422.82 476.24,422.57 C475.98,422.32 488.09,422.13 503.14,422.15 C521.49,422.17 529.51,422.49 527.50,423.11 C523.15,424.46 492.77,425.05 484.09,423.96 M 410.00,375.42 C410.00,374.55 410.53,374.01 411.19,374.23 C413.04,374.85 413.35,377.00 411.58,377.00 C410.71,377.00 410.00,376.29 410.00,375.42 M 595.50,375.00 C596.50,373.90 597.47,373.00 597.66,373.00 C597.86,373.00 597.45,373.90 596.77,375.00 C596.08,376.10 595.11,377.00 594.60,377.00 C594.10,377.00 594.50,376.10 595.50,375.00 M 590.08,365.42 C590.13,364.25 590.36,364.01 590.68,364.81 C590.97,365.53 590.94,366.40 590.60,366.73 C590.27,367.06 590.04,366.47 590.08,365.42 M 678.65,412.32 C677.92,411.59 695.88,402.99 698.00,403.05 C698.83,403.08 696.35,404.72 692.50,406.70 C683.12,411.52 679.37,413.04 678.65,412.32 M 531.69,271.35 C527.03,265.95 519.08,262.70 509.24,262.18 C497.26,261.55 491.12,263.15 484.35,268.67 C478.03,273.81 475.43,273.58 481.50,268.41 C489.22,261.83 492.97,260.65 505.82,260.77 C516.46,260.87 517.77,261.11 523.42,263.89 C529.53,266.89 535.54,272.06 534.86,273.73 C534.66,274.21 533.24,273.14 531.69,271.35 Z"/>
</g>
</svg>
