<svg xmlns="http://www.w3.org/2000/svg" width="1024" height="1024" fill="#1990FF" viewBox="0 0 1024 1024">
<g>
<path d="M 596.37,883.38 C590.31,881.23 573.98,867.25 567.64,858.78 C560.74,849.56 558.99,845.28 559.02,837.63 C559.06,828.11 561.31,824.45 577.25,808.08 C621.40,762.73 637.31,746.55 675.44,708.19 C698.57,684.92 722.45,661.40 728.50,655.94 C734.55,650.48 753.94,631.27 771.59,613.24 C789.25,595.22 808.04,576.49 813.35,571.61 C822.62,563.11 823.26,562.71 828.66,562.12 C833.14,561.63 834.65,560.99 836.05,559.00 C837.01,557.62 843.36,548.92 850.15,539.66 C856.94,530.39 864.08,520.67 866.00,518.04 C877.15,502.82 891.23,484.95 893.13,483.62 C894.34,482.78 895.92,482.41 896.64,482.82 C901.40,485.48 955.95,539.96 956.65,542.75 C957.07,544.42 956.67,545.74 955.38,546.98 C953.33,548.94 926.94,565.40 898.50,582.47 C875.89,596.04 874.00,597.44 874.00,600.58 C874.00,601.95 873.33,604.68 872.50,606.65 C871.67,608.63 871.00,612.52 871.00,615.30 L 871.00,620.36 L 849.22,642.43 C837.23,654.57 811.47,681.07 791.97,701.33 C772.46,721.59 747.95,747.03 737.50,757.87 C692.39,804.68 667.41,831.07 641.50,859.33 C619.90,882.89 616.94,885.06 606.55,884.92 C603.22,884.88 598.64,884.18 596.37,883.38 M 615.00,874.20 C620.64,870.70 627.17,864.39 647.81,842.52 C676.88,811.71 688.97,798.98 703.93,783.45 C737.41,748.70 765.22,719.13 772.80,710.22 C778.01,704.11 779.00,702.35 778.98,699.22 C778.93,690.71 769.91,678.13 755.78,666.87 C742.34,656.17 742.66,656.30 737.92,659.44 C733.69,662.23 732.89,664.00 735.86,664.00 C738.78,664.00 747.38,669.03 753.43,674.29 C766.89,685.96 773.64,701.94 768.94,711.00 C767.40,713.97 706.94,774.00 705.49,774.00 C701.25,774.00 705.09,769.41 736.89,736.50 C759.33,713.27 763.00,708.77 763.00,704.42 C763.00,697.16 756.57,687.05 746.80,678.91 C740.29,673.50 737.41,672.79 736.08,676.29 C735.60,677.55 726.71,687.34 716.33,698.04 C705.95,708.74 687.36,728.08 675.01,741.00 C619.38,799.24 600.66,818.00 598.20,818.00 C596.87,818.00 593.11,817.31 589.84,816.46 L 583.90,814.92 L 577.38,820.64 C570.20,826.94 568.58,829.43 567.53,835.73 C566.41,842.51 569.93,848.76 581.59,860.66 C596.31,875.69 606.17,879.69 615.00,874.20 M 625.00,783.38 C646.45,760.88 699.30,705.99 716.35,688.50 L 731.94,672.50 L 729.28,670.31 C726.72,668.20 726.50,668.18 723.71,669.81 C717.58,673.39 586.66,807.25 586.92,809.67 C586.97,810.13 589.15,811.22 591.76,812.11 L 596.50,813.71 L 604.00,805.63 C608.12,801.18 617.58,791.17 625.00,783.38 M 800.05,681.50 C805.75,675.45 821.45,659.09 834.95,645.15 C848.45,631.21 859.89,618.98 860.37,617.97 C860.99,616.67 860.60,615.09 859.05,612.58 C856.06,607.74 840.63,593.43 828.50,584.26 L 818.51,576.69 L 783.25,612.50 C763.86,632.20 748.00,648.81 748.01,649.41 C748.01,650.01 750.57,652.30 753.69,654.50 C756.82,656.70 763.11,661.78 767.69,665.80 C772.26,669.81 776.00,672.60 776.00,672.00 C776.00,670.81 834.42,611.67 838.53,608.70 C840.74,607.09 841.09,607.07 841.62,608.46 C841.99,609.41 840.85,611.70 838.71,614.31 C833.74,620.38 783.07,672.21 780.48,673.88 L 778.34,675.26 L 782.67,683.67 C785.05,688.30 787.00,692.83 787.00,693.76 C787.00,695.22 787.17,695.24 788.35,693.96 C789.09,693.16 794.36,687.55 800.05,681.50 M 864.82,599.18 C865.35,595.57 860.91,589.14 853.51,582.79 C845.50,575.91 833.23,569.47 830.06,570.48 C828.92,570.84 828.00,571.45 828.00,571.83 C828.00,572.22 830.36,574.07 833.25,575.95 C840.08,580.40 847.62,586.86 855.78,595.28 C862.51,602.21 864.26,602.97 864.82,599.18 M 875.91,585.35 C878.44,583.90 888.83,577.43 899.00,570.99 C909.17,564.55 922.11,556.48 927.75,553.04 C937.70,546.99 941.56,543.97 936.81,545.95 C914.04,555.48 886.67,565.01 875.00,567.48 C873.08,567.88 869.25,569.11 866.50,570.20 C855.41,574.60 855.79,573.23 863.59,580.92 C867.39,584.67 870.69,587.79 870.91,587.87 C871.14,587.94 873.39,586.81 875.91,585.35 M 858.86,569.51 C860.55,567.59 866.06,559.82 871.12,552.26 C876.18,544.69 883.25,534.45 886.83,529.50 C890.40,524.55 894.91,518.25 896.84,515.50 C898.77,512.75 901.49,509.26 902.87,507.74 L 905.39,504.98 L 900.45,500.49 C897.73,498.03 895.27,496.01 895.00,496.01 C894.46,496.00 885.51,507.78 866.50,533.50 C859.99,542.30 852.21,552.79 849.20,556.81 C846.09,560.97 844.11,564.49 844.61,564.97 C847.56,567.77 854.31,573.00 854.99,573.00 C855.43,573.00 857.17,571.43 858.86,569.51 M 914.99,547.41 C927.91,542.27 938.61,537.67 938.78,537.17 C939.13,536.10 910.97,508.83 909.92,509.23 C908.47,509.78 881.00,548.37 881.00,549.86 C881.00,550.71 882.44,552.89 884.20,554.71 C886.55,557.13 887.95,557.84 889.45,557.37 C890.58,557.02 902.07,552.54 914.99,547.41 M 478.38,826.92 C447.42,823.27 419.81,794.04 416.12,761.01 C414.55,746.99 417.37,732.16 424.19,718.60 C428.16,710.71 430.57,707.64 447.48,689.00 C455.22,680.48 465.13,669.45 469.52,664.51 C473.91,659.56 484.70,647.68 493.50,638.11 C502.30,628.55 516.45,613.02 524.94,603.61 C533.42,594.20 544.90,581.54 550.44,575.47 C555.97,569.40 564.32,560.18 569.00,554.97 C573.67,549.76 580.22,542.58 583.54,539.00 C586.86,535.42 593.38,528.23 598.03,523.00 C605.35,514.76 615.61,503.60 647.64,469.00 C657.41,458.45 661.25,452.80 666.88,440.76 C670.99,431.95 673.13,428.81 680.14,421.33 C684.74,416.43 693.48,407.03 699.57,400.46 C705.66,393.88 717.70,380.96 726.32,371.73 C734.94,362.51 742.00,354.80 742.00,354.60 C742.00,354.40 739.41,353.20 736.25,351.93 C733.09,350.67 728.48,347.85 726.00,345.68 C720.73,341.06 706.79,334.00 702.93,334.00 C696.05,334.00 679.96,339.25 666.50,345.90 C643.32,357.33 640.42,359.63 612.07,389.08 C598.08,403.61 581.64,420.68 575.54,427.00 C569.43,433.32 556.60,446.82 547.03,457.00 C520.92,484.75 499.06,507.76 473.45,534.47 C460.77,547.69 444.05,565.25 436.29,573.50 C428.53,581.75 419.41,591.20 416.02,594.50 C409.08,601.25 407.51,603.75 406.00,610.51 C404.78,615.93 401.00,621.77 394.99,627.50 C390.29,631.98 368.28,655.73 338.92,688.00 C328.16,699.83 311.56,718.05 302.02,728.50 C292.48,738.95 273.64,759.60 260.16,774.38 C242.08,794.20 234.57,801.74 231.57,803.11 C224.09,806.51 192.64,805.07 175.72,800.55 C133.15,789.19 96.59,759.40 75.62,719.00 C65.32,699.14 63.79,688.23 70.00,678.85 C71.58,676.46 111.72,635.48 159.19,587.78 L 245.50,501.06 L 252.73,498.94 C259.87,496.84 259.94,496.79 258.32,494.66 C257.42,493.47 252.40,489.12 247.18,485.00 C226.42,468.61 205.28,446.75 193.32,429.31 C186.53,419.41 178.65,404.32 177.49,399.00 C175.41,389.46 177.73,377.21 183.06,369.50 C184.58,367.30 198.97,352.45 215.04,336.50 C231.12,320.55 266.11,285.56 292.82,258.75 C331.89,219.53 341.88,210.00 343.96,210.00 C345.38,210.00 348.25,211.40 350.33,213.12 L 354.11,216.24 L 367.64,202.87 C413.34,157.70 426.75,144.87 428.76,144.36 C430.10,144.01 432.11,144.49 433.69,145.53 C437.07,147.75 523.88,235.29 526.24,238.86 C529.07,243.13 528.42,245.68 523.08,251.32 L 518.15,256.53 L 523.08,261.69 C528.45,267.32 529.15,270.08 525.87,272.76 C517.42,279.66 511.04,285.98 494.42,303.92 C470.32,329.93 469.49,330.90 467.72,335.04 C466.06,338.93 421.11,385.53 349.40,457.69 C309.90,497.43 301.95,504.99 299.00,505.56 C292.70,506.78 291.86,505.24 309.87,525.37 C315.72,531.91 324.78,541.74 330.01,547.23 L 339.53,557.22 L 359.96,536.36 C371.20,524.89 394.37,501.32 411.45,483.99 C428.53,466.67 449.44,445.29 457.91,436.49 C466.39,427.70 496.09,397.40 523.91,369.17 L 574.50,317.85 L 580.28,306.17 C590.87,284.76 605.96,247.69 605.99,242.99 C606.01,240.40 601.30,236.11 599.07,236.69 C596.57,237.35 587.09,228.61 579.34,218.50 C576.38,214.65 571.95,209.12 569.48,206.21 C565.92,202.01 565.00,200.16 565.00,197.19 C565.00,192.83 565.29,192.44 585.89,169.19 C599.54,153.77 603.79,150.00 607.48,150.00 C610.41,150.00 621.12,154.05 625.03,156.64 L 628.92,159.21 L 631.59,157.11 C637.37,152.56 643.90,154.51 659.45,165.44 C662.78,167.77 668.24,171.35 671.58,173.38 C676.82,176.56 678.04,176.94 680.35,176.06 C684.05,174.65 688.97,176.39 708.83,186.15 C721.60,192.41 728.16,196.41 738.83,204.45 C755.11,216.69 772.70,234.44 785.77,251.81 C794.44,263.32 796.86,267.48 795.60,268.73 C795.28,269.05 798.74,273.18 803.28,277.91 C807.82,282.63 813.43,289.43 815.75,293.00 C818.06,296.57 821.29,301.31 822.91,303.51 C828.16,310.64 829.24,316.70 826.56,324.00 L 825.28,327.50 L 847.89,350.50 C877.02,380.14 900.29,405.69 903.00,411.00 C905.25,415.42 905.14,420.22 902.69,424.64 C901.13,427.45 862.48,467.53 828.52,501.58 L 801.50,528.66 L 787.00,535.94 C764.15,547.41 757.41,551.73 750.94,559.00 C737.65,573.94 697.94,618.99 691.00,626.99 C686.88,631.75 674.72,645.51 664.00,657.57 C653.27,669.63 639.98,684.67 634.47,691.00 C610.22,718.81 603.85,726.15 594.97,736.50 C589.78,742.55 579.23,754.74 571.52,763.58 C563.81,772.43 552.12,786.04 545.55,793.82 C531.86,810.04 524.31,816.60 513.74,821.48 C502.28,826.78 491.38,828.45 478.38,826.92 M 500.06,816.49 C518.09,811.81 522.29,807.93 572.11,749.90 C596.00,722.06 610.03,705.96 632.47,680.59 C665.92,642.77 706.54,596.47 722.87,577.55 C750.92,545.04 758.39,538.62 779.25,529.10 C783.51,527.15 787.00,525.23 787.00,524.81 C787.00,523.92 777.24,516.33 772.50,513.54 L 769.17,511.58 L 764.01,514.00 C759.09,516.30 753.00,521.89 753.00,524.10 C753.00,526.86 740.51,542.25 723.06,561.00 C698.51,587.37 675.59,612.86 647.85,644.60 C643.10,650.05 630.30,664.62 619.42,677.00 C608.54,689.38 596.91,702.62 593.57,706.42 C590.23,710.23 583.66,717.66 578.96,722.92 C562.88,740.96 534.50,773.24 532.85,775.37 C531.95,776.54 530.04,780.37 528.62,783.89 C524.22,794.72 519.64,799.70 508.50,805.72 C501.79,809.34 501.12,809.49 492.50,809.37 C474.70,809.12 457.80,799.45 447.03,783.35 C434.51,764.63 434.51,742.01 447.03,723.33 C448.81,720.67 454.20,714.45 459.00,709.50 C463.80,704.55 476.64,690.60 487.55,678.50 C498.45,666.40 512.83,650.65 519.50,643.50 C533.52,628.47 563.20,595.40 576.98,579.47 C582.20,573.44 589.19,565.35 592.52,561.50 C595.85,557.65 604.63,547.31 612.03,538.51 C619.44,529.72 633.83,512.78 644.00,500.87 C654.17,488.96 665.28,475.85 668.67,471.74 C674.22,465.02 675.88,463.74 685.17,459.03 C690.85,456.14 696.06,453.33 696.75,452.77 C697.62,452.07 698.00,452.11 698.00,452.93 C698.00,454.96 693.46,458.42 685.67,462.32 C679.24,465.54 677.07,467.36 670.83,474.79 C666.82,479.58 655.85,492.50 646.47,503.50 C637.08,514.50 624.03,530.02 617.47,538.00 C604.01,554.35 585.12,576.75 577.85,585.00 C575.18,588.02 563.91,600.85 552.80,613.50 C541.70,626.15 525.83,643.92 517.54,653.00 C509.25,662.08 497.08,675.55 490.49,682.94 C483.89,690.33 474.69,700.39 470.03,705.30 L 461.56,714.22 L 463.89,716.11 C469.08,720.31 468.90,720.46 502.50,683.00 C510.15,674.48 521.42,662.10 527.55,655.50 C539.28,642.88 583.53,593.45 604.76,569.25 C611.64,561.41 617.94,555.00 618.75,555.00 C621.19,555.00 660.00,590.38 660.00,592.60 C660.00,593.31 652.46,602.34 643.24,612.69 C634.01,623.04 622.60,636.00 617.87,641.50 C613.14,647.00 604.90,656.45 599.57,662.50 C594.23,668.55 581.92,682.73 572.21,694.00 C554.55,714.50 550.20,719.45 527.10,745.29 C515.54,758.23 514.87,759.20 516.39,760.87 C518.36,763.05 518.48,765.00 516.63,765.00 C515.05,765.00 510.00,761.24 510.00,760.05 C510.00,759.61 514.11,754.58 519.12,748.88 C524.14,743.17 544.26,720.05 563.82,697.50 C583.39,674.95 607.52,647.34 617.45,636.15 C633.37,618.20 649.07,600.19 653.64,594.64 C654.48,593.61 654.80,592.46 654.34,592.09 C653.88,591.71 649.34,587.66 644.25,583.09 L 635.01,574.79 L 615.77,594.65 C605.19,605.57 591.11,620.12 584.49,627.00 C534.12,679.28 483.36,731.27 481.95,732.02 C478.56,733.84 479.13,731.58 483.20,727.10 C487.91,721.91 593.66,612.47 615.98,589.69 C623.96,581.54 630.83,574.26 631.25,573.51 C631.77,572.59 630.04,570.27 625.92,566.33 C622.57,563.12 619.48,560.37 619.05,560.21 C618.62,560.05 613.60,565.23 607.89,571.71 C602.18,578.20 597.26,583.73 596.97,584.00 C595.94,584.96 551.46,634.38 547.54,638.92 C545.36,641.44 538.58,648.90 532.47,655.50 C526.36,662.10 514.90,674.70 507.00,683.50 C499.11,692.30 487.92,704.56 482.14,710.75 C472.53,721.04 471.33,722.00 468.05,722.00 C465.89,722.00 463.03,721.02 460.86,719.55 L 457.26,717.11 L 455.04,719.18 C447.99,725.75 441.00,742.52 441.00,752.87 C441.00,761.16 445.08,773.52 450.36,781.25 C457.80,792.13 470.90,801.22 483.98,804.57 C492.21,806.68 498.10,806.08 506.20,802.29 C515.00,798.17 521.04,791.67 526.46,780.50 C530.38,772.42 533.40,768.59 556.06,743.00 C599.30,694.16 601.41,691.77 605.00,687.59 C609.18,682.71 646.90,639.63 662.41,622.00 C668.47,615.12 682.21,599.92 692.96,588.22 C735.59,541.78 742.26,534.22 746.96,527.00 C754.44,515.52 755.92,513.95 762.04,511.06 L 767.71,508.38 L 764.24,506.11 C753.96,499.36 736.78,483.63 720.11,465.70 C707.33,451.94 704.00,445.62 703.26,433.68 C702.55,422.26 703.77,419.13 716.03,400.91 C721.61,392.62 725.97,385.63 725.72,385.39 C725.47,385.14 724.53,386.07 723.63,387.44 C722.72,388.82 712.56,399.88 701.05,412.02 C680.67,433.49 679.98,434.36 675.15,444.48 C672.42,450.20 668.71,457.04 666.90,459.69 C663.32,464.95 663.91,464.29 623.44,508.11 C608.01,524.83 590.93,543.45 585.49,549.50 C568.39,568.51 527.21,613.77 510.23,632.21 C501.26,641.95 487.32,657.25 479.24,666.21 C471.17,675.17 459.88,687.67 454.16,694.00 C439.74,709.95 435.44,715.77 431.06,725.27 C426.01,736.23 424.62,743.58 425.22,756.23 C425.80,768.59 428.63,777.52 435.40,788.40 C443.64,801.62 458.10,812.65 472.12,816.42 C479.25,818.34 492.79,818.37 500.06,816.49 M 228.72,793.79 C230.82,792.76 265.41,755.66 297.08,720.50 C305.00,711.70 315.12,700.67 319.57,696.00 C324.01,691.33 340.95,672.88 357.20,655.00 C373.46,637.12 388.22,621.15 390.01,619.50 C394.31,615.52 397.98,607.57 397.99,602.19 C398.00,597.99 397.62,597.49 383.26,582.64 L 368.53,567.40 L 363.83,572.38 C361.24,575.12 358.85,578.52 358.51,579.93 C358.17,581.34 356.54,584.42 354.88,586.76 L 351.86,591.03 L 357.43,597.37 C360.49,600.87 363.00,603.97 363.00,604.28 C363.00,604.59 334.51,633.49 299.69,668.50 L 236.38,732.16 L 229.11,726.09 L 221.84,720.02 L 218.41,722.64 C215.47,724.88 214.26,725.18 209.92,724.77 C203.77,724.17 200.30,721.78 197.00,715.84 C195.62,713.36 188.88,704.91 182.00,697.06 C168.40,681.52 166.02,678.36 166.01,675.85 C166.00,674.39 239.98,599.43 277.13,563.25 C290.00,550.71 290.95,550.00 294.74,550.00 C298.23,550.00 299.92,550.94 307.63,557.18 C312.51,561.13 319.46,566.98 323.09,570.18 C326.71,573.38 330.40,576.00 331.29,576.00 C332.17,576.00 334.12,574.40 335.61,572.44 L 338.32,568.89 L 333.37,563.69 C314.19,543.59 304.78,533.45 296.07,523.50 C293.66,520.75 288.78,515.46 285.22,511.75 C279.28,505.55 278.42,505.00 274.63,505.01 C266.27,505.02 264.04,506.35 254.50,517.07 C249.55,522.62 242.06,530.40 237.86,534.34 C233.66,538.28 210.71,560.85 186.86,584.50 C148.13,622.91 124.63,645.00 122.51,645.00 C122.10,645.00 126.44,640.17 132.14,634.27 C137.84,628.37 147.89,617.91 154.48,611.02 C161.06,604.13 186.94,577.91 211.97,552.75 C237.01,527.59 257.01,507.00 256.42,507.00 C255.83,507.00 253.29,508.36 250.79,510.01 C246.30,512.99 83.16,676.16 78.85,681.99 C75.49,686.53 75.86,695.38 79.79,704.68 C88.99,726.43 107.09,750.15 125.39,764.44 C147.47,781.68 169.97,791.14 195.55,793.92 C214.88,796.03 224.27,795.99 228.72,793.79 M 237.85,720.11 C240.75,718.28 353.00,605.61 353.00,604.54 C353.00,602.82 345.15,595.51 344.27,596.41 C343.85,596.85 317.33,623.19 285.35,654.96 L 227.20,712.73 L 231.33,716.86 C235.83,721.35 235.86,721.37 237.85,720.11 M 229.31,702.25 C270.96,661.41 351.24,581.42 352.00,580.00 C352.60,578.89 352.00,577.45 349.96,575.12 C348.37,573.30 346.64,571.97 346.11,572.15 C343.96,572.92 206.00,709.86 206.00,711.23 C206.00,713.73 209.25,718.00 211.15,718.00 C212.52,718.00 218.88,712.49 229.31,702.25 M 263.80,642.88 L 324.81,582.26 L 314.75,573.88 C296.18,558.42 295.25,557.76 293.52,558.73 C292.15,559.50 251.66,599.68 192.08,659.40 L 175.66,675.86 L 178.56,679.68 C184.49,687.48 200.30,704.09 201.53,703.80 C202.23,703.63 230.25,676.22 263.80,642.88 M 432.50,563.87 C440.20,555.81 463.81,531.05 484.96,508.86 C506.11,486.66 528.84,462.87 535.46,456.00 C542.08,449.12 555.59,434.95 565.47,424.50 C610.19,377.22 631.32,355.70 637.76,350.87 C649.55,342.03 686.86,325.00 694.46,325.00 C695.40,325.00 696.02,324.58 695.83,324.06 C695.39,322.82 627.00,255.63 626.67,256.12 C626.53,256.33 622.67,264.82 618.11,275.00 C606.38,301.10 598.13,318.42 593.72,326.17 C589.82,333.01 576.73,347.50 540.92,384.57 C530.79,395.06 504.95,421.83 483.50,444.07 C462.06,466.31 432.37,496.88 417.54,512.00 C402.70,527.12 386.17,543.99 380.79,549.48 L 371.01,559.46 L 380.66,568.48 C385.96,573.44 390.68,577.65 391.14,577.83 C391.61,578.01 393.23,576.68 394.75,574.86 C399.60,569.05 416.94,549.91 429.96,536.00 C495.10,466.39 563.19,391.66 581.58,369.59 C589.35,360.26 601.91,347.36 601.96,348.66 C602.01,350.19 592.28,361.87 579.58,375.50 C573.95,381.55 559.28,397.75 546.98,411.50 C516.90,445.12 490.02,474.87 481.47,484.00 C460.12,506.79 420.71,551.07 403.62,571.48 C400.38,575.34 397.37,578.50 396.92,578.50 C396.47,578.50 395.58,579.02 394.95,579.65 C394.08,580.52 394.67,581.75 397.38,584.65 L 400.97,588.50 L 407.24,581.99 C410.68,578.41 423.85,564.48 436.50,551.04 C449.15,537.59 470.75,515.08 484.50,501.00 C507.03,477.94 539.87,442.74 560.08,420.00 C593.11,382.82 621.39,351.92 625.08,348.95 C630.19,344.84 654.45,329.32 660.82,326.08 C663.19,324.88 664.99,323.48 664.82,322.97 C664.15,321.02 628.86,287.97 628.00,288.50 C627.51,288.81 624.85,292.76 622.09,297.28 C614.03,310.50 607.01,320.62 607.00,319.00 C607.00,318.18 609.96,311.43 613.57,304.00 C617.19,296.57 621.72,286.83 623.65,282.36 C627.29,273.89 630.72,269.58 633.37,270.16 C634.22,270.35 642.47,277.93 651.71,287.00 C660.94,296.07 671.54,306.31 675.25,309.75 C678.96,313.19 682.00,316.66 682.00,317.46 C682.00,320.62 676.37,324.58 658.63,333.87 C633.53,347.02 629.81,350.05 602.79,379.34 C567.91,417.15 550.77,435.24 505.04,482.50 C454.47,534.78 453.65,535.63 429.00,562.50 C407.18,586.28 404.56,589.47 405.50,591.00 C405.90,591.65 408.68,589.34 412.34,585.32 C415.73,581.59 424.80,571.94 432.50,563.87 M 357.52,560.99 C360.36,559.62 375.39,545.01 405.11,514.74 C478.87,439.61 539.73,376.92 578.87,335.74 C589.96,324.07 589.85,324.26 603.50,293.50 C607.17,285.25 612.90,272.51 616.24,265.18 L 622.32,251.86 L 619.19,248.73 C617.47,247.01 615.89,245.80 615.69,246.05 C615.48,246.30 612.70,253.70 609.52,262.50 C603.41,279.38 598.87,289.70 588.71,309.78 L 582.50,322.05 L 537.57,367.78 C512.86,392.92 482.47,423.85 470.05,436.50 C457.62,449.15 424.96,482.38 397.48,510.34 C369.99,538.30 347.35,561.59 347.17,562.09 C346.56,563.75 353.30,563.03 357.52,560.99 M 833.69,483.32 C871.35,444.82 891.27,423.88 893.76,420.19 C895.16,418.10 895.16,417.57 893.76,414.69 C891.26,409.53 877.60,394.40 847.72,363.70 L 819.70,334.90 L 816.25,338.20 C814.35,340.01 808.03,346.90 802.21,353.50 C796.38,360.10 790.92,366.05 790.06,366.72 C787.95,368.36 780.91,368.32 778.47,366.64 C774.36,363.82 757.88,357.00 755.16,357.00 C752.86,357.00 751.04,358.50 745.42,365.07 C741.61,369.51 737.46,374.80 736.19,376.82 C734.91,378.85 727.89,389.81 720.58,401.19 C712.69,413.46 707.05,423.28 706.72,425.32 C705.75,431.34 707.59,441.62 710.56,446.75 C713.91,452.52 742.88,482.15 756.00,493.23 C761.23,497.65 767.50,502.16 769.94,503.26 C773.93,505.06 775.23,505.16 782.64,504.26 C789.69,503.41 791.64,502.73 795.97,499.62 C803.56,494.17 823.95,476.92 834.37,467.13 C856.96,445.92 866.40,438.07 867.73,439.40 C869.33,441.00 829.77,478.39 807.69,496.15 C796.45,505.19 792.03,507.53 784.25,508.56 C781.36,508.95 779.00,509.62 779.00,510.07 C779.00,510.52 782.19,513.38 786.08,516.43 C792.91,521.77 793.26,521.92 795.91,520.55 C797.41,519.77 814.42,503.01 833.69,483.32 M 290.60,493.28 C292.20,492.15 295.95,488.58 298.93,485.36 C301.91,482.14 330.23,453.49 361.85,421.69 L 419.35,363.89 L 410.42,354.73 C405.52,349.69 401.11,345.27 400.64,344.91 C400.16,344.54 381.93,326.41 360.11,304.62 C338.29,282.83 320.02,265.00 319.50,265.00 C318.97,265.00 297.16,286.29 271.02,312.31 C244.89,338.33 215.71,366.98 206.19,375.98 C196.68,384.98 188.48,393.10 187.99,394.03 C187.11,395.67 188.46,403.00 189.64,403.00 C191.28,403.00 205.26,389.35 221.30,372.08 C250.16,341.03 272.23,318.84 275.72,317.36 C280.31,315.42 284.00,315.59 284.00,317.75 C284.00,318.71 263.74,339.75 238.48,365.02 L 192.96,410.55 L 197.16,417.53 C208.08,435.66 227.13,456.14 254.28,478.89 C262.96,486.17 270.58,492.96 271.22,493.97 C272.93,496.71 286.46,496.23 290.60,493.28 M 338.22,456.29 C358.17,436.09 385.84,408.08 399.70,394.04 C413.56,379.99 424.52,368.13 424.07,367.67 C423.61,367.21 417.43,372.84 410.33,380.17 C403.23,387.50 384.17,407.22 367.96,423.99 C351.76,440.76 335.57,457.42 332.00,461.03 C314.24,478.93 300.73,493.00 301.30,493.00 C301.65,493.00 318.27,476.48 338.22,456.29 M 191.01,388.25 C192.85,385.64 221.82,355.93 255.40,322.24 L 316.43,260.97 L 313.22,257.76 L 310.00,254.54 L 250.97,313.52 C204.79,359.65 191.39,373.60 189.44,377.56 C186.81,382.91 185.01,393.00 186.69,393.00 C187.22,393.00 189.17,390.86 191.01,388.25 M 443.31,349.16 L 457.13,335.34 L 403.89,281.67 C374.61,252.15 350.16,228.00 349.57,228.00 C348.97,228.00 344.28,232.28 339.15,237.51 C334.01,242.74 327.82,248.65 325.38,250.65 C316.65,257.81 320.08,252.94 333.48,239.17 C346.10,226.20 347.02,225.00 345.82,223.08 C345.10,221.93 344.12,221.00 343.62,221.00 C342.34,221.00 316.00,248.17 316.00,249.50 C316.00,250.55 427.95,362.98 429.00,362.98 C429.27,362.98 435.72,356.77 443.31,349.16 M 787.00,357.13 C787.00,356.65 789.51,353.44 792.58,350.00 C795.64,346.57 797.78,343.39 797.33,342.95 C796.87,342.50 794.50,340.62 792.06,338.75 L 787.62,335.36 L 780.18,343.90 L 772.73,352.45 L 778.61,355.22 C784.73,358.10 787.00,358.62 787.00,357.13 M 772.03,340.60 C776.45,335.70 779.94,331.33 779.78,330.88 C779.63,330.44 775.26,326.69 770.08,322.56 C762.70,316.67 760.36,315.28 759.30,316.16 C758.56,316.78 754.73,321.39 750.80,326.39 C746.86,331.40 742.34,336.91 740.74,338.63 L 737.83,341.77 L 742.17,343.26 C751.23,346.38 762.53,349.80 763.24,349.66 C763.65,349.57 767.61,345.49 772.03,340.60 M 812.65,327.33 C818.55,320.48 819.27,316.36 815.46,311.35 L 812.65,307.68 L 806.81,314.09 C803.60,317.62 798.71,323.05 795.95,326.18 L 790.93,331.85 L 796.21,335.94 L 801.50,340.02 L 804.85,336.26 C806.70,334.19 810.21,330.18 812.65,327.33 M 741.61,326.42 C746.50,320.05 751.61,313.25 752.96,311.31 L 755.42,307.78 L 752.47,305.64 C750.85,304.46 744.79,299.23 738.99,294.00 C728.74,284.76 713.43,271.48 692.00,253.26 C683.61,246.12 665.16,231.20 633.14,205.65 C632.09,204.82 631.19,205.25 629.28,207.53 C627.91,209.16 622.72,215.17 617.74,220.88 L 608.69,231.26 L 619.60,241.89 C625.59,247.74 643.51,265.12 659.41,280.51 C675.31,295.91 691.66,311.94 695.73,316.15 C701.45,322.06 703.98,323.96 706.82,324.49 C711.52,325.37 721.28,330.21 727.03,334.52 C729.49,336.36 731.77,337.90 732.11,337.93 C732.44,337.97 736.71,332.79 741.61,326.42 M 787.94,322.93 C789.74,320.69 795.25,314.63 800.19,309.46 L 809.17,300.07 L 804.72,294.28 C798.94,286.78 791.03,278.00 790.04,278.00 C789.62,278.00 788.20,279.54 786.89,281.42 C785.57,283.31 780.90,289.21 776.50,294.53 C767.85,304.99 764.00,310.09 764.00,311.06 C764.00,311.61 769.02,315.79 779.84,324.25 C781.77,325.76 783.65,327.00 784.01,327.00 C784.37,327.00 786.14,325.17 787.94,322.93 M 471.81,317.25 C476.46,312.44 485.85,302.34 492.67,294.80 C499.50,287.27 507.99,278.43 511.55,275.17 C515.91,271.18 517.84,268.74 517.44,267.70 C516.16,264.37 514.02,265.16 509.79,270.51 C500.88,281.77 488.33,296.01 474.32,310.75 C465.02,320.54 460.46,326.00 461.60,326.00 C462.57,326.00 467.17,322.06 471.81,317.25 M 670.42,317.39 C671.29,317.06 671.99,316.27 671.99,315.64 C671.98,315.01 663.47,306.02 653.08,295.66 C639.88,282.49 633.64,276.92 632.36,277.17 C628.45,277.92 630.16,280.87 640.21,290.67 C656.60,306.65 668.40,318.00 668.63,318.00 C668.74,318.00 669.55,317.73 670.42,317.39 M 462.38,310.29 C466.30,306.60 472.20,300.61 475.50,296.96 C478.80,293.32 485.24,286.22 489.82,281.17 C494.40,276.13 497.60,272.00 496.94,272.00 C496.27,272.00 497.81,269.77 500.36,267.04 C502.91,264.32 505.00,261.71 505.00,261.26 C505.00,260.80 503.66,259.64 502.02,258.67 C499.86,257.39 498.55,257.18 497.27,257.89 C493.77,259.84 480.85,273.79 481.92,274.45 C483.63,275.51 483.18,279.50 481.05,282.21 C479.97,283.58 476.03,286.81 472.30,289.38 C464.02,295.09 445.92,312.00 448.09,312.00 C448.95,312.00 450.71,313.12 452.00,314.50 C453.29,315.88 454.55,317.00 454.80,317.00 C455.05,317.00 458.46,313.98 462.38,310.29 M 457.10,293.32 C462.34,288.45 468.51,283.62 470.81,282.58 C474.85,280.76 476.09,278.79 474.00,277.50 C472.25,276.42 472.92,272.80 475.47,269.45 C477.52,266.76 477.71,266.01 476.59,265.07 C475.51,264.18 473.97,265.26 469.28,270.22 C448.52,292.14 440.00,301.54 440.00,302.50 C440.00,303.11 440.52,304.12 441.16,304.76 C442.66,306.26 444.87,304.68 457.10,293.32 M 768.61,291.25 C774.07,284.24 779.81,276.79 781.36,274.70 C784.51,270.45 784.28,267.43 780.87,268.32 C779.20,268.76 775.14,265.56 761.13,252.74 C742.83,235.99 718.99,216.46 705.38,207.06 C679.03,188.87 659.03,176.00 657.12,176.00 C656.71,176.00 655.30,177.46 653.99,179.25 C652.68,181.04 647.99,186.73 643.58,191.91 L 635.55,201.32 L 638.52,203.64 C679.37,235.43 723.39,272.42 753.47,300.22 C755.69,302.27 757.76,303.96 758.09,303.97 C758.41,303.99 763.14,298.26 768.61,291.25 M 452.59,280.92 C462.44,270.43 470.64,261.47 470.80,261.02 C470.97,260.57 469.65,258.84 467.87,257.18 L 464.64,254.16 L 460.55,257.51 C458.30,259.36 449.77,267.90 441.59,276.49 L 426.71,292.12 L 430.56,296.06 C432.68,298.23 434.47,300.00 434.54,300.00 C434.62,300.00 442.74,291.41 452.59,280.92 M 448.75,262.52 C454.39,257.03 459.00,252.05 459.00,251.45 C459.00,250.86 457.64,249.07 455.97,247.47 L 452.94,244.57 L 442.19,255.53 C436.28,261.57 428.22,269.89 424.27,274.03 L 417.10,281.55 L 419.69,284.86 L 422.28,288.17 L 430.39,280.34 C434.85,276.03 443.11,268.01 448.75,262.52 M 430.63,260.10 C439.91,250.25 448.15,242.15 448.95,242.10 C450.39,242.00 443.39,234.00 441.87,234.00 C441.47,234.00 432.91,242.09 422.85,251.98 L 404.56,269.97 L 408.48,273.98 C410.64,276.19 412.71,278.00 413.08,278.00 C413.45,278.00 421.34,269.94 430.63,260.10 M 419.95,247.55 L 438.38,229.10 L 431.64,222.53 L 424.90,215.95 L 408.39,232.23 C399.31,241.18 391.01,249.68 389.96,251.13 L 388.04,253.76 L 394.20,259.88 C397.59,263.25 400.62,266.00 400.94,266.00 C401.26,266.00 409.81,257.70 419.95,247.55 M 509.72,233.93 C509.60,233.62 497.94,222.00 483.81,208.11 L 458.12,182.87 L 444.56,196.68 C437.10,204.27 431.00,210.87 431.00,211.33 C431.00,211.79 442.59,223.66 456.75,237.71 L 482.50,263.25 L 496.22,248.87 C503.77,240.97 509.85,234.24 509.72,233.93 M 778.83,257.25 C778.02,256.29 773.95,251.45 769.79,246.50 C750.22,223.21 728.25,205.78 701.90,192.64 C695.63,189.51 691.38,187.53 692.45,188.23 C726.98,210.78 750.47,229.47 772.47,251.89 C778.99,258.54 782.20,261.23 778.83,257.25 M 517.80,243.26 C514.82,239.67 513.22,239.84 509.06,244.24 L 505.04,248.50 L 507.75,250.73 L 510.47,252.95 L 514.71,248.80 C518.05,245.52 518.70,244.35 517.80,243.26 M 440.18,192.37 L 454.12,178.24 L 450.35,175.14 L 446.59,172.04 L 443.55,175.77 C438.61,181.81 431.03,190.03 406.07,216.39 C393.11,230.08 381.89,242.14 381.15,243.20 C379.99,244.85 380.05,245.40 381.58,247.08 C383.31,249.00 383.82,248.59 404.79,227.77 C416.59,216.07 432.51,200.14 440.18,192.37 M 387.91,217.25 C396.52,208.59 411.96,193.25 422.22,183.17 L 440.88,164.84 L 435.19,159.42 C432.07,156.44 429.21,154.00 428.85,154.00 C428.49,154.00 412.68,169.14 393.72,187.64 L 359.24,221.28 L 365.37,227.11 C368.74,230.31 371.67,232.95 371.88,232.97 C372.09,232.98 379.30,225.91 387.91,217.25 M 616.08,210.50 C635.18,189.20 647.49,174.85 648.84,172.32 C649.90,170.32 649.56,169.90 644.63,167.07 C641.67,165.38 638.85,164.00 638.35,164.00 C636.00,164.00 590.97,214.18 591.01,216.76 C591.04,218.60 599.18,226.11 600.83,225.82 C601.82,225.64 608.68,218.75 616.08,210.50 M 604.01,189.00 C612.45,179.38 620.45,170.30 621.79,168.83 L 624.22,166.16 L 621.36,164.73 C619.79,163.94 616.14,162.47 613.26,161.45 L 608.02,159.61 L 604.91,162.56 C600.65,166.59 577.84,192.67 576.07,195.52 C574.72,197.70 574.94,198.16 580.07,203.80 C585.07,209.30 585.63,209.65 587.08,208.14 C587.95,207.24 595.57,198.62 604.01,189.00 M 597.62,871.97 C593.86,870.84 591.11,868.21 583.51,858.50 C575.34,848.06 573.01,844.11 573.00,840.71 C573.00,835.84 576.54,830.50 582.18,826.89 C586.81,823.91 588.25,823.50 593.98,823.52 C598.98,823.54 601.89,824.19 606.50,826.33 L 612.50,829.12 L 616.43,824.81 C618.59,822.44 631.46,809.02 645.02,795.00 C658.58,780.98 686.18,752.17 706.35,731.00 C743.96,691.53 747.44,688.11 748.69,689.36 C749.89,690.56 746.98,694.39 737.03,704.69 C725.00,717.15 712.58,730.14 687.49,756.49 C676.49,768.04 655.77,789.64 641.43,804.49 L 615.36,831.50 L 618.33,836.26 C623.87,845.13 622.88,857.14 616.05,863.93 C613.18,866.79 602.16,873.28 600.81,872.91 C600.64,872.87 599.20,872.44 597.62,871.97 M 604.54,863.12 C609.04,861.08 613.68,856.14 614.62,852.38 C616.12,846.39 609.91,837.54 601.01,833.01 C595.67,830.28 592.20,830.48 586.95,833.83 C581.52,837.28 579.60,839.50 580.34,841.45 C581.77,845.17 597.38,865.00 598.86,864.98 C599.76,864.97 602.32,864.13 604.54,863.12 M 761.01,655.51 C759.97,654.26 762.53,651.18 777.07,636.26 C812.00,600.42 824.00,589.36 824.00,593.04 C824.00,594.97 812.19,607.89 788.62,631.75 C774.90,645.64 763.36,657.00 762.96,657.00 C762.57,657.00 761.69,656.33 761.01,655.51 M 471.91,788.07 C457.85,785.32 450.35,766.76 458.53,754.95 C467.75,741.66 487.33,742.47 495.55,756.49 C502.50,768.36 495.90,784.24 482.50,787.90 C478.12,789.09 477.22,789.11 471.91,788.07 M 483.91,779.21 C488.45,775.83 490.51,772.13 490.41,767.54 C490.29,762.07 487.48,757.25 483.02,754.86 C470.91,748.39 458.24,760.72 463.89,773.48 C467.34,781.28 477.32,784.14 483.91,779.21 M 682.47,560.27 C679.74,558.10 676.83,555.51 676.00,554.51 C675.17,553.51 671.45,550.25 667.72,547.28 C660.14,541.23 656.53,536.32 655.56,530.76 C654.35,523.79 656.26,520.20 668.74,505.91 C675.21,498.50 682.22,490.31 684.33,487.70 C686.44,485.10 689.50,482.28 691.13,481.43 C695.42,479.21 703.18,478.49 706.09,480.04 C709.75,482.00 733.98,505.12 735.59,508.20 C737.94,512.70 737.37,519.03 734.15,524.05 C729.98,530.58 706.05,557.60 701.70,560.68 C699.17,562.49 696.29,563.48 692.71,563.77 C687.80,564.18 687.12,563.95 682.47,560.27 M 698.09,552.31 C702.02,549.20 725.83,521.93 727.85,518.22 C729.87,514.51 728.22,511.89 717.35,501.60 C699.43,484.63 699.24,484.60 688.67,496.25 C674.72,511.62 664.94,523.49 664.36,525.75 C663.21,530.24 665.13,532.95 677.22,543.92 C690.78,556.21 692.35,556.84 698.09,552.31 M 168.50,782.58 C149.33,776.19 132.20,765.45 117.48,750.61 C103.18,736.19 95.64,722.20 97.70,713.92 C99.36,707.27 107.37,701.73 117.32,700.37 C128.13,698.89 143.47,706.53 160.20,721.73 C178.19,738.07 188.69,754.68 191.45,771.16 C192.17,775.47 189.69,782.56 186.95,784.03 C183.89,785.66 175.86,785.03 168.50,782.58 M 183.00,776.05 C183.00,775.52 181.31,774.81 179.25,774.47 C172.45,773.36 161.67,769.86 155.54,766.78 C135.24,756.59 114.54,737.70 108.55,723.88 C107.74,722.02 107.06,721.10 107.04,721.84 C107.02,722.57 108.46,726.14 110.25,729.78 C115.79,741.04 131.61,755.67 148.69,765.32 C162.16,772.94 183.00,779.45 183.00,776.05 M 179.55,764.25 C178.36,759.35 170.95,747.44 164.07,739.37 C152.34,725.61 133.64,712.43 122.19,709.85 C117.09,708.70 116.79,708.75 114.34,711.20 L 111.80,713.75 L 113.89,718.49 C121.97,736.75 145.32,756.28 169.00,764.57 C172.57,765.83 176.56,766.88 177.86,766.93 C179.94,766.99 180.14,766.67 179.55,764.25 M 184.00,596.61 C236.97,543.41 265.34,515.80 259.98,522.68 C255.90,527.91 135.79,647.36 132.00,649.96 C130.07,651.28 153.47,627.27 184.00,596.61 M 770.75,483.75 C769.24,483.06 760.36,474.88 751.02,465.57 C733.14,447.75 731.32,444.99 733.83,439.48 C735.18,436.50 764.51,404.40 766.61,403.60 C767.46,403.27 769.51,403.00 771.16,403.00 C773.74,403.00 776.76,405.66 792.46,421.72 C808.43,438.05 810.97,440.27 812.36,439.12 C813.75,437.96 813.78,437.47 812.54,435.08 C811.77,433.58 810.36,431.71 809.41,430.93 C808.47,430.14 799.96,420.95 790.50,410.50 C781.05,400.05 768.29,386.23 762.15,379.78 C756.02,373.34 751.00,367.40 751.00,366.58 C751.00,364.22 753.21,360.01 754.15,360.59 C754.62,360.88 755.00,361.90 755.00,362.85 C755.00,364.99 768.53,380.16 805.43,419.37 C821.56,436.51 821.31,436.17 820.55,440.79 C819.96,444.32 820.14,444.63 824.22,447.20 C826.57,448.68 830.08,451.23 832.00,452.87 C835.13,455.52 835.30,455.91 833.63,456.57 C831.83,457.28 825.34,454.55 818.76,450.32 L 816.03,448.55 L 811.40,453.03 C808.86,455.49 802.48,462.23 797.23,468.00 C783.10,483.56 777.56,486.86 770.75,483.75 M 778.93,474.04 C780.57,473.16 804.00,447.74 804.00,446.84 C804.00,445.83 771.32,413.00 770.31,413.00 C769.19,413.00 747.31,435.69 744.31,439.96 C743.49,441.14 743.06,443.10 743.36,444.31 C743.67,445.51 750.38,452.92 758.28,460.75 C772.78,475.12 774.65,476.33 778.93,474.04 M 288.00,422.64 C277.24,419.50 267.93,411.60 263.37,401.72 C260.85,396.25 260.50,394.35 260.50,386.00 C260.50,377.08 260.71,376.11 263.92,370.19 C279.18,342.04 317.35,342.57 330.72,371.11 C334.37,378.93 335.28,385.10 333.89,392.66 C330.68,410.01 317.02,422.38 299.85,423.48 C295.33,423.77 290.76,423.44 288.00,422.64 M 309.72,413.15 C316.24,409.81 320.66,405.40 323.69,399.21 C330.52,385.24 324.87,368.15 310.92,360.55 C303.17,356.34 293.25,355.82 285.77,359.25 C274.48,364.42 267.99,374.27 268.01,386.24 C268.03,400.25 275.64,410.73 289.00,415.12 C293.50,416.60 305.15,415.49 309.72,413.15 M 477.00,774.29 C473.58,773.29 471.00,771.58 470.49,769.95 C469.64,767.29 472.07,763.02 474.83,762.33 C477.69,761.61 479.62,762.61 482.30,766.20 C483.84,768.26 483.99,769.16 483.08,770.85 C481.73,773.38 479.05,774.89 477.00,774.29 M 688.52,526.46 C686.57,523.42 684.31,520.67 683.49,520.36 C681.44,519.57 681.62,517.65 683.96,515.54 C685.83,513.84 686.11,513.85 690.54,515.63 C696.42,518.01 699.45,521.98 698.61,526.22 C697.09,533.82 693.29,533.92 688.52,526.46 M 287.46,411.47 C281.65,409.32 276.86,404.99 273.50,398.86 C271.05,394.36 270.58,392.38 270.60,386.50 C270.63,378.34 272.72,373.44 278.63,367.70 C283.77,362.71 288.36,360.69 295.67,360.19 C303.02,359.70 310.43,362.58 315.92,368.07 C327.98,380.13 325.13,400.98 310.24,409.71 C304.70,412.95 293.75,413.80 287.46,411.47 M 307.09,403.38 C313.38,399.71 317.74,390.44 316.44,383.51 C312.87,364.49 286.95,361.03 278.89,378.50 C276.62,383.41 276.53,387.27 278.54,393.17 C282.51,404.83 296.22,409.73 307.09,403.38 M 290.45,392.55 C286.75,388.84 287.03,383.00 291.08,379.59 C294.38,376.81 296.42,376.45 300.39,377.96 C303.27,379.05 306.00,383.69 306.00,387.50 C306.00,394.29 295.59,397.68 290.45,392.55 M 298.53,387.96 C299.46,386.44 296.92,383.68 295.71,384.89 C294.59,386.01 295.46,389.00 296.91,389.00 C297.44,389.00 298.17,388.53 298.53,387.96 Z"/>
</g>
</svg>
