<svg xmlns="http://www.w3.org/2000/svg" width="1024" height="1024" fill="#1990FF" viewBox="0 0 1024 1024">
<g>
<path d="M 523.00,873.06 C523.00,871.28 523.62,871.00 527.57,871.00 C531.39,871.00 532.09,871.29 531.81,872.75 C531.57,874.03 530.34,874.58 527.24,874.81 C523.53,875.08 523.00,874.86 523.00,873.06 M 498.69,873.36 C497.13,871.80 499.63,871.00 506.06,871.00 C511.56,871.00 513.00,871.31 513.00,872.50 C513.00,873.69 511.57,874.00 506.17,874.00 C502.41,874.00 499.05,873.71 498.69,873.36 M 542.00,872.00 C542.00,870.90 542.56,870.00 543.25,869.99 C543.94,869.98 546.19,869.70 548.25,869.36 C551.79,868.77 552.00,868.89 552.00,871.37 C552.00,873.86 551.73,874.00 547.00,874.00 C542.67,874.00 542.00,873.73 542.00,872.00 M 561.00,870.12 C561.00,868.06 563.55,867.04 568.75,867.01 C571.26,867.00 572.00,867.42 572.00,868.87 C572.00,870.25 571.02,870.90 568.25,871.36 C562.20,872.36 561.00,872.15 561.00,870.12 M 583.85,868.91 C583.77,868.41 583.66,867.46 583.60,866.79 C583.46,865.07 595.24,862.77 596.20,864.33 C596.60,864.96 596.60,865.79 596.21,866.16 C594.91,867.40 584.00,869.82 583.85,868.91 M 475.00,857.96 C438.96,853.59 407.16,843.96 376.18,828.04 C365.00,822.30 356.56,817.11 357.25,816.42 C357.52,816.15 365.11,819.58 374.12,824.03 C414.56,844.03 446.38,852.44 491.42,855.02 C538.64,857.73 597.15,847.75 642.00,829.34 C652.19,825.16 672.55,815.07 679.50,810.76 C698.37,799.07 709.30,791.30 723.66,779.36 C769.77,741.02 805.87,691.01 827.50,635.51 C830.94,626.70 834.66,616.58 835.77,613.00 C844.28,585.74 847.83,571.16 851.38,549.00 C854.86,527.24 855.11,523.80 855.08,497.97 C855.07,485.33 855.45,475.00 855.93,475.00 C858.43,475.00 858.48,527.59 855.99,544.50 C846.36,609.90 820.76,674.06 786.16,719.50 C745.70,772.62 696.18,812.10 643.50,833.22 C616.17,844.18 594.63,849.90 561.00,855.13 C543.26,857.88 538.83,858.19 512.00,858.51 C495.77,858.71 479.12,858.46 475.00,857.96 M 626.57,857.33 C625.73,855.14 626.33,854.68 634.00,851.61 C640.02,849.20 640.59,849.13 641.75,850.70 C642.44,851.62 643.00,852.63 642.99,852.94 C642.98,853.45 629.03,859.00 627.76,859.00 C627.46,859.00 626.93,858.25 626.57,857.33 M 306.45,856.04 C305.32,855.58 302.95,853.57 301.20,851.57 C295.19,844.73 297.68,833.95 306.04,830.60 C310.97,828.63 313.10,828.60 317.51,830.44 C324.18,833.23 327.22,843.43 323.34,850.00 C320.16,855.39 312.02,858.30 306.45,856.04 M 317.93,848.37 C323.18,841.69 317.30,832.42 309.45,835.02 C299.65,838.25 301.58,851.00 311.88,851.00 C314.98,851.00 316.31,850.42 317.93,848.37 M 651.50,847.00 C651.16,846.45 651.19,845.51 651.56,844.91 C652.59,843.24 665.17,837.85 666.68,838.43 C669.56,839.54 667.74,842.10 662.03,844.99 C655.86,848.10 652.57,848.73 651.50,847.00 M 465.50,837.33 C436.68,833.76 420.45,829.95 399.29,821.81 C388.50,817.66 382.65,814.10 386.51,814.03 C387.61,814.01 392.43,815.54 397.22,817.42 C427.92,829.47 460.05,834.67 497.88,833.70 C521.69,833.10 541.79,830.37 558.61,825.46 C560.08,825.03 560.93,825.37 561.39,826.56 C561.75,827.51 561.86,828.48 561.63,828.71 C559.96,830.38 533.77,835.34 518.00,836.98 C509.10,837.90 472.12,838.15 465.50,837.33 M 675.67,836.33 C674.31,834.98 675.11,833.93 679.75,831.02 C685.36,827.50 688.00,827.17 688.00,830.00 C688.00,831.42 686.50,832.72 682.81,834.50 C677.20,837.20 676.67,837.34 675.67,836.33 M 569.57,826.24 C569.26,825.92 569.00,824.95 569.00,824.07 C569.00,822.94 572.50,821.23 581.10,818.17 C587.75,815.80 593.83,814.10 594.60,814.40 C596.56,815.15 596.35,817.64 594.25,818.50 C587.78,821.15 570.04,826.71 569.57,826.24 M 699.69,826.35 C698.19,824.86 699.17,823.27 702.89,821.18 C707.58,818.55 708.00,818.51 707.99,820.75 C707.99,821.71 706.53,823.39 704.74,824.48 C700.30,827.18 700.46,827.12 699.69,826.35 M 752.12,824.37 C750.84,823.47 749.16,821.22 748.38,819.37 C747.19,816.51 747.18,815.50 748.33,812.75 C750.09,808.55 751.99,807.04 756.40,806.32 C759.27,805.86 760.65,806.26 763.40,808.36 C765.34,809.83 767.11,812.25 767.47,813.88 C768.26,817.47 765.93,823.43 763.15,824.92 C760.19,826.51 754.78,826.24 752.12,824.37 M 760.80,819.80 C761.46,819.14 762.00,817.33 762.00,815.78 C762.00,813.66 761.35,812.70 759.43,811.98 C754.19,809.98 750.87,814.99 754.65,819.17 C756.56,821.28 759.07,821.53 760.80,819.80 M 467.50,812.93 C418.55,807.30 374.46,790.11 334.48,761.06 C318.55,749.48 309.62,741.81 292.50,724.98 L 279.50,712.20 L 261.50,714.63 C229.71,718.91 206.10,724.12 180.72,732.45 C176.44,733.85 172.77,735.00 172.57,735.00 C172.36,735.00 177.81,721.16 184.68,704.25 C199.35,668.11 207.22,648.15 210.58,638.58 L 213.00,631.65 L 208.08,620.08 C195.38,590.16 189.32,562.11 187.02,522.45 C185.38,494.13 188.74,461.81 196.57,430.73 C200.33,415.77 206.13,399.48 208.55,397.04 C209.82,395.76 210.00,396.54 210.00,403.26 C210.00,409.23 209.14,413.91 206.13,424.22 C187.57,487.94 190.33,558.83 213.54,614.25 C215.55,619.06 217.49,623.00 217.85,623.00 C219.80,622.99 235.00,577.69 235.00,571.87 C235.00,565.99 229.12,509.06 225.41,479.00 C222.02,451.51 220.24,440.14 214.46,409.00 C210.90,389.82 211.29,378.16 216.01,363.50 C220.00,351.08 223.48,344.15 236.80,322.00 C258.47,285.95 269.50,270.75 287.48,252.12 C330.53,207.51 378.42,184.93 417.00,191.05 C420.57,191.61 424.24,192.30 425.14,192.57 C426.25,192.90 426.74,192.51 426.64,191.37 C426.45,189.12 433.81,186.92 452.85,183.55 C475.11,179.61 480.61,179.07 505.50,178.36 C557.78,176.88 607.37,185.71 655.00,205.01 C666.67,209.73 685.41,218.94 688.50,221.47 C690.42,223.04 690.36,223.08 687.00,222.59 C676.85,221.11 673.05,220.13 668.50,217.80 C665.75,216.40 656.75,212.55 648.50,209.26 C583.31,183.25 512.11,177.30 440.00,191.84 L 430.50,193.75 L 435.50,195.88 C444.05,199.53 451.43,204.33 459.72,211.65 C468.30,219.23 478.32,236.40 482.90,251.36 C485.72,260.55 485.54,264.00 482.62,257.00 C474.88,238.48 461.33,221.69 445.78,211.35 C422.02,195.56 396.43,194.48 365.66,207.98 C333.74,221.98 301.55,248.17 276.52,280.50 C272.69,285.45 269.28,289.73 268.95,290.00 C267.94,290.82 258.00,305.86 258.00,306.55 C258.00,307.31 264.70,303.55 275.00,297.00 C322.94,266.51 350.23,252.69 385.00,241.31 C409.26,233.36 418.94,231.62 439.20,231.56 C452.46,231.51 457.23,231.83 458.20,232.80 C459.27,233.87 458.77,233.99 455.44,233.45 C450.71,232.70 436.59,234.25 422.80,237.05 C395.98,242.49 364.75,254.22 329.50,272.09 C307.62,283.18 291.60,292.00 293.33,292.00 C293.77,292.00 295.03,291.52 296.14,290.93 C300.09,288.81 339.62,287.29 369.50,288.10 C439.87,290.00 476.97,287.06 629.50,267.49 C644.35,265.58 662.12,263.31 669.00,262.43 C685.92,260.28 706.51,259.40 707.37,260.78 C708.05,261.89 704.94,262.36 689.50,263.52 C681.76,264.10 667.45,265.85 592.00,275.43 C572.48,277.91 554.25,280.19 551.50,280.51 C548.75,280.82 543.35,281.50 539.50,282.03 C535.65,282.56 521.70,284.12 508.50,285.49 C452.85,291.28 451.89,291.32 377.50,291.49 C309.95,291.63 307.17,291.71 298.00,293.77 C270.28,300.00 241.51,324.55 226.50,354.79 C217.13,373.67 216.36,385.83 222.32,421.00 C227.10,449.25 232.35,490.88 235.44,525.00 C238.93,563.51 239.52,574.56 238.13,575.42 C237.51,575.80 237.00,576.95 237.00,577.96 C237.00,580.94 228.45,612.49 223.99,625.93 C220.34,636.94 209.45,666.38 194.07,706.82 C191.28,714.15 189.00,720.26 189.00,720.40 C189.00,720.54 192.26,719.58 196.25,718.27 C206.96,714.75 236.50,708.37 252.50,706.11 C276.89,702.67 288.42,701.84 351.00,699.06 C363.38,698.51 378.23,697.82 384.00,697.54 C389.77,697.26 416.00,696.73 442.27,696.36 L 490.05,695.70 L 489.16,698.10 L 488.27,700.50 L 452.39,701.14 C410.63,701.88 369.67,704.07 314.00,708.55 C285.04,710.89 286.30,709.07 302.65,725.01 C317.97,739.96 328.48,748.68 343.50,758.93 C379.64,783.58 410.90,796.26 455.00,804.17 C465.65,806.08 471.12,806.42 492.00,806.45 C514.48,806.49 517.80,806.26 532.22,803.71 C588.87,793.66 645.15,763.89 705.00,712.31 C731.05,689.86 749.88,670.16 774.60,639.50 C794.61,614.68 813.24,583.00 822.88,557.39 C830.93,535.99 835.18,514.80 836.59,488.91 C837.35,475.01 836.60,467.17 834.45,466.34 C833.67,466.04 827.69,469.00 821.16,472.90 C790.44,491.27 761.26,501.77 690.00,520.08 C685.88,521.14 673.05,524.27 661.50,527.04 C641.07,531.93 599.11,543.11 586.00,547.14 C582.42,548.24 575.40,550.19 570.40,551.48 C561.54,553.75 555.20,556.41 550.03,560.04 C548.27,561.27 543.24,562.30 533.50,563.41 C525.80,564.29 516.35,565.46 512.50,566.03 C508.65,566.59 494.02,568.60 480.00,570.49 C454.41,573.94 431.71,577.23 394.50,582.89 C366.09,587.21 331.45,591.56 303.00,594.39 C264.97,598.17 262.00,598.35 262.00,596.82 C262.00,595.82 270.10,594.70 295.45,592.18 C328.63,588.89 375.02,582.93 413.50,577.02 C476.11,567.39 544.23,558.40 546.04,559.53 C546.45,559.78 547.37,559.26 548.10,558.38 C551.19,554.66 561.28,549.11 572.00,545.24 C592.45,537.86 630.94,527.06 662.00,520.00 C672.17,517.69 682.52,515.21 685.00,514.50 L 689.50,513.21 L 683.00,513.10 C677.12,513.01 650.29,514.26 632.50,515.46 C628.65,515.72 621.00,516.20 615.50,516.53 C546.38,520.65 492.20,526.47 402.50,539.41 C362.78,545.14 351.65,546.44 308.00,550.47 C263.81,554.54 267.00,554.38 267.00,552.59 C267.00,551.71 267.34,551.00 267.75,550.99 C268.16,550.99 278.85,550.09 291.50,549.00 C339.75,544.83 355.79,542.98 408.50,535.51 C500.42,522.48 535.87,518.62 606.50,513.98 C645.51,511.42 676.70,509.94 689.00,510.07 C701.87,510.21 703.20,510.03 717.50,506.17 C725.75,503.95 734.75,501.40 737.50,500.51 C740.25,499.63 744.86,498.25 747.75,497.46 C750.63,496.67 756.64,494.62 761.09,492.90 L 769.19,489.78 L 768.64,485.64 C768.34,483.36 767.36,474.98 766.47,467.00 C758.66,397.14 743.30,305.66 735.06,279.97 C726.56,253.46 712.46,237.95 693.22,233.93 C683.42,231.89 663.34,233.94 624.47,240.95 C618.40,242.05 603.10,244.74 590.47,246.93 C577.84,249.11 556.02,252.95 542.00,255.45 C517.33,259.85 508.97,260.94 515.50,258.89 C523.26,256.46 574.61,245.72 613.00,238.50 C678.52,226.19 692.69,225.40 708.88,233.20 C723.91,240.43 736.65,258.74 742.86,282.02 C749.21,305.80 764.48,395.35 769.89,440.50 C772.23,460.02 774.17,482.36 773.77,485.11 C773.50,486.92 773.79,488.00 774.54,488.00 C777.33,488.00 809.29,472.73 826.97,462.94 C837.64,457.03 840.48,459.87 842.08,478.00 C844.30,503.03 840.81,529.93 831.95,556.22 C810.13,620.95 744.61,697.31 660.00,756.62 C652.45,761.91 643.24,767.67 629.00,775.98 C594.65,796.05 555.50,808.98 517.00,812.98 C505.96,814.13 477.65,814.10 467.50,812.93 M 603.00,812.00 C602.16,810.44 602.40,809.78 604.23,808.58 C608.79,805.60 628.17,796.99 629.07,797.54 C629.58,797.86 629.97,798.88 629.94,799.81 C629.90,800.97 625.81,803.46 616.96,807.71 C604.74,813.59 603.98,813.82 603.00,812.00 M 714.67,812.33 C713.30,810.96 714.15,809.88 720.04,805.55 C725.66,801.41 729.08,800.57 728.94,803.36 C728.88,804.59 717.82,813.00 716.27,813.00 C715.75,813.00 715.03,812.70 714.67,812.33 M 372.01,809.51 C371.01,808.31 371.07,807.91 372.34,807.42 C374.30,806.67 376.00,807.67 376.00,809.56 C376.00,811.44 373.59,811.41 372.01,809.51 M 321.50,801.39 C316.00,797.22 308.65,791.04 305.16,787.65 C290.47,773.41 267.98,746.42 262.15,736.05 C260.05,732.32 260.01,732.00 261.69,732.04 C262.70,732.07 265.27,734.49 267.50,737.52 C269.70,740.50 271.84,742.96 272.25,742.97 C272.66,742.99 273.00,743.47 273.00,744.04 C273.00,745.83 301.75,778.05 311.78,787.50 C325.74,800.65 333.00,807.81 333.00,808.44 C333.00,809.81 330.86,808.50 321.50,801.39 M 338.16,794.53 C335.51,791.71 335.15,790.88 336.37,790.41 C338.18,789.72 345.24,794.78 344.70,796.40 C343.94,798.67 341.38,797.94 338.16,794.53 M 640.91,791.39 C639.37,789.54 640.99,788.02 649.94,782.89 C652.93,781.17 660.46,776.40 666.68,772.28 C673.84,767.53 678.57,765.00 679.57,765.39 C682.11,766.36 680.79,768.16 673.92,773.05 C669.08,776.50 649.98,788.53 642.86,792.61 C642.51,792.81 641.64,792.27 640.91,791.39 M 743.44,789.90 C742.68,788.67 751.74,779.00 753.65,779.00 C756.68,779.00 755.76,781.42 750.98,786.02 C745.60,791.20 744.57,791.73 743.44,789.90 M 325.76,785.07 C322.58,783.25 321.49,781.11 322.98,779.62 C323.71,778.89 324.93,779.47 326.99,781.53 C330.57,785.13 329.79,787.38 325.76,785.07 M 268.75,780.43 C263.56,777.61 266.57,770.48 272.66,771.18 C275.13,771.46 275.54,771.97 275.80,775.13 C276.00,777.47 275.53,779.32 274.48,780.38 C272.53,782.33 272.26,782.33 268.75,780.43 M 273.82,775.67 C274.04,774.54 273.47,774.00 272.07,774.00 C270.93,774.00 270.00,774.60 270.00,775.33 C270.00,778.40 273.24,778.68 273.82,775.67 M 311.24,773.62 C306.94,769.46 306.05,767.48 308.15,766.78 C309.70,766.27 318.35,775.63 317.53,776.95 C316.57,778.50 315.92,778.15 311.24,773.62 M 535.36,773.00 C566.78,761.89 576.26,754.97 597.33,727.75 L 604.11,719.00 L 591.80,727.05 C556.44,750.19 522.25,760.58 477.75,761.73 C466.34,762.03 457.00,762.05 457.00,761.78 C457.00,761.51 460.64,755.07 465.09,747.47 C474.98,730.56 494.75,692.27 503.02,674.00 C507.80,663.43 516.00,643.62 516.00,642.63 C516.00,642.43 494.05,644.28 464.00,647.03 C451.62,648.17 425.52,650.41 406.00,652.01 C386.48,653.62 368.70,655.16 366.50,655.45 C364.30,655.73 343.82,657.09 321.00,658.46 C298.18,659.83 271.24,661.46 261.15,662.07 C248.19,662.86 242.48,662.88 241.73,662.13 C240.07,660.47 241.86,660.21 263.00,659.03 C322.42,655.68 351.72,653.77 370.50,652.01 C376.00,651.50 389.27,650.35 400.00,649.47 C410.73,648.59 429.18,646.98 441.00,645.90 C487.61,641.64 496.88,640.87 506.95,640.45 L 517.39,640.00 L 520.70,630.75 C522.52,625.66 524.28,620.66 524.61,619.64 C525.17,617.88 524.71,617.81 516.85,618.46 C512.26,618.84 502.88,619.76 496.00,620.52 C489.12,621.27 470.68,623.04 455.00,624.44 C404.85,628.91 370.76,632.02 361.00,632.99 C355.77,633.51 344.75,634.61 336.50,635.43 C310.95,637.98 261.20,641.77 250.75,641.97 C249.79,641.99 249.00,641.40 249.00,640.67 C249.00,639.66 253.37,639.05 267.25,638.11 C291.00,636.49 340.42,632.27 350.00,631.03 C354.12,630.50 373.02,628.69 392.00,627.01 C444.43,622.38 467.99,620.22 496.82,617.42 C515.25,615.64 523.51,615.18 524.39,615.91 C525.37,616.72 526.63,613.84 529.96,603.23 C535.70,584.93 539.67,574.84 543.27,569.41 C544.91,566.94 546.42,565.08 546.62,565.29 C546.83,565.50 545.41,570.58 543.48,576.58 C541.54,582.59 539.27,590.20 538.42,593.50 C535.07,606.59 524.75,637.36 518.96,651.53 C515.59,659.76 512.17,668.30 511.35,670.50 C510.52,672.70 503.61,687.10 495.99,702.50 C482.90,728.96 476.87,739.89 467.98,753.25 L 464.15,759.00 L 467.64,759.00 C478.59,759.00 502.25,756.45 513.97,754.00 C526.52,751.38 544.76,745.90 553.00,742.29 C568.32,735.56 580.21,728.96 597.72,717.45 C607.98,710.71 609.56,709.24 616.16,700.29 C622.66,691.47 635.07,675.57 655.74,649.60 C659.73,644.60 662.60,640.37 662.12,640.21 C661.65,640.05 653.44,640.82 643.88,641.93 C634.32,643.03 616.83,645.05 605.00,646.41 C583.96,648.83 556.46,651.00 546.88,651.00 C543.22,651.00 542.19,650.67 542.59,649.63 C542.97,648.63 546.48,648.09 555.81,647.59 C573.92,646.62 596.91,644.36 624.00,640.88 C636.92,639.22 651.77,637.67 657.00,637.44 L 666.50,637.02 L 673.21,628.76 C676.89,624.22 679.93,619.93 679.96,619.24 C680.00,618.00 678.82,618.03 668.50,619.54 C655.37,621.46 552.44,627.78 551.39,626.73 C549.81,625.15 552.71,624.00 558.28,624.00 C561.66,624.00 570.52,623.55 577.97,623.00 C585.41,622.46 602.75,621.32 616.50,620.47 C630.25,619.63 645.10,618.50 649.51,617.97 C653.91,617.44 663.36,616.81 670.51,616.58 L 683.50,616.15 L 691.24,607.32 C695.49,602.47 699.48,597.65 700.10,596.60 C701.11,594.91 700.97,594.78 698.86,595.38 C696.95,595.92 676.85,599.06 660.25,601.41 C658.46,601.67 657.00,601.49 657.00,601.02 C657.00,599.83 667.42,597.58 687.50,594.43 L 704.50,591.76 L 713.64,582.13 C718.66,576.83 722.67,572.38 722.54,572.23 C722.22,571.88 706.57,574.37 696.50,576.38 C692.10,577.26 677.70,580.03 664.50,582.55 C651.30,585.06 636.00,587.98 630.50,589.05 C619.60,591.15 561.48,601.00 559.94,601.00 C559.42,601.00 559.00,600.33 559.00,599.50 C559.00,598.67 559.43,598.00 559.97,598.00 C563.29,598.00 633.39,585.39 674.34,577.42 C689.65,574.44 707.87,571.05 714.84,569.89 L 727.50,567.77 L 740.00,555.45 C759.97,535.76 791.26,512.73 795.72,514.44 C797.00,514.94 797.17,516.14 796.64,521.14 C795.39,533.16 788.94,559.31 784.92,568.69 C782.78,573.67 781.42,574.20 783.02,569.43 C785.71,561.36 791.89,529.00 790.73,529.00 C790.48,529.00 788.79,532.49 786.99,536.75 C785.19,541.01 782.20,547.78 780.36,551.79 C778.51,555.80 777.00,559.27 777.00,559.51 C777.00,560.72 764.52,588.03 755.52,606.50 L 745.28,627.50 L 734.92,637.69 C729.22,643.30 724.45,647.78 724.32,647.66 C724.20,647.53 735.32,624.94 749.03,597.46 C762.75,569.98 773.98,547.35 773.99,547.16 C773.99,546.97 772.11,549.22 769.79,552.14 C767.48,555.07 757.91,566.25 748.52,576.98 C739.13,587.72 723.66,605.73 714.12,617.00 C704.59,628.27 693.35,641.52 689.15,646.43 C684.94,651.34 678.58,659.03 675.00,663.53 C645.92,700.10 627.99,721.62 615.25,735.25 C610.16,740.69 606.00,745.59 606.00,746.14 C606.00,747.58 609.28,746.40 619.50,741.28 C639.52,731.24 650.11,725.32 662.40,717.28 C678.37,706.84 685.60,701.09 703.47,684.67 C711.19,677.57 721.10,668.78 725.50,665.13 C737.98,654.78 760.44,631.76 767.91,621.66 C792.03,589.06 800.86,571.37 812.15,533.00 L 813.47,528.50 L 813.78,532.52 C814.18,537.74 807.41,559.95 801.12,574.00 C791.85,594.75 773.57,622.45 753.74,645.81 C745.53,655.48 719.95,680.87 709.00,690.23 C698.47,699.23 684.41,710.00 683.19,710.00 C682.63,710.00 682.02,710.36 681.83,710.79 C681.65,711.23 679.25,713.09 676.50,714.93 C645.72,735.56 605.25,755.00 572.00,765.11 C548.06,772.40 526.10,778.11 522.62,777.95 C522.00,777.92 527.74,775.69 535.36,773.00 M 584.56,757.64 C595.51,753.30 604.00,748.64 604.00,746.96 C604.00,745.12 608.28,739.47 622.54,722.47 C628.07,715.89 640.22,701.05 649.55,689.50 C676.06,656.68 685.59,644.94 690.56,639.00 C715.27,609.46 768.97,548.34 771.64,546.72 C773.58,545.55 789.19,524.85 788.58,524.25 C786.48,522.15 742.20,565.26 715.40,595.50 C696.33,617.02 690.00,624.57 666.46,653.85 C638.47,688.68 641.91,684.23 609.00,728.38 C599.00,741.80 589.78,751.50 582.59,756.16 C575.78,760.59 576.24,760.94 584.56,757.64 M 762.00,772.64 C762.00,771.89 763.87,769.16 766.15,766.57 C769.91,762.30 770.44,762.01 771.86,763.43 C773.28,764.85 773.01,765.41 769.00,769.50 C764.56,774.02 762.00,775.17 762.00,772.64 M 299.79,761.23 C297.58,758.66 296.49,756.57 297.76,757.35 C298.35,757.72 299.02,757.45 299.25,756.76 C299.87,754.93 303.00,757.70 303.00,760.06 C303.00,762.68 301.50,763.23 299.79,761.23 M 685.29,757.32 C684.84,756.13 685.94,754.53 689.07,751.82 C691.51,749.72 694.01,748.00 694.64,748.00 C695.59,748.00 697.00,750.11 697.00,751.54 C697.00,752.20 687.74,759.00 686.82,759.00 C686.34,759.00 685.65,758.24 685.29,757.32 M 778.62,755.19 C777.70,753.71 778.25,752.80 783.94,746.26 C788.36,741.19 791.02,739.67 790.98,742.25 C790.95,744.44 779.43,756.50 778.62,755.19 M 700.03,746.54 C698.71,744.95 699.81,743.64 707.80,737.25 C712.56,733.45 712.63,733.43 713.93,735.87 C714.78,737.45 714.00,738.53 708.87,742.87 C705.53,745.69 702.45,748.00 702.02,748.00 C701.60,748.00 700.70,747.34 700.03,746.54 M 490.00,745.06 C490.00,744.54 492.14,743.87 494.75,743.55 C526.46,739.75 539.99,735.66 564.03,722.59 C571.71,718.41 578.24,715.00 578.55,715.00 C581.82,715.00 563.74,726.73 551.66,732.45 C541.27,737.37 525.69,742.11 512.11,744.49 C502.47,746.17 490.00,746.50 490.00,745.06 M 725.46,739.94 C724.64,738.61 726.39,736.47 735.97,727.00 C740.15,722.88 746.19,716.66 749.40,713.20 C755.09,707.06 758.13,705.72 758.78,709.08 C759.08,710.65 728.94,741.00 727.08,741.00 C726.55,741.00 725.82,740.52 725.46,739.94 M 719.28,730.30 C718.80,729.02 721.39,725.99 729.57,718.29 C739.70,708.74 742.78,706.84 743.69,709.57 C744.10,710.80 722.70,732.00 721.04,732.00 C720.43,732.00 719.64,731.23 719.28,730.30 M 506.00,718.89 C506.00,717.84 507.97,717.44 514.14,717.25 C523.58,716.95 540.84,714.56 549.49,712.35 C558.07,710.16 572.75,704.24 590.50,695.81 C596.66,692.89 586.15,699.69 577.90,703.96 C557.47,714.54 541.71,718.78 519.25,719.73 C508.33,720.19 506.00,720.04 506.00,718.89 M 812.48,715.97 C811.78,714.83 818.58,704.00 819.99,704.00 C822.28,704.00 821.90,706.56 818.88,711.55 C815.69,716.82 813.81,718.12 812.48,715.97 M 661.50,713.50 C663.15,712.13 669.00,707.86 674.50,704.01 C680.00,700.16 686.08,695.81 688.00,694.34 C690.13,692.72 689.35,693.81 686.00,697.12 C679.56,703.49 662.39,716.00 660.09,716.00 C659.01,715.99 659.47,715.19 661.50,713.50 M 760.47,698.96 C759.61,697.56 762.67,693.00 764.46,693.00 C767.03,693.00 767.25,695.11 764.93,697.57 C762.43,700.23 761.45,700.54 760.47,698.96 M 826.51,694.02 C825.29,692.04 832.58,680.90 834.59,681.67 C836.66,682.47 836.38,683.46 832.36,689.52 C828.71,695.02 827.64,695.84 826.51,694.02 M 520.47,691.95 C520.10,691.36 520.01,690.66 520.26,690.41 C520.51,690.16 526.97,689.52 534.61,689.00 C546.31,688.19 595.45,682.81 615.25,680.16 C618.41,679.74 621.00,679.72 621.00,680.12 C621.00,680.51 619.31,681.86 617.25,683.11 C615.19,684.36 611.70,686.80 609.50,688.54 C604.40,692.56 602.44,693.71 603.43,692.11 C603.84,691.45 606.44,689.11 609.22,686.92 L 614.26,682.93 L 610.38,683.49 C589.62,686.46 558.68,690.13 547.40,690.95 C539.76,691.51 530.72,692.21 527.32,692.50 C523.39,692.85 520.90,692.65 520.47,691.95 M 231.00,684.02 C231.00,682.42 233.41,682.19 282.00,679.07 C331.72,675.87 360.51,674.42 392.50,673.48 C403.50,673.16 420.60,672.48 430.50,671.96 C440.40,671.45 459.70,670.73 473.39,670.35 C494.59,669.78 498.21,669.88 497.81,671.09 C497.45,672.16 494.86,672.55 486.92,672.72 C481.19,672.85 460.30,673.63 440.50,674.47 C420.70,675.31 391.68,676.46 376.00,677.02 C341.81,678.24 308.96,680.11 262.00,683.48 C237.74,685.23 231.00,685.34 231.00,684.02 M 771.37,681.53 C771.04,680.65 773.67,676.49 778.01,671.06 C784.24,663.25 785.46,662.18 787.10,663.06 C788.15,663.61 789.00,664.28 789.00,664.55 C789.00,664.81 786.22,668.50 782.83,672.76 C774.50,683.21 772.58,684.68 771.37,681.53 M 533.54,672.07 C532.40,670.22 537.06,669.31 551.28,668.62 C573.66,667.53 622.32,661.48 634.00,658.33 C636.14,657.75 636.32,657.87 635.26,659.16 C631.83,663.36 599.78,668.25 554.50,671.48 C550.10,671.79 543.73,672.30 540.35,672.59 C536.49,672.94 533.96,672.74 533.54,672.07 M 711.77,669.50 C712.35,668.40 714.04,666.38 715.54,665.00 C717.05,663.62 723.01,657.10 728.81,650.50 C734.60,643.90 739.94,638.14 740.67,637.70 C743.84,635.79 741.43,639.41 733.73,648.13 C724.41,658.70 710.18,672.54 711.77,669.50 M 840.05,670.05 C838.81,669.27 838.95,668.37 840.98,664.03 C843.74,658.15 845.05,656.79 846.87,657.92 C847.88,658.54 847.48,660.09 845.07,664.86 C843.37,668.24 841.87,670.99 841.74,670.98 C841.61,670.98 840.85,670.56 840.05,670.05 M 792.00,655.43 C792.00,652.97 800.63,642.00 802.56,642.00 C805.29,642.00 804.77,643.82 800.32,649.82 C797.55,653.55 795.00,656.00 793.87,656.00 C792.84,656.00 792.00,655.75 792.00,655.43 M 187.50,650.00 C185.60,646.32 186.29,644.55 189.06,646.03 C191.08,647.11 191.74,651.43 190.04,652.47 C189.52,652.80 188.37,651.69 187.50,650.00 M 165.05,646.37 C163.92,643.83 163.00,641.46 163.00,641.11 C163.00,640.76 162.17,638.90 161.15,636.99 C155.43,626.21 147.66,594.40 145.45,572.66 C144.75,565.88 144.77,565.83 147.12,566.16 C149.35,566.48 149.54,567.03 150.16,575.12 C150.90,584.90 153.97,601.13 157.03,611.50 C158.17,615.35 159.79,620.98 160.63,624.00 C162.14,629.40 167.23,642.82 169.07,646.24 C170.44,648.80 170.20,651.00 168.55,651.00 C167.75,651.00 166.17,648.92 165.05,646.37 M 848.00,648.98 C848.00,648.42 849.12,645.19 850.50,641.81 C851.88,638.42 853.00,635.06 853.00,634.33 C853.00,632.80 856.58,632.52 857.48,633.97 C857.81,634.50 856.67,638.33 854.95,642.47 C852.60,648.11 851.34,650.00 849.91,650.00 C848.86,650.00 848.00,649.54 848.00,648.98 M 181.54,632.47 C179.89,628.14 179.98,625.00 181.77,625.00 C182.97,625.00 186.30,634.71 185.53,635.96 C184.32,637.92 183.27,637.00 181.54,632.47 M 858.24,624.17 C856.34,622.97 857.80,616.82 859.88,617.21 C860.77,617.38 861.63,618.42 861.79,619.52 C862.17,622.18 859.87,625.20 858.24,624.17 M 176.47,614.25 C174.86,608.70 170.93,590.07 169.49,581.17 C168.83,577.07 168.92,576.85 171.07,577.17 C173.13,577.47 173.50,578.48 175.14,588.26 C176.14,594.18 177.70,601.83 178.60,605.26 C181.94,617.88 181.95,617.96 179.97,619.02 C178.36,619.88 177.94,619.30 176.47,614.25 M 255.00,619.02 C255.00,617.59 257.07,617.30 283.50,614.99 C316.05,612.15 370.86,605.82 396.00,601.99 C402.88,600.94 420.65,598.49 435.50,596.54 C450.35,594.59 467.45,592.32 473.50,591.50 C494.64,588.63 531.51,584.00 533.22,584.00 C534.20,584.00 534.73,584.55 534.45,585.28 C533.97,586.51 529.22,587.25 484.00,593.09 C452.74,597.13 438.28,599.06 428.50,600.50 C409.65,603.28 375.50,607.97 367.00,608.95 C362.32,609.49 350.62,610.86 341.00,612.00 C310.59,615.59 296.98,617.03 279.50,618.52 C259.35,620.24 255.00,620.33 255.00,619.02 M 869.48,593.81 C869.16,592.97 870.03,587.79 871.42,582.30 C875.20,567.41 878.93,543.15 879.66,528.75 C880.04,521.33 880.73,516.00 881.31,516.00 C883.00,516.00 881.23,544.65 878.51,561.51 C875.90,577.68 872.41,592.85 870.93,594.42 C870.42,594.96 869.83,594.71 869.48,593.81 M 266.20,575.91 C266.45,575.13 267.30,574.43 268.08,574.34 C268.86,574.25 275.35,573.66 282.50,573.03 C325.72,569.22 379.11,562.48 425.50,554.99 C428.80,554.46 438.48,553.10 447.00,551.97 C455.52,550.85 467.00,549.29 472.50,548.52 C498.84,544.82 553.33,538.89 573.50,537.54 C578.45,537.21 584.41,536.70 586.75,536.41 C593.42,535.58 591.74,537.64 584.75,538.88 C581.31,539.48 562.30,541.57 542.50,543.52 C500.30,547.67 493.80,548.47 447.50,555.14 C428.25,557.91 406.65,561.00 399.50,561.99 C392.35,562.99 378.62,564.94 369.00,566.33 C340.36,570.47 299.41,574.97 274.61,576.70 C267.23,577.21 265.81,577.08 266.20,575.91 M 573.00,573.09 C573.00,572.49 573.28,572.00 573.63,572.00 C573.97,572.00 585.34,569.56 598.88,566.57 C612.42,563.58 628.02,560.22 633.53,559.10 C639.05,557.98 651.65,555.23 661.53,552.98 C671.42,550.74 686.92,547.35 696.00,545.45 C705.08,543.55 717.45,540.92 723.50,539.60 C761.67,531.26 761.00,531.38 761.00,532.92 C761.00,534.52 756.21,535.72 711.00,545.47 C702.48,547.31 684.92,551.14 672.00,553.99 C659.08,556.83 639.95,560.96 629.50,563.16 C577.98,574.01 573.00,574.89 573.00,573.09 M 144.00,548.93 C144.00,544.64 144.27,543.90 145.75,544.19 C147.07,544.44 147.58,545.69 147.80,549.26 C148.08,553.47 147.88,554.00 146.05,554.00 C144.25,554.00 144.00,553.38 144.00,548.93 M 265.00,529.62 C265.00,528.73 265.58,528.00 266.29,528.00 C268.08,528.00 302.27,525.15 309.00,524.44 C312.02,524.12 316.07,523.68 318.00,523.46 C319.93,523.23 326.45,522.58 332.50,522.00 C346.32,520.68 368.48,518.19 377.00,517.00 C380.57,516.50 391.60,515.16 401.50,514.03 C411.40,512.90 424.90,511.31 431.50,510.50 C456.18,507.48 487.88,503.96 499.00,503.01 C505.32,502.47 517.92,501.34 527.00,500.49 C556.07,497.79 577.79,496.04 607.50,494.01 C656.24,490.69 671.08,490.01 709.39,489.33 C740.93,488.77 746.21,488.88 745.81,490.09 C745.43,491.22 741.90,491.54 727.92,491.70 C666.63,492.43 594.99,497.02 496.50,506.54 C473.72,508.74 423.85,514.39 386.50,519.00 C368.90,521.18 347.75,523.63 339.50,524.45 C331.25,525.27 320.23,526.38 315.00,526.92 C309.77,527.46 298.75,528.38 290.50,528.96 C282.25,529.54 273.14,530.29 270.25,530.63 C265.83,531.13 265.00,530.97 265.00,529.62 M 814.00,524.12 C814.00,523.02 814.45,521.84 815.00,521.50 C815.55,521.16 816.00,521.78 816.00,522.88 C816.00,523.98 815.55,525.16 815.00,525.50 C814.45,525.84 814.00,525.22 814.00,524.12 M 262.01,511.51 C261.01,510.31 261.08,509.91 262.39,509.40 C263.27,509.06 264.73,509.06 265.61,509.40 C266.92,509.91 266.99,510.31 265.99,511.51 C265.31,512.33 264.42,513.00 264.00,513.00 C263.58,513.00 262.69,512.33 262.01,511.51 M 813.15,511.56 C813.34,510.64 813.95,509.92 814.50,509.95 C815.98,510.03 815.71,512.26 814.15,512.78 C813.31,513.06 812.94,512.61 813.15,511.56 M 142.99,503.00 C132.59,501.19 125.91,490.87 129.02,481.43 C132.90,469.67 145.35,464.99 155.29,471.57 C170.44,481.60 160.85,506.11 142.99,503.00 M 152.13,496.43 C155.20,494.84 158.00,489.84 158.00,485.93 C158.00,482.35 154.89,476.99 151.91,475.46 C139.35,468.96 127.45,484.65 137.40,494.60 C140.17,497.37 141.56,498.00 144.95,498.00 C147.23,498.00 150.46,497.30 152.13,496.43 M 261.00,491.50 C261.00,490.22 263.68,490.00 279.25,490.02 C333.39,490.10 411.28,489.05 423.50,488.09 C437.97,486.95 499.91,481.48 538.50,477.94 C606.61,471.69 672.10,467.16 704.00,466.48 C717.48,466.19 731.54,465.77 735.25,465.54 C740.43,465.21 742.00,465.43 742.00,466.46 C742.00,467.86 736.32,468.26 698.50,469.54 C672.19,470.42 611.97,474.52 568.00,478.42 C558.92,479.23 543.40,480.60 533.50,481.47 C523.60,482.34 503.35,484.17 488.50,485.54 C415.47,492.28 399.77,493.00 324.25,493.00 C268.69,493.00 261.00,492.82 261.00,491.50 M 256.39,468.82 C256.16,468.44 256.52,467.80 257.19,467.38 C257.86,466.97 289.48,466.55 327.46,466.47 C399.09,466.30 407.70,465.95 462.50,460.96 C484.68,458.94 524.71,454.92 532.00,453.98 C536.12,453.45 552.77,451.66 569.00,450.01 C585.23,448.36 604.80,446.35 612.50,445.55 C628.76,443.84 656.28,441.52 684.00,439.52 C712.32,437.47 730.98,435.99 735.19,435.46 C738.43,435.05 741.06,436.28 739.75,437.59 C739.27,438.06 716.96,440.10 691.50,441.98 C652.40,444.88 579.43,451.61 550.17,455.00 C480.34,463.11 434.08,467.09 387.50,468.99 C360.00,470.11 257.10,469.98 256.39,468.82 M 790.60,452.25 C790.28,450.19 789.33,442.78 788.50,435.78 C785.90,413.95 783.52,404.60 776.83,390.06 C774.70,385.42 773.11,381.17 773.29,380.62 C773.76,379.23 779.61,387.91 782.51,394.28 C788.37,407.16 793.00,430.88 793.00,448.05 C793.00,456.32 791.60,458.76 790.60,452.25 M 831.58,453.13 C831.25,452.59 829.85,446.60 828.48,439.82 C825.53,425.28 820.31,406.44 815.36,392.50 C811.52,381.68 798.81,354.58 793.77,346.50 C780.60,325.35 771.31,313.17 757.38,298.80 C749.94,291.13 746.00,285.32 746.00,282.03 C746.00,274.78 776.53,307.22 792.24,331.15 C810.40,358.84 823.33,388.91 831.36,422.14 C836.52,443.54 837.58,449.85 836.34,451.82 C835.10,453.80 832.44,454.53 831.58,453.13 M 255.00,450.95 C255.00,450.39 255.56,449.74 256.25,449.50 C256.94,449.26 275.82,448.59 298.22,448.02 C355.08,446.57 403.33,443.02 454.00,436.56 C460.32,435.75 471.35,434.36 478.50,433.47 C485.65,432.57 499.82,430.74 510.00,429.39 C520.17,428.04 540.42,425.38 555.00,423.49 C569.58,421.59 585.10,419.57 589.50,419.00 C596.80,418.04 632.72,413.86 701.50,405.96 C715.80,404.32 729.41,402.70 731.75,402.36 C735.13,401.86 736.00,402.04 736.00,403.23 C736.00,405.21 728.29,406.24 633.00,416.97 C613.48,419.17 588.73,422.12 578.00,423.52 C567.27,424.93 551.75,426.96 543.50,428.04 C535.25,429.11 519.95,431.12 509.50,432.50 C418.82,444.47 381.97,448.05 330.00,449.93 C281.39,451.68 255.00,452.04 255.00,450.95 M 808.58,446.75 C808.33,445.51 806.93,438.43 805.47,431.00 C799.92,402.67 790.82,381.91 778.60,369.68 C770.32,361.39 773.85,362.79 782.75,371.32 C796.77,384.77 806.76,410.87 809.53,441.25 C810.19,448.49 809.61,451.82 808.58,446.75 M 253.00,431.13 C253.00,430.51 253.11,429.95 253.25,429.89 C253.39,429.83 266.10,429.20 281.50,428.49 C359.34,424.90 389.95,422.07 460.50,411.99 C468.20,410.89 477.65,409.55 481.50,409.01 C485.35,408.47 494.35,407.13 501.50,406.03 C508.65,404.93 525.75,402.45 539.50,400.53 C553.25,398.61 567.42,396.59 571.00,396.05 C593.19,392.71 654.31,384.60 673.00,382.51 C680.42,381.69 696.40,379.88 708.50,378.50 C733.99,375.60 734.00,375.60 734.00,377.25 C734.00,378.16 723.74,379.71 697.25,382.82 C677.04,385.20 653.98,387.99 646.00,389.03 C599.22,395.14 584.82,397.07 579.00,398.02 C575.42,398.61 561.48,400.63 548.00,402.51 C534.52,404.39 506.40,408.41 485.50,411.43 C444.31,417.39 414.69,421.41 400.50,422.96 C367.41,426.60 362.76,426.98 315.00,429.92 C285.96,431.71 253.00,432.35 253.00,431.13 M 251.00,409.05 C251.00,408.52 252.46,407.85 254.25,407.56 C260.61,406.53 289.80,404.07 308.50,402.99 C349.50,400.61 389.81,397.01 420.88,392.94 C429.34,391.84 436.46,391.13 436.71,391.37 C437.42,392.09 434.34,392.79 419.00,395.41 C393.66,399.73 360.17,402.90 301.00,406.55 C286.98,407.42 272.35,408.53 268.50,409.03 C259.26,410.23 251.00,410.23 251.00,409.05 M 161.71,405.98 C153.78,399.75 157.75,388.00 167.79,388.00 C175.59,388.00 180.11,395.28 176.81,402.53 C174.40,407.80 166.36,409.64 161.71,405.98 M 171.14,401.06 C173.37,399.23 173.42,398.97 171.97,396.31 C169.18,391.21 163.00,392.43 163.00,398.07 C163.00,402.75 167.21,404.29 171.14,401.06 M 247.59,390.15 C247.25,389.59 247.31,388.94 247.73,388.69 C249.65,387.57 267.75,383.88 280.00,382.10 C308.88,377.91 326.63,377.09 400.00,376.59 C491.64,375.96 523.97,374.20 606.00,365.42 C623.88,363.51 644.80,361.27 652.50,360.45 C672.03,358.36 680.30,357.44 705.50,354.55 C731.25,351.59 731.00,351.61 731.00,353.33 C731.00,354.32 726.73,355.14 714.75,356.47 C705.81,357.45 695.80,358.62 692.50,359.05 C676.39,361.15 587.97,370.51 561.50,372.92 C501.20,378.40 485.16,379.08 405.50,379.53 C367.55,379.75 331.32,380.18 325.00,380.49 C302.59,381.60 267.54,386.36 250.36,390.63 C249.18,390.92 247.94,390.71 247.59,390.15 M 246.56,369.10 C245.75,367.79 247.45,367.34 263.71,364.58 C297.75,358.82 305.78,358.25 364.00,357.55 C417.69,356.90 430.37,356.50 461.50,354.42 C501.64,351.75 529.02,349.35 562.72,345.55 C569.75,344.75 583.83,343.18 594.00,342.04 C604.17,340.90 615.65,339.54 619.50,339.00 C623.35,338.47 634.60,337.09 644.50,335.94 C654.40,334.79 667.67,333.19 674.00,332.38 C680.33,331.56 689.33,330.46 694.00,329.93 C698.67,329.40 707.80,328.28 714.28,327.44 C720.77,326.61 726.50,326.19 727.03,326.52 C729.26,327.90 727.65,328.89 722.25,329.49 C719.09,329.85 711.55,330.77 705.50,331.54 C670.03,336.08 662.18,337.06 649.50,338.51 C641.80,339.39 622.67,341.66 607.00,343.55 C591.33,345.44 576.48,347.21 574.00,347.48 C486.94,356.95 442.89,359.70 366.00,360.48 C333.07,360.81 310.46,361.49 301.00,362.43 C285.90,363.93 260.41,367.48 253.50,369.05 C248.40,370.20 247.25,370.21 246.56,369.10 M 833.91,361.83 C832.62,359.43 833.39,357.00 835.43,357.00 C836.88,357.00 839.00,359.87 839.00,361.82 C839.00,363.83 834.98,363.84 833.91,361.83 M 832.00,353.42 C832.00,351.65 834.15,351.96 834.77,353.81 C834.99,354.47 834.45,355.00 833.58,355.00 C832.71,355.00 832.00,354.29 832.00,353.42 M 250.00,349.04 C250.00,345.84 284.31,338.30 309.50,335.96 C316.10,335.35 347.60,334.66 379.50,334.42 C435.91,334.00 454.58,333.23 499.50,329.47 C520.19,327.73 528.22,326.83 589.00,319.39 C613.48,316.39 639.35,313.25 646.50,312.41 C653.65,311.58 664.67,310.26 671.00,309.50 C677.33,308.73 688.12,307.60 695.00,306.99 C701.88,306.37 710.79,305.53 714.80,305.11 C721.38,304.44 724.29,305.04 722.61,306.73 C722.28,307.05 715.60,307.91 707.76,308.64 C699.92,309.36 687.88,310.63 681.00,311.45 C674.12,312.28 660.40,313.88 650.50,315.01 C640.60,316.13 627.55,317.70 621.50,318.49 C615.45,319.27 606.67,320.38 602.00,320.94 C597.33,321.51 582.70,323.31 569.50,324.94 C489.00,334.91 439.85,337.94 359.58,337.87 C324.04,337.85 316.09,338.19 296.63,340.62 C286.88,341.83 258.68,347.48 251.75,349.60 C250.79,349.89 250.00,349.64 250.00,349.04 M 821.19,339.05 C819.99,337.42 819.00,335.58 819.00,334.97 C819.00,332.82 822.50,334.55 823.84,337.36 C825.81,341.47 823.89,342.69 821.19,339.05 M 198.45,335.91 C197.75,334.78 200.93,328.00 202.17,328.00 C204.02,328.00 203.94,330.36 201.99,333.52 C199.62,337.35 199.42,337.49 198.45,335.91 M 255.00,325.19 C255.00,324.72 255.56,324.28 256.25,324.22 C256.94,324.15 262.23,322.71 268.00,321.02 C292.19,313.92 315.10,312.01 376.45,311.98 C401.78,311.97 430.60,311.52 440.50,310.98 C476.02,309.03 525.04,304.38 561.50,299.49 C589.80,295.70 634.40,290.00 643.50,289.02 C647.90,288.55 659.83,287.21 670.00,286.05 C689.16,283.87 711.14,282.21 712.96,282.82 C716.17,283.89 712.52,284.77 700.25,285.88 C687.27,287.05 680.58,287.78 648.00,291.56 C634.52,293.12 605.84,296.81 586.00,299.53 C550.54,304.40 507.49,309.10 466.50,312.58 C453.33,313.70 427.11,314.45 381.00,315.03 C344.43,315.49 310.68,316.34 306.00,316.93 C291.62,318.75 277.92,321.00 268.50,323.09 C254.97,326.11 255.00,326.10 255.00,325.19 M 205.66,324.33 C204.67,323.34 209.76,316.00 211.43,316.00 C212.70,316.00 211.87,319.37 209.93,322.10 C207.84,325.04 206.87,325.54 205.66,324.33 M 811.72,321.75 C808.80,318.21 808.25,316.00 810.31,316.00 C811.92,316.00 816.00,321.35 816.00,323.46 C816.00,325.84 814.65,325.30 811.72,321.75 M 799.47,298.96 C797.67,296.98 797.68,296.87 799.73,294.83 C803.43,291.13 807.97,295.17 804.47,299.04 C802.24,301.49 801.75,301.49 799.47,298.96 M 205.50,292.34 C198.03,288.40 195.00,283.31 195.00,274.68 C195.00,270.36 195.56,268.53 197.83,265.40 C201.63,260.17 202.81,259.31 208.08,257.90 C220.22,254.65 230.95,263.21 230.98,276.17 C231.00,281.05 230.55,282.44 227.75,286.07 C225.96,288.39 222.93,291.13 221.02,292.15 C216.77,294.40 209.59,294.49 205.50,292.34 M 220.27,286.52 C225.93,282.56 227.66,274.23 224.05,268.31 C220.44,262.40 214.14,260.79 207.38,264.06 C194.21,270.44 199.95,290.48 214.38,288.48 C216.51,288.18 219.16,287.30 220.27,286.52 M 777.65,264.17 C775.04,261.28 775.51,256.55 778.55,255.16 C779.95,254.52 781.90,254.00 782.89,254.00 C785.39,254.00 788.00,257.16 788.00,260.17 C788.00,265.30 781.09,267.97 777.65,264.17 M 783.85,259.32 C782.36,257.52 780.48,259.21 781.38,261.55 C781.90,262.92 782.30,263.00 783.52,261.98 C784.69,261.01 784.76,260.42 783.85,259.32 M 240.99,260.07 C233.74,257.86 228.73,253.47 224.94,246.00 C221.87,239.97 221.88,229.93 224.97,223.57 C234.80,203.25 265.35,205.48 272.51,227.04 C276.57,239.26 270.85,252.50 258.87,258.56 C253.94,261.07 246.37,261.70 240.99,260.07 M 253.60,254.53 C265.57,250.97 271.49,236.93 265.67,225.91 C258.61,212.53 239.81,211.34 231.93,223.77 C226.46,232.39 227.13,241.54 233.76,248.93 C237.17,252.74 243.05,255.84 247.07,255.96 C247.93,255.98 250.87,255.34 253.60,254.53 M 296.46,211.93 C296.10,211.35 295.96,210.75 296.15,210.61 C300.30,207.56 303.16,206.00 304.60,206.00 C306.02,206.00 305.68,206.73 303.00,209.50 C299.52,213.10 297.61,213.80 296.46,211.93 M 758.82,207.93 C754.86,204.98 753.52,200.09 755.41,195.55 C757.44,190.70 759.33,188.98 763.33,188.33 C773.77,186.64 780.02,200.60 771.89,207.44 C768.14,210.60 762.66,210.80 758.82,207.93 M 768.07,203.96 C769.37,203.27 770.00,201.87 770.00,199.66 C770.00,195.72 768.48,194.00 765.00,194.00 C763.57,194.00 761.86,194.54 761.20,195.20 C759.21,197.19 759.77,201.73 762.22,203.44 C764.84,205.28 765.50,205.34 768.07,203.96 M 700.50,200.63 C694.30,197.71 690.14,193.10 688.30,187.10 C684.43,174.45 693.79,160.22 707.21,158.38 C719.96,156.64 732.04,167.53 731.98,180.72 C731.90,196.96 715.19,207.54 700.50,200.63 M 719.05,194.75 C723.66,191.64 726.22,186.86 726.30,181.21 C726.38,175.33 724.55,171.53 719.79,167.70 C709.91,159.76 695.39,165.66 693.31,178.47 C692.43,183.88 695.41,190.56 700.26,194.07 C705.57,197.92 713.90,198.22 719.05,194.75 M 314.41,199.85 C313.54,198.45 315.69,196.76 323.27,192.89 C328.40,190.28 329.11,190.14 329.68,191.62 C330.42,193.53 328.75,195.01 321.78,198.58 C316.46,201.31 315.42,201.49 314.41,199.85 M 338.67,187.57 C337.94,185.69 339.20,184.82 347.26,181.66 C355.19,178.54 357.00,178.37 356.99,180.75 C356.98,181.98 354.68,183.46 349.24,185.75 C340.53,189.41 339.44,189.59 338.67,187.57 M 602.04,156.81 C599.34,153.92 599.47,151.44 602.45,148.45 C606.82,144.09 613.00,146.40 613.00,152.40 C613.00,158.53 606.19,161.27 602.04,156.81 M 608.50,152.99 C608.50,150.84 605.59,151.15 605.17,153.34 C604.92,154.68 605.32,155.08 606.66,154.83 C607.67,154.63 608.50,153.80 608.50,152.99 Z"/>
</g>
</svg>
